<?xml version="1.0" encoding="utf-8"?>
<!DOCTYPE svg PUBLIC "-//W3C//DTD SVG 20010904//EN" "http://www.w3.org/TR/2001/REC-SVG-20010904/DTD/svg10.dtd">
<svg version="1.0" xmlns="http://www.w3.org/2000/svg" width="860px" height="322px" viewBox="0 0 860 322" preserveAspectRatio="xMidYMid meet">
 <g fill="none" stroke="#55a0cc" stroke-width="1">
  <path d="M691.2 273.4 c0.3 -3.5 0.5 -3.8 5.3 -5 8.1 -2 13.5 -10 13.5 -20 0 -4.7 -2.9 -21.2 -12.3 -71.1 -7.3 -38.3 -7.3 -38.3 -4.3 -38.3 3.6 0 4.9 0.8 6.3 3.5 0.6 1.1 4.2 20.6 7.9 43.3 6.4 38.6 7 41.2 8.9 41.2 1.9 0 2.3 -1.9 6.3 -27.7 10.1 -65.2 9.1 -60.3 12.2 -60.3 1.4 0 3.4 0.6 4.3 1.3 1.6 1.1 1.6 1.9 0.1 11.7 -1.9 12.9 -18.9 98.6 -21 105.5 -3.4 11.7 -10 17.1 -23.2 18.9 -4.3 0.6 -4.3 0.6 -4 -3z"/>
  <path d="M147.1 263.5 c-13.1 -2.9 -25.1 -8 -30.4 -12.9 -1.6 -1.5 -3.3 -2.4 -3.8 -2.1 -0.5 0.4 -0.9 0 -0.9 -0.8 0 -0.7 -1.2 -2.4 -2.6 -3.8 -4.7 -4.3 -11.2 -13.8 -13.5 -19.7 -2.2 -5.7 -3.4 -20.2 -1.7 -20.2 0.4 0 0.8 -0.5 0.8 -1.1 0 -0.6 1.2 -3.9 2.7 -7.2 3 -6.6 8.8 -12.8 14.6 -15.4 2 -0.9 3.7 -2 3.7 -2.3 0 -0.3 1.5 -0.6 3.4 -0.6 3.3 0 3.3 0 3.9 7.1 2.2 24.7 14.9 42.9 37.4 53.2 6.5 3 14.6 5.3 18.7 5.3 1.9 0 5.6 1.8 10 4.9 3.9 2.6 8.6 5.6 10.4 6.5 1.7 0.9 3.2 2 3.2 2.4 0 1.2 -11.8 5.1 -20.3 6.7 -9.7 1.8 -27 1.8 -35.6 0z"/>
  <path d="M373.8 239 c-12.5 -1.5 -12.8 -1.6 -12.8 -6.1 0 -3.9 0 -3.9 13.3 -3.3 13 0.6 13.2 0.6 15.3 -1.7 3.2 -3.6 4.4 -8.3 4.4 -17.3 0 -8.1 0 -8.1 -7.7 -15.1 -18.5 -16.9 -24.1 -23 -25.3 -27.6 -1.6 -5.7 -0.8 -16.4 1.5 -21.2 1.9 -4.1 6.5 -7.1 12.8 -8.2 4.8 -0.9 23.7 1.4 23.7 2.9 0 0.7 -0.7 2.2 -1.6 3.5 -1.6 2.2 -2 2.3 -10.4 1.7 -11.4 -0.9 -15.4 0.5 -16.9 6.1 -3.1 11.1 0 17.2 14.7 28.9 10.9 8.6 14.3 12.1 17.4 17.9 1.8 3.5 2 5.1 1.5 13.5 -0.8 15.2 -5.4 23.4 -14.5 26 -4.1 1.1 -5.6 1.1 -15.4 0z"/>
  <path d="M506.5 239.1 c-5.9 -2.5 -7.5 -9.5 -7.5 -33.3 0 -20.3 0.9 -23.2 8.9 -27.3 4.9 -2.4 14.5 -4.5 21.4 -4.5 3.7 0 3.7 0 3.7 -9.8 0 -10.2 -1.1 -16 -3.2 -17.4 -1.8 -1.1 -9.8 -1 -15.8 0.3 -5.7 1.2 -9.3 -0.2 -10.3 -4 -0.3 -1.2 -0.4 -2.1 -0.4 -2.1 0.1 0 4 -0.7 8.7 -1.5 15.5 -2.7 23.3 -1.6 27.2 3.8 2.3 3.2 2.3 3.2 2.6 49.6 0.3 46.4 0.3 46.4 -3.9 45.8 -4.6 -0.6 -5.9 -1.9 -5.9 -5.9 0 -3.7 -1.8 -3.5 -6.6 0.5 -2.1 1.8 -5 4.1 -6.4 5 -2.6 1.8 -9.1 2.2 -12.5 0.8z m11.4 -8.1 c1.8 -0.5 5.9 -2.6 9 -4.6 5.6 -3.6 5.6 -3.6 5.6 -23.6 0 -20.1 0 -20.1 -8.1 -19.5 -10.8 0.8 -15 2.5 -15.9 6.7 -0.9 4.1 0.5 38 1.7 40.3 1 1.9 2.8 2.1 7.7 0.7z"/>
  <path d="M621.4 239 c-1.4 -0.6 -2.3 -2.1 -2.7 -4.7 -0.4 -2.1 -0.7 -24.4 -0.7 -49.5 0 -45.8 0 -45.8 3.1 -45.8 1.7 0 3.9 0.5 5 1 1.8 1 1.9 2.7 1.9 50.5 0 49.5 0 49.5 -2.2 49.4 -1.3 0 -3.2 -0.4 -4.4 -0.9z"/>
  <path d="M664.4 238.9 c-4 -1.1 -7.3 -4.8 -8.6 -9.6 -0.6 -2.2 -1.3 -19.8 -1.5 -42.5 -0.5 -38.7 -0.5 -38.7 -4.1 -39 -3.6 -0.3 -3.7 -0.4 -4 -4.5 -0.3 -4.3 -0.3 -4.3 3.7 -4.3 4.1 0 4.1 0 4.1 -7.5 0 -7.4 0 -7.5 2.6 -7.5 5.3 0 6.4 1.5 6.4 8.5 0 6.5 0 6.5 8.5 6.5 8.2 0 8.5 0.1 8.5 2.3 0 4.5 -2.1 5.9 -9.6 6.4 -6.9 0.5 -6.9 0.5 -6.6 36.2 0.1 19.6 0.5 37.5 0.8 39.9 0.9 6.7 3 8.2 11.9 8.2 7.5 0 7.5 0 7.5 3.4 0 3.3 -0.1 3.3 -5.2 4 -6.7 0.8 -10.5 0.6 -14.4 -0.5z"/>
  <path d="M427 170.5 c0 -67.1 0 -68.5 1.9 -68.5 1.1 0 3.1 0.4 4.5 1 2.6 1 2.6 1 2.6 21 0 23.3 -0.9 21.9 11.5 17 8.7 -3.5 12.4 -3.7 18 -1.1 10.2 4.7 10.7 7.1 11.2 57.9 0.5 41.2 0.5 41.2 -2.4 41.2 -6.2 0 -6.1 1.1 -6.7 -39.5 -0.5 -39.1 -1.2 -46.4 -4.6 -50.1 -3.6 -3.7 -7.5 -3.7 -17.4 -0.1 -8.8 3.2 -8.8 3.2 -9 45 -0.1 40.2 -0.2 41.9 -2 43.3 -1.1 0.8 -3.2 1.4 -4.8 1.4 -2.8 0 -2.8 0 -2.8 -68.5z"/>
  <path d="M567.9 238.3 c-1 -0.2 -2 -1.4 -2.3 -2.6 -0.3 -1.2 -0.6 -23.5 -0.6 -49.4 0 -47.3 0 -47.3 3.1 -47.3 4.4 0 6.9 1.7 6.9 4.5 0 3.5 1.9 3.2 9.5 -1.5 8.4 -5.1 14.5 -5.4 14.5 -0.6 0 3.1 -1.9 4.6 -5.9 4.7 -2.3 0 -6.2 1.5 -11 4.3 -7.3 4.2 -7.3 4.2 -7.2 46.4 0.2 42.2 0.2 42.2 -2.6 42.1 -1.5 -0.1 -3.5 -0.3 -4.4 -0.6z"/>
  <path d="M288 158 c0 -13.6 -6.7 -30.4 -16.1 -40.5 -9.7 -10.4 -20.5 -16.4 -36.6 -20.4 -6.2 -1.5 -9.9 -3.3 -17.5 -8.4 -9.7 -6.5 -9.7 -6.5 -2 -9 10.8 -3.6 18.9 -4.8 30.6 -4.8 15.4 0 32.1 4.1 43.2 10.6 4.7 2.7 18.4 15.7 18.4 17.4 0 0.6 0.5 1.1 1 1.1 0.6 0 1 0.7 1 1.5 0 0.8 0.5 1.5 1.1 1.5 0.5 0 0.7 0.4 0.4 1 -0.3 0.6 -0.1 1 0.5 1 0.6 0 0.8 0.4 0.5 1 -0.3 0.6 -0.1 1 0.5 1 0.6 0 0.8 0.5 0.5 1 -0.3 0.6 -0.1 1 0.5 1 0.6 0 0.9 0.4 0.5 0.9 -0.3 0.5 -0.1 1.2 0.4 1.6 0.6 0.3 0.8 1.2 0.4 2 -0.3 0.8 -0.1 1.5 0.3 1.5 1 0 1.1 13.6 0.2 14.6 -0.4 0.3 -0.4 1.2 -0.1 2 0.3 0.8 0 1.4 -0.6 1.4 -0.6 0 -0.8 0.7 -0.5 1.5 0.4 0.8 0.1 1.5 -0.6 1.5 -0.6 0 -0.8 0.5 -0.5 1 0.3 0.6 0.1 1 -0.5 1 -0.6 0 -0.8 0.5 -0.5 1 0.3 0.6 0.1 1 -0.5 1 -0.6 0 -0.8 0.5 -0.5 1 0.3 0.6 0.1 1 -0.5 1 -0.6 0 -0.8 0.5 -0.5 1 0.3 0.6 -0.1 1.3 -0.9 1.6 -0.9 0.3 -1.4 0.9 -1.1 1.4 1 1.6 -12.2 10 -15.9 10 -0.9 0 -1.6 0.5 -1.6 1 0 0.6 -0.7 1 -1.5 1 -1.1 0 -1.5 -1.1 -1.5 -4z"/>
  <path d="M618.7 118 c-3.4 -2.7 -4.1 -5.3 -2.3 -8.8 2.6 -5.1 9.1 -5.9 12.5 -1.6 2.8 3.6 2.6 6.6 -0.5 9.8 -3.2 3.1 -6.2 3.3 -9.7 0.6z"/>
 </g>
 <g fill="none" stroke="#7db4d3" stroke-width="1">
  <path d="M233.5 265 c-9.7 -1.6 -25.2 -6.4 -33 -10.3 -6.1 -3.1 -18.5 -11.8 -18.5 -13 0 -0.6 -1.1 -2.2 -2.4 -3.6 -2.9 -3.1 -2.1 -6.5 1.9 -8.3 3.4 -1.5 3.2 -3.3 -1 -7.9 -4.3 -4.8 -4.6 -8.9 -1 -12.4 1.3 -1.4 2.9 -2.5 3.5 -2.5 2.1 0 0.9 -2.7 -3.1 -6.5 -6 -5.9 -7.3 -8.8 -5.5 -12.3 3.2 -6.1 7.6 -7.4 12.9 -3.8 5 3.4 6.1 3.3 7.6 -0.9 1.4 -4.1 6.1 -7 9.7 -6.1 1.3 0.4 5 2.3 8.2 4.3 7.6 4.9 21.1 10.7 31.4 13.5 11.9 3.1 31 3.2 42.1 0 9.7 -2.8 13.7 -4.8 13.7 -6.9 0 -1.4 -1 -1.5 -7 -0.9 -8.7 0.8 -18.8 -0.7 -25.7 -3.9 -9.1 -4.1 -19.3 -15.4 -19.3 -21.3 0 -4.9 4.8 -5.4 16.5 -1.6 8.9 2.9 23.5 4.4 23.5 2.5 0 -0.6 0.7 -1.1 1.5 -1.1 0.8 0 1.5 -0.4 1.5 -1 0 -0.5 0.7 -1 1.6 -1 3.7 0 16.9 -8.4 15.9 -10 -0.3 -0.5 0.2 -1.1 1.1 -1.4 0.8 -0.3 1.2 -1 0.9 -1.6 -0.3 -0.5 -0.1 -1 0.5 -1 0.6 0 0.8 -0.4 0.5 -1 -0.3 -0.5 -0.1 -1 0.5 -1 0.6 0 0.8 -0.5 0.5 -1 -0.3 -0.6 -0.1 -1 0.5 -1 0.6 0 0.8 -0.5 0.5 -1 -0.3 -0.6 -0.1 -1 0.5 -1 0.7 0 1 -0.7 0.6 -1.5 -0.3 -0.8 -0.1 -1.5 0.5 -1.5 0.6 0 0.9 -0.6 0.6 -1.4 -0.3 -0.8 -0.3 -1.7 0.1 -2 0.9 -1 0.8 -14.6 -0.2 -14.6 -0.4 0 -0.6 -0.7 -0.3 -1.5 0.4 -0.8 0.2 -1.7 -0.4 -2 -0.5 -0.4 -0.7 -1.1 -0.4 -1.6 0.4 -0.5 0.1 -0.9 -0.5 -0.9 -0.6 0 -0.8 -0.4 -0.5 -1 0.3 -0.5 0.1 -1 -0.5 -1 -0.6 0 -0.8 -0.5 -0.5 -1 0.3 -0.6 0.1 -1 -0.5 -1 -0.6 0 -0.8 -0.4 -0.5 -1 0.3 -0.5 0.1 -1 -0.4 -1 -0.6 0 -1.1 -0.7 -1.1 -1.5 0 -0.8 -0.4 -1.5 -1 -1.5 -0.5 0 -1 -0.5 -1 -1.1 0 -0.6 -3.3 -4.3 -7.2 -8.2 -7.3 -7.2 -5.9 -7 4.1 0.6 11.5 8.8 23.9 25.3 29.6 39.4 5.9 14.4 8.3 31.1 6.6 45.2 -2.8 22.8 -12.9 43.2 -29.3 58.7 -9 8.5 -14.1 12.1 -24.9 17.5 -15.2 7.6 -37.6 11.3 -53.4 8.9z m6.3 -14.6 c0.3 -1.8 -0.4 -2.2 -3.5 -2.7 -2.1 -0.4 -5.9 -0.7 -8.5 -0.7 -2.7 0 -4.8 -0.4 -4.8 -1 0 -0.5 -1.3 -1 -3 -1 -1.6 0 -3 -0.4 -3 -1 0 -0.5 -0.9 -1 -2 -1 -1.1 0 -2 -0.4 -2 -1 0 -0.5 -0.9 -1 -2 -1 -1.1 0 -2 -0.4 -2 -1 0 -0.5 -1.1 -1 -2.4 -1 -3.1 0 -5.6 -1 -5.6 -2.2 0 -1.5 -2.7 -3.8 -4.4 -3.8 -0.9 0 -1.6 -0.4 -1.6 -1 0 -0.5 -1.3 -1 -3 -1 -2.6 0 -3 0.4 -3 2.6 0 2.9 2.1 5.4 4.4 5.4 0.9 0 1.6 0.4 1.6 0.9 0 0.5 1.4 1.1 3 1.5 1.8 0.3 3 1.2 3 2.1 0 0.8 0.9 1.5 2 1.5 1.1 0 2 0.5 2 1 0 0.6 0.9 1 2 1 1.1 0 2 0.5 2 1 0 0.6 1.4 1 3 1 1.7 0 3 0.5 3 1 0 0.6 1.8 1 4 1 2.2 0 4 0.5 4 1 0 0.7 3 1 8.3 0.8 7.5 -0.3 8.2 -0.5 8.5 -2.4z m5.6 -13 c0.9 -0.3 1.6 -1.5 1.6 -2.5 0 -1.5 -0.7 -1.9 -4 -1.9 -2.2 0 -4 -0.4 -4 -1 0 -0.5 -1.8 -1 -4 -1 -2.2 0 -4 -0.4 -4 -1 0 -0.5 -1.3 -1 -3 -1 -1.6 0 -3 -0.4 -3 -1 0 -0.5 -0.9 -1 -2 -1 -1.1 0 -2 -0.4 -2 -1 0 -0.5 -1.3 -1 -3 -1 -1.6 0 -3 -0.4 -3 -1 0 -0.5 -0.9 -1 -2 -1 -1.1 0 -2 -0.4 -2 -1 0 -0.5 -0.8 -1 -1.8 -1 -1 0 -2.4 -0.9 -3.2 -2 -0.8 -1.1 -2.1 -2 -2.8 -2 -0.7 0 -3.1 -1.8 -5.1 -3.9 -2.5 -2.6 -5.1 -4.2 -7.5 -4.6 -3.5 -0.7 -3.6 -0.7 -3.6 2.5 0 3.3 1.9 6 4.2 6 0.8 0 2 0.9 2.8 2 0.8 1.1 2.1 2 3 2 0.9 0 2.2 0.9 3 2 0.8 1.1 2.2 2 3.2 2 1 0 1.8 0.5 1.8 1 0 0.6 0.9 1 2 1 1.1 0 2 0.5 2 1 0 0.6 0.9 1 2 1 1.1 0 2 0.5 2 1 0 0.6 0.9 1 2 1 1.1 0 2 0.5 2 1 0 0.6 1.4 1 3 1 1.7 0 3 0.5 3 1 0 0.6 1.4 1 3 1 1.7 0 3 0.4 3 1 0 0.5 3.3 1.1 7.3 1.3 3.9 0.1 7.3 0.4 7.4 0.5 0.1 0.1 0.8 -0.1 1.7 -0.4z m11.4 -18.6 c-0.2 -1.9 -1 -2.3 -4.6 -2.5 -2.3 -0.2 -5.6 -1 -7.2 -1.8 -1.6 -0.8 -4.5 -1.5 -6.4 -1.5 -4.5 0 -23.7 -9.5 -24.3 -12.1 -0.3 -1.1 -1.1 -1.9 -1.7 -1.9 -0.6 0 -1.8 -0.9 -2.6 -2 -0.8 -1.1 -2.2 -2 -3.2 -2 -1 0 -1.8 -0.4 -1.8 -1 0 -0.5 -0.6 -1 -1.4 -1 -0.7 0 -1.9 -0.7 -2.6 -1.5 -1.4 -1.7 -5 -2 -5 -0.4 0 1.3 3 6.8 4.7 8.6 0.6 0.7 1.9 1.3 2.7 1.3 0.9 0 1.6 0.5 1.6 1 0 0.6 0.9 1 2.1 1 1.1 0 3.5 1.1 5.2 2.4 3.7 2.8 19.4 10.6 21.4 10.6 0.7 0 1.3 0.7 1.3 1.5 0 1.1 1.2 1.5 4.8 1.5 2.6 0 5.4 0.5 6.2 1 0.8 0.5 3.7 1 6.3 1 4.4 0 4.8 -0.2 4.5 -2.2z"/>
  <path d="M103.3 241.7 c-4 -3.4 -9.8 -9.3 -12.9 -13.2 -6.4 -8.1 -15.5 -26 -17.9 -35.5 -2.6 -10 -3.1 -30.8 -1 -41.1 3.9 -19.4 12.3 -34.9 26.4 -49 11.1 -11 22.2 -18.3 34.8 -22.9 21.6 -7.8 42.6 -7.8 64.6 0 4.7 1.6 9.3 3 10.3 3 1 0 5.8 2.7 10.6 6 4.9 3.3 9.3 6 9.9 6 0.5 0 0.9 1 0.9 2.3 0 1.3 1.1 3.4 2.5 4.7 1.4 1.3 2.5 2.9 2.5 3.5 0 1.5 -4.3 5.5 -5.8 5.5 -2.1 0 -1.3 3.1 1.3 5.2 6 4.7 6.6 10.9 1.4 15.2 -1.6 1.4 -2.9 3 -2.9 3.7 0 0.7 2.3 3.6 5 6.5 2.8 2.9 5 6 5 6.9 0 2.7 -3.1 7.2 -5.7 8.4 -3.4 1.6 -4.6 1.4 -8.7 -1.4 -4.4 -3 -6.6 -3.2 -6.6 -0.6 0 2.9 -3.7 6.9 -7.1 7.6 -2.4 0.6 -4.3 -0.1 -9.7 -3.4 -28.9 -17.4 -58.3 -21.6 -83.7 -11.9 -3.5 1.3 -5.5 2.7 -5.5 3.7 0 1.4 1.6 1.6 11.8 1.6 13.4 0 18.4 1.3 27.2 7.3 6.2 4.2 13 13.2 13 17.2 0 5.9 -4 6.2 -19 1.5 -7 -2.2 -9.7 -2.5 -15.5 -2.1 -3.8 0.3 -8.2 0.7 -9.7 0.7 -1.6 0.1 -2.8 0.5 -2.8 0.9 0 0.3 -1.7 1.4 -3.7 2.3 -5.8 2.6 -11.6 8.8 -14.6 15.4 -1.5 3.3 -2.7 6.6 -2.7 7.2 0 0.6 -0.4 1.1 -0.8 1.1 -1.7 0 -0.5 14.5 1.7 20.2 2.3 5.9 8.8 15.4 13.5 19.7 2.5 2.4 3.3 4.1 1.9 4.1 -0.5 0 -4.1 -2.8 -8 -6.3z m112.3 -94.8 c-0.6 -3.2 -2.7 -5.9 -4.6 -5.9 -0.7 0 -2.5 -1.3 -4 -3 -1.5 -1.6 -3.4 -3 -4.2 -3 -0.7 0 -2 -0.9 -2.8 -2 -0.8 -1.1 -2.2 -2 -3.2 -2 -1 0 -1.8 -0.4 -1.8 -1 0 -0.5 -0.9 -1 -2 -1 -1.1 0 -2 -0.4 -2 -1 0 -0.5 -1.4 -1 -3.2 -1 -1.7 0 -3.9 -0.6 -4.7 -1.4 -0.9 -0.7 -4.3 -2.2 -7.6 -3.2 -3.3 -1 -6.2 -2.1 -6.5 -2.5 -0.3 -0.4 -3.9 -0.9 -8 -1 -7.1 -0.4 -7.5 -0.3 -7.8 1.9 -0.3 2 0.1 2.2 3.7 2.2 2.3 0 4.1 0.5 4.1 1 0 0.6 2 1 4.5 1 2.4 0 5.4 0.4 6.7 0.9 8.2 3.2 10.8 4.6 10.8 5.8 0 0.7 0.9 1.3 2 1.3 1.1 0 2 0.5 2 1 0 0.6 0.8 1 1.8 1 1 0 2.4 0.9 3.2 2 0.8 1.1 2.2 2 3.2 2 1 0 1.8 0.5 1.8 1 0 0.6 0.7 1 1.6 1 0.8 0 3.3 1.8 5.3 3.9 3.4 3.5 5.1 4.3 11 5 1 0.1 1.2 -0.7 0.7 -3z m7.4 -18.9 c0 -1.1 -0.4 -2 -1 -2 -0.5 0 -1 -0.5 -1 -1 0 -1.5 -4.7 -6 -6.2 -6 -0.8 0 -2 -0.9 -2.8 -2 -0.8 -1.1 -2.2 -2 -3.2 -2 -1 0 -1.8 -0.4 -1.8 -1 0 -0.5 -0.9 -1 -2 -1 -1.1 0 -2 -0.4 -2 -1 0 -0.5 -0.9 -1 -2 -1 -1.1 0 -2 -0.4 -2 -1 0 -0.5 -0.9 -1 -2 -1 -1.1 0 -2 -0.4 -2 -1 0 -0.5 -1.3 -1 -3 -1 -1.6 0 -3 -0.4 -3 -1 0 -0.5 -1.8 -1 -3.9 -1 -2.2 0 -4.1 -0.4 -4.3 -0.9 -0.1 -0.5 -4.1 -1 -8.8 -1.2 -8.2 -0.4 -8.5 -0.3 -8.8 1.9 -0.3 2.1 0 2.2 5.7 2.2 3.4 0 6.1 0.4 6.1 1 0 0.6 1.4 1 3 1 1.7 0 3 0.5 3 1 0 0.6 1.4 1 3 1 1.7 0 3 0.5 3 1 0 0.6 0.9 1 2 1 1.1 0 2 0.5 2 1 0 0.6 1.4 1 3 1 1.7 0 3 0.5 3 1 0 0.6 0.8 1 1.8 1 1 0 2.4 0.9 3.2 2 0.8 1.1 2.1 2 3 2 0.9 0 2.2 0.9 3 2 0.8 1.1 2.1 2 2.9 2 0.7 0 2.1 0.9 3 1.9 1.5 1.7 3.7 2.5 7.9 3 0.6 0 1.2 -0.8 1.2 -1.9z m-2 -24 c0 -2.3 -0.4 -3 -2 -3 -1.1 0 -2 -0.4 -2 -1 0 -0.5 -1.3 -1 -3 -1 -2.3 0 -3 -0.4 -3 -2 0 -1.3 -0.7 -2 -2 -2 -1.1 0 -2 -0.4 -2 -1 0 -0.5 -0.9 -1 -2 -1 -1.1 0 -2 -0.4 -2 -1 0 -0.5 -1.3 -1 -3 -1 -1.6 0 -3 -0.4 -3 -0.9 0 -0.4 -2.8 -1.1 -6.2 -1.5 -3.5 -0.4 -8.8 -1.1 -11.8 -1.5 -5.8 -0.9 -7.7 -0.3 -6.7 2.3 0.4 1 1.9 1.6 4.2 1.6 4.2 0 12.5 2.1 12.5 3.2 0 0.4 1.4 0.8 3 0.8 1.7 0 3 0.5 3 1 0 0.6 0.9 1 2 1 1.1 0 2 0.5 2 1 0 0.6 0.9 1 2 1 1.1 0 2 0.5 2 1 0 0.6 1.3 1 2.9 1 2 0 3.6 0.9 5.2 3 1.9 2.4 3.2 3 6.2 3 3.5 0 3.7 -0.2 3.7 -3z"/>
 </g>
</svg>