<svg width="200" height="200" viewBox="0 0 200 200" fill="none" xmlns="http://www.w3.org/2000/svg">
<g clip-path="url(#clip0)">
<path d="M100 191.742C155.228 191.742 200 189.128 200 185.903C200 182.679 155.228 180.065 100 180.065C44.7715 180.065 0 182.679 0 185.903C0 189.128 44.7715 191.742 100 191.742Z" fill="#F5F5F5"/>
<path d="M48.151 17.4262C48.151 17.4262 47.1556 14.9919 41.0233 15.7139C34.8909 16.436 34.2565 24.554 31.1929 30.3253C28.1293 36.0966 24.8749 38.8972 24.8749 38.8972C24.8749 38.8972 24.4262 42.4146 31.1001 44.4003C37.774 46.386 50.8536 43.0697 50.8536 43.0697C50.8536 43.0697 52.5453 27.7053 50.0335 23.017C47.5218 18.3288 48.151 17.4262 48.151 17.4262Z" fill="#003A5D"/>
<path d="M66.0787 170.9L57.7698 171.416C57.7698 171.416 54.2472 139.398 50.3687 116.085C50.3687 116.008 50.3687 115.92 50.3326 115.833C48.7441 106.317 47.0988 98.2969 45.6134 94.5371C45.6134 94.5371 43.7051 124.384 43.1378 137.634C42.5705 150.883 39.9246 174.067 39.9246 174.067L32.245 175.206C32.245 175.206 30.9763 129.057 31.7293 120.34C32.4823 111.624 29.0525 79.3377 34.9631 71.3435H56.3412C56.3412 71.3435 64.6191 116.699 65.2174 129.273C65.8156 141.847 66.0787 170.9 66.0787 170.9Z" fill="#003A5D"/>
<path d="M38.1197 174.17L37.9959 176.646L37.7071 182.376L33.4057 183.015L33.3077 176.831L33.2716 174.454L38.1197 174.17Z" fill="#FF8B7B"/>
<path d="M64.2323 180.447L59.4203 181.788C59.4203 181.788 59.3069 178.894 59.1934 176.114C59.1212 174.325 59.049 172.581 59.0026 171.689C59.0026 171.343 58.9716 171.132 58.9613 171.086L64.1498 170.57V172.2L64.1859 175.882L64.2323 180.447Z" fill="#FF8B7B"/>
<path fill-rule="evenodd" clip-rule="evenodd" d="M39.3759 181.091C39.1895 181.044 39.1895 181.044 39.1895 181.044L39.1897 181.043L39.1903 181.041L39.1922 181.034L39.1996 181.005C39.2061 180.981 39.2156 180.945 39.2281 180.9C39.2531 180.81 39.2902 180.683 39.3386 180.531C39.4352 180.227 39.5782 179.821 39.7629 179.418C39.9462 179.018 40.1777 178.605 40.4565 178.298C40.7324 177.995 41.0966 177.753 41.5351 177.808C41.7452 177.835 41.9499 177.934 42.0226 178.162C42.0833 178.353 42.0205 178.556 41.9479 178.714C41.7955 179.047 41.4731 179.448 41.1358 179.819C41.0172 179.949 40.894 180.079 40.7714 180.204C40.9281 180.118 41.0936 180.031 41.2624 179.95C41.6801 179.75 42.1383 179.573 42.5405 179.522C42.9358 179.471 43.3789 179.537 43.5943 179.958C43.6978 180.16 43.7042 180.372 43.5947 180.561C43.4971 180.73 43.3266 180.846 43.1544 180.928C42.8065 181.095 42.3081 181.194 41.8241 181.255C41.3326 181.317 40.8259 181.345 40.444 181.356C40.2527 181.362 40.0916 181.364 39.9782 181.365C39.9215 181.365 39.8766 181.365 39.8457 181.365L39.8102 181.365L39.8009 181.365L39.7977 181.365C39.7976 181.365 39.7973 181.365 39.8005 181.131L39.7977 181.365L39.54 181.361L38.9919 181.836L39.1119 181.355L39.0031 181.354L39.1356 181.26L39.1895 181.044L39.3759 181.091ZM39.9731 180.267C40.0465 180.066 40.1331 179.848 40.2318 179.633C40.4063 179.252 40.6116 178.894 40.8381 178.645C41.0674 178.393 41.2771 178.295 41.4703 178.32C41.5008 178.324 41.5198 178.328 41.5311 178.332C41.5297 178.355 41.5214 178.407 41.479 178.499C41.3631 178.752 41.0907 179.102 40.7543 179.472C40.4994 179.752 40.2203 180.031 39.9731 180.267ZM41.5458 178.34C41.5454 178.34 41.5434 178.339 41.5407 178.336C41.5449 178.339 41.5462 178.34 41.5458 178.34ZM40.7149 180.83C41.0349 180.815 41.4028 180.789 41.7592 180.743C42.2358 180.683 42.6633 180.592 42.9314 180.463C43.0672 180.398 43.1273 180.339 43.1483 180.303C43.1576 180.287 43.1709 180.263 43.1352 180.193C43.072 180.069 42.9304 179.992 42.6054 180.033C42.287 180.074 41.8891 180.222 41.4855 180.415C41.2129 180.546 40.9472 180.693 40.7149 180.83Z" fill="#E5E1E6"/>
<path fill-rule="evenodd" clip-rule="evenodd" d="M66.1786 181.496C66.1519 181.479 66.119 181.458 66.0786 181.432C65.8256 181.381 65.8256 181.381 65.8256 181.381L65.8262 181.379L65.8277 181.371L65.8337 181.342C65.8389 181.316 65.8466 181.279 65.8567 181.232C65.8768 181.138 65.9063 181.004 65.9442 180.843C66.0197 180.522 66.1287 180.092 66.2623 179.661C66.395 179.233 66.5555 178.791 66.7366 178.451C66.8267 178.282 66.9287 178.126 67.0441 178.008C67.1567 177.893 67.3126 177.785 67.5072 177.785C67.6043 177.785 67.7106 177.814 67.7955 177.896C67.8764 177.974 67.9078 178.073 67.919 178.153C67.9399 178.306 67.901 178.484 67.8502 178.649C67.744 178.991 67.5316 179.433 67.3047 179.859C67.2599 179.943 67.2141 180.027 67.1681 180.11C67.3224 179.938 67.4821 179.783 67.6423 179.664C67.8063 179.541 67.989 179.442 68.1819 179.409C68.3861 179.374 68.5909 179.417 68.7681 179.56C68.9473 179.705 69.0301 179.9 69.0124 180.113C68.9964 180.307 68.9005 180.491 68.7849 180.652C68.5518 180.976 68.16 181.313 67.7627 181.609C67.36 181.91 66.93 182.185 66.6023 182.384C66.4381 182.484 66.2987 182.565 66.2002 182.621C66.1509 182.649 66.1118 182.671 66.0849 182.686L66.0538 182.704L66.0456 182.708L66.0428 182.71C66.0427 182.71 66.0425 182.71 65.9187 182.484C65.8435 182.445 65.7929 182.42 65.7589 182.402L65.9187 182.484L66.0428 182.71L65.3112 183.11L65.5935 182.554L65.8256 181.381L66.0786 181.432L66.1786 181.496C66.1786 181.496 66.1786 181.496 66.1786 181.496ZM66.6171 181.768C66.8804 181.601 67.1753 181.404 67.4543 181.196C67.8442 180.905 68.1818 180.607 68.366 180.351C68.459 180.222 68.4936 180.129 68.4984 180.071C68.5015 180.034 68.4951 180.003 68.4435 179.961C68.3899 179.918 68.3377 179.905 68.2687 179.917C68.1884 179.931 68.0819 179.979 67.9507 180.077C67.6883 180.273 67.3999 180.61 67.1255 180.992C66.939 181.252 66.7652 181.523 66.6171 181.768ZM66.7713 179.761C66.8971 179.361 67.0404 178.977 67.1917 178.694C67.2602 178.565 67.3254 178.467 67.3847 178.399C67.3776 178.428 67.3687 178.46 67.3575 178.496C67.2668 178.789 67.0747 179.194 66.8497 179.616C66.8238 179.664 66.7977 179.713 66.7713 179.761Z" fill="#E5E1E6"/>
<path d="M43.1946 185.264C43.1946 185.264 34.0245 185.501 33.3591 185.419C32.6938 185.336 31.9563 185.3 31.9047 184.578C31.9047 184.227 32.2193 182.097 32.2709 181.354C32.3225 180.612 32.1368 180.225 33.0703 179.988C34.0038 179.75 38.5373 179.224 39.084 179.786C39.6308 180.349 41.4978 182.489 42.88 182.737C44.2623 182.984 45.4227 182.886 45.5207 183.67C45.6187 184.454 45.6496 185.207 43.1946 185.264Z" fill="#003A5D"/>
<path d="M69.5962 185.264C69.5962 185.264 60.4311 185.501 59.7607 185.419C59.0902 185.336 58.43 185.135 58.3217 184.8C58.2134 184.464 58.626 182.097 58.6724 181.354C58.7188 180.612 58.5383 180.225 59.4718 179.988C60.4054 179.75 64.9389 179.224 65.4856 179.786C66.0323 180.349 67.8993 182.489 69.2867 182.737C70.6741 182.984 71.8242 182.886 71.9222 183.67C72.0202 184.454 72.0512 185.207 69.5962 185.264Z" fill="#003A5D"/>
<path opacity="0.3" d="M50.3327 115.827C48.7442 106.312 47.0989 98.2917 45.6135 94.5318L46.5986 89.1267C46.5986 89.1267 49.1516 108.416 50.3327 115.827Z" fill="black"/>
<path opacity="0.2" d="M38.1091 174.17L37.9853 176.646C36.7785 176.692 34.3751 176.78 33.2971 176.831L33.261 174.454L38.1091 174.17Z" fill="black"/>
<path opacity="0.2" d="M64.1962 175.877L59.1933 176.114C59.1211 174.325 59.0489 172.581 59.0025 171.689L64.1601 172.205L64.1962 175.877Z" fill="black"/>
<path d="M67.4969 170.564L66.7285 174.489L57.5686 175.201L56.3669 170.564H67.4969Z" fill="#E5E1E6"/>
<path d="M41.1573 171.844L40.3527 175.722L30.7906 176.176L30.7957 171.844H41.1573Z" fill="#E5E1E6"/>
<path d="M69.5186 59.3627C67.4556 60.3477 61.7823 61.4257 61.7823 61.4257C61.7823 61.4257 58.0689 51.8275 57.0889 46.3708C56.7814 44.42 55.8497 42.6215 54.4334 41.2453C53.0171 39.869 51.1927 38.9891 49.234 38.7376C46.7274 38.4126 36.1441 38.5209 32.4306 39.2843C28.7172 40.0476 28.0725 45.4991 27.7424 48.7742C27.4123 52.0492 25.3441 64.2469 27.0874 67.8572C28.8306 71.4675 34.9423 70.0337 34.9423 70.0337V71.3437H56.3256L55.8098 61.338C55.8098 61.338 57.8316 66.6503 60.9674 66.8669C64.1032 67.0835 71.2206 61.8538 71.2206 61.8538L69.5186 59.3627ZM31.8684 64.9586C31.8684 64.9586 32.1057 58.7283 32.5286 56.9334L33.1733 60.2601L34.081 64.9586H31.8684Z" fill="#E5E1E6"/>
<path d="M45.4691 63.5453L48.8319 59.476L53.551 58.7539L54.2731 62.947L50.6628 64.2673C50.6628 64.2673 48.9247 66.3613 45.4537 66.0003L45.4691 63.5453Z" fill="#FF8B7B"/>
<path d="M69.5187 59.3625L71.2672 56.1544L75.5325 54.3596L77.1468 58.7281L73.6138 60.1051C73.6138 60.1051 72.6906 62.1372 71.2672 61.8742L69.5187 59.3625Z" fill="#FF8B7B"/>
<path d="M45.5411 34.8277C45.518 35.1987 45.518 35.5708 45.5411 35.9418C45.5927 36.6484 45.4586 37.9429 46.846 38.6237C46.1291 40.171 44.4013 44.0495 43.3543 45.3646C41.7606 44.0598 38.0162 38.7939 38.0162 38.7939C38.0162 38.7939 40.6466 35.9418 38.7589 30.5676C38.7589 30.5676 36.1079 28.6284 36.6392 27.5607C37.2478 26.3178 38.9755 26.9883 39.3417 27.5143C38.9549 26.947 37.1549 20.7218 39.3417 18.4319C40.7033 17.0032 42.0649 16.9877 44.6024 16.8846H44.8139C46.4385 16.8279 47.6454 16.8846 47.6454 16.8846C48.197 17.4788 48.6829 18.1307 49.0947 18.829C50.2454 20.7076 50.9511 22.8247 51.1577 25.0181C51.6374 30.1292 50.6316 34.2707 45.5411 34.8277Z" fill="#FF8B7B"/>
<path d="M46.1794 29.409C45.6889 29.3021 45.2246 29.0906 44.8149 28.7876C44.4053 28.4846 44.0592 28.0965 43.7979 27.6474C43.7814 27.6141 43.778 27.5754 43.7883 27.5394C43.7985 27.5035 43.8217 27.4731 43.8529 27.4548C43.8836 27.4404 43.9182 27.4383 43.9503 27.449C43.9824 27.4596 44.0096 27.4823 44.0269 27.5126C44.3253 28.0044 44.7294 28.4156 45.2067 28.7132C45.684 29.0108 46.2211 29.1865 46.7748 29.2261C46.8041 29.2343 46.83 29.2524 46.8485 29.2776C46.867 29.3029 46.877 29.3338 46.877 29.3657C46.877 29.3976 46.867 29.4285 46.8485 29.4538C46.83 29.479 46.8041 29.4971 46.7748 29.5053C46.5741 29.4912 46.3749 29.459 46.1794 29.409V29.409Z" fill="#003A5D"/>
<path fill-rule="evenodd" clip-rule="evenodd" d="M42.9215 21.1571C43.297 20.9375 43.7266 20.8279 44.1614 20.8407C44.3037 20.8449 44.4158 20.9637 44.4116 21.1061C44.4074 21.2485 44.2886 21.3605 44.1462 21.3563C43.808 21.3463 43.4739 21.4316 43.1819 21.6023C42.8898 21.7731 42.6516 22.0224 42.4945 22.322C42.4283 22.4481 42.2724 22.4967 42.1463 22.4306C42.0202 22.3644 41.9716 22.2085 42.0378 22.0824C42.2398 21.6972 42.5461 21.3766 42.9215 21.1571Z" fill="#003A5D"/>
<path fill-rule="evenodd" clip-rule="evenodd" d="M48.3057 19.8902C48.3094 19.7478 48.4277 19.6354 48.5701 19.639C48.8823 19.647 49.1897 19.7179 49.4738 19.8475C49.758 19.9771 50.013 20.1628 50.2238 20.3933C50.3198 20.4984 50.3125 20.6615 50.2074 20.7576C50.1023 20.8537 49.9392 20.8464 49.8431 20.7412C49.6792 20.562 49.4808 20.4176 49.2598 20.3168C49.0388 20.216 48.7997 20.1608 48.5569 20.1546C48.4145 20.1509 48.3021 20.0326 48.3057 19.8902Z" fill="#003A5D"/>
<path d="M47.9088 27.5248L47.4549 23.6617L49.7294 26.5809C49.7294 26.5809 49.5076 27.5867 47.9088 27.5248Z" fill="#FF5652"/>
<path d="M44.1746 23.6928C44.2004 24.0848 44.4325 24.3891 44.6904 24.3736C44.9483 24.3581 45.1288 24.0229 45.0978 23.6257C45.0669 23.2286 44.8451 22.9295 44.5821 22.9501C44.319 22.9707 44.1437 23.3163 44.1746 23.6928Z" fill="#003A5D"/>
<path d="M48.6719 23.0481C48.7028 23.4453 48.9298 23.7496 49.1876 23.7289C49.4455 23.7083 49.626 23.3782 49.5951 22.9811C49.5641 22.584 49.3372 22.2848 49.0793 22.3054C48.8215 22.3261 48.6461 22.6562 48.6719 23.0481Z" fill="#003A5D"/>
<path d="M37.7741 24.6573C37.7741 24.6573 35.1386 21.1243 37.3151 18.8344C38.6767 17.4057 42.3385 16.4722 44.8709 16.3639C44.8142 16.9622 44.8709 22.2023 37.7741 24.6573Z" fill="#003A5D"/>
<path d="M49.1361 18.8447C47.5169 18.6811 45.9973 17.9866 44.8141 16.8694L44.6129 16.6579C45.6287 16.6159 46.646 16.6886 47.6456 16.8745V16.8745C48.1971 17.4687 48.683 18.1206 49.0948 18.8189L49.1361 18.8447Z" fill="#003A5D"/>
<path opacity="0.2" d="M45.5567 35.942C44.4358 35.6012 43.4413 34.9352 42.6994 34.0286C43.5878 34.4719 44.552 34.7431 45.5412 34.828C45.5232 35.1993 45.5284 35.5714 45.5567 35.942V35.942Z" fill="black"/>
<path opacity="0.2" d="M33.1786 60.26L32.5339 56.9334V52.1575C32.5339 52.1575 33.2766 57.1964 33.1786 60.26Z" fill="black"/>
<path d="M127.964 44.809L90.3686 46.9373L92.0065 75.8713L129.602 73.743L127.964 44.809Z" fill="#FF8300"/>
<path opacity="0.2" d="M127.964 44.809L90.3686 46.9373L92.0065 75.8713L129.602 73.743L127.964 44.809Z" fill="black"/>
<path d="M114.3 45.5849L76.7046 47.7131L78.3425 76.6472L115.938 74.5189L114.3 45.5849Z" fill="#FF8300"/>
<path opacity="0.3" d="M114.3 45.5849L76.7046 47.7131L78.3425 76.6472L115.938 74.5189L114.3 45.5849Z" fill="white"/>
<path opacity="0.3" d="M118.95 48.0854L110.925 48.5669L111.088 51.2746L119.113 50.7931L118.95 48.0854Z" fill="black"/>
<path opacity="0.5" d="M87.0642 50.7478L79.0519 51.2014L79.2997 55.5783L87.312 55.1248L87.0642 50.7478Z" fill="white"/>
<path opacity="0.3" d="M89.8625 62.1616L77.5659 62.8577L77.7592 66.2716L90.0558 65.5755L89.8625 62.1616Z" fill="black"/>
<path d="M138.826 20.9592L136.763 23.5896C137.335 23.9885 137.992 24.2482 138.682 24.3477L138.826 20.9592Z" fill="#A02724"/>
<path d="M174.434 182.278L168.441 181.937L167.224 176.826L166.558 174.026L166.311 172.994L170.922 172.68L171.252 172.654L172.232 175.619L174.434 182.278Z" fill="#B55B52"/>
<path d="M139.971 183.118C140.084 183.526 134.406 182.798 134.406 182.798L134.205 178.028L134.05 174.345V174.144H134.096L139.863 174.717C139.863 174.717 139.863 176.264 139.863 178.023C139.873 180.282 139.904 182.896 139.971 183.118Z" fill="#B55B52"/>
<path d="M151.998 34.7919C151.998 34.7919 143.901 36.9839 144.499 35.3953C144.801 34.4339 144.922 33.4249 144.855 32.4194C144.855 31.7593 144.773 31.2899 144.773 31.2899C141.843 31.4601 139.873 29.3404 138.996 26.7306C137.867 23.3834 138.279 19.6442 139.651 16.4671C139.76 16.2092 140.069 15.1158 140.342 14.9817L143.519 13.517C143.519 13.517 146.614 15.5439 148.223 16.8023C149.832 18.0608 151.127 23.9095 151.127 28.4584C151.127 33.0074 151.998 34.7919 151.998 34.7919Z" fill="#B55B52"/>
<path d="M138.584 19.9948C138.441 20.0339 138.314 20.1173 138.221 20.2332C138.128 20.349 138.075 20.4913 138.068 20.6395C138.047 20.7771 138.068 20.9179 138.129 21.0432C138.19 21.1685 138.287 21.2723 138.408 21.3409L138.584 19.9948Z" fill="#003A5D"/>
<path fill-rule="evenodd" clip-rule="evenodd" d="M139.401 17.8563C139.158 17.704 138.876 17.6263 138.589 17.6327C138.447 17.6359 138.329 17.523 138.326 17.3807C138.323 17.2383 138.435 17.1203 138.578 17.1171C138.965 17.1084 139.347 17.2135 139.675 17.4195C139.795 17.4952 139.832 17.6543 139.756 17.775C139.68 17.8956 139.521 17.932 139.401 17.8563Z" fill="#003A5D"/>
<path d="M141.4 25.7456C141.4 25.7456 143.752 29.4178 147.496 30.2585C151.24 31.0992 152.421 29.7995 152.922 27.6797C153.355 25.681 154.315 23.8345 155.702 22.3313C156.996 20.9955 156.217 17.3697 154.572 14.3887C154.572 14.3887 156.336 12.9084 153.494 11.4849C150.652 10.0615 149.605 12.4288 147.14 11.0466C144.675 9.66433 147.965 9.20531 145.639 13.517C143.313 17.8288 142.029 14.693 141.683 16.6116C141.338 18.5302 139.538 21.862 141.4 25.7456Z" fill="#003A5D"/>
<path d="M141.683 17.5038C141.451 17.4265 133.993 14.7291 133.921 13.5067C133.849 12.2844 139.703 14.5073 139.925 14.595L141.436 16.9829L141.683 17.5038Z" fill="#E5E1E6"/>
<path d="M156.733 20.4591C156.661 20.6809 156.217 22.1508 156.027 22.1508L155.403 22.1147C154.821 22.0665 154.244 21.9995 153.67 21.9135C153.035 21.8155 152.411 21.6917 151.797 21.5473H151.772C151.148 21.3978 150.534 21.2327 149.936 21.0316C148.467 20.5882 147.026 20.0595 145.619 19.4482V19.4482C144.824 19.1027 144.123 18.7674 143.556 18.4786C142.395 17.9009 141.704 17.4935 141.704 17.4935L141.601 17.3233L141.178 16.658L140.275 15.2293L139.966 14.7497V14.7136C139.951 14.67 139.951 14.623 139.966 14.5795C139.997 14.0328 141.116 12.5164 141.317 12.2586C142.146 11.1514 143.201 10.2336 144.412 9.56631C146.072 8.64827 147.945 9.05056 149.709 9.36001C150.292 9.48117 150.861 9.66445 151.405 9.90671V9.90671L151.751 10.0563L151.818 10.0872C151.88 10.1233 151.947 10.1491 152.009 10.1801L152.122 10.2368C153.433 10.8506 154.625 11.6903 155.645 12.7176C157.966 15.3222 157.022 19.6184 156.733 20.4591Z" fill="#E5E1E6"/>
<path d="M154.211 37.5615C154.211 37.5615 153.84 34.9827 153.03 34.467C152.22 33.9512 144.175 34.0286 142.921 34.9105C141.668 35.7925 141.89 38.6756 141.89 38.6756L154.211 37.5615Z" fill="#E5E1E6"/>
<path d="M139.93 21.6711C139.93 21.6711 141.302 19.8969 142.772 20.9955C144.241 22.094 143.076 24.6986 141.348 25.431C141.348 25.431 139.115 26.1582 138.826 23.8837C138.537 21.6092 139.93 21.6711 139.93 21.6711Z" fill="#B55B52"/>
<path d="M134.427 83.4177C134.427 83.4177 131.358 112.78 130.502 126.282C129.646 139.785 132.792 174.315 132.792 174.315H140.255C140.255 174.315 141.111 140.012 142.4 129.722C143.69 119.433 147.971 105.482 147.971 105.482C147.971 105.482 150.549 127.561 153.128 136.566C155.707 145.571 164.083 173.082 164.083 173.082L172.675 171.431C172.675 171.431 162.36 136.138 162.36 125.204C162.36 114.27 162.458 92.1959 159.89 83.428L134.427 83.4177Z" fill="#E5E1E6"/>
<path opacity="0.3" d="M172.66 171.442L164.073 173.097C164.073 173.097 155.702 145.587 153.123 136.582C151.705 131.631 150.291 122.713 149.306 115.694C148.481 109.964 147.965 105.497 147.965 105.497C147.965 105.497 143.679 119.423 142.39 129.738C141.101 140.053 140.25 174.33 140.25 174.33H132.792C132.792 174.33 129.646 139.805 130.502 126.303C131.358 112.8 134.427 83.4331 134.427 83.4331H159.864C162.443 92.201 162.34 114.301 162.34 125.209C162.34 136.118 172.66 171.442 172.66 171.442Z" fill="black"/>
<path opacity="0.3" d="M149.301 115.694C148.481 109.963 147.965 105.497 147.965 105.497L148.481 97.4822L149.301 115.694Z" fill="black"/>
<path opacity="0.2" d="M139.863 178.043H134.189L134.035 174.361L134.071 174.165L139.837 174.737C139.837 174.737 139.853 176.264 139.863 178.043Z" fill="black"/>
<path d="M131.982 172.88H140.925L140.487 176.563H132.333L131.982 172.88Z" fill="#003A5D"/>
<path opacity="0.2" d="M170.922 172.679L166.558 174.025L167.224 176.826L172.232 175.619L170.922 172.679Z" fill="black"/>
<path d="M162.994 172.344L172.665 168.75L173.887 173.979L164.449 176.563L162.994 172.344Z" fill="#003A5D"/>
<path fill-rule="evenodd" clip-rule="evenodd" d="M131.577 181.19C131.534 181.158 131.479 181.137 131.377 181.162C131.277 181.186 131.219 181.234 131.18 181.304C131.135 181.382 131.105 181.502 131.104 181.672C131.101 182.014 131.211 182.466 131.374 182.931C131.508 183.316 131.673 183.693 131.82 183.998C131.859 183.631 131.894 183.176 131.896 182.732C131.897 182.231 131.856 181.773 131.747 181.469C131.693 181.317 131.631 181.231 131.577 181.19ZM131.977 184.8C132.231 184.841 132.231 184.841 132.231 184.841L132.232 184.838L132.233 184.828L132.239 184.792C132.244 184.76 132.251 184.714 132.259 184.656C132.276 184.539 132.298 184.373 132.32 184.175C132.364 183.78 132.409 183.254 132.411 182.734C132.413 182.223 132.374 181.688 132.233 181.294C132.162 181.097 132.056 180.906 131.889 180.78C131.711 180.644 131.492 180.603 131.256 180.66C131.019 180.717 130.843 180.854 130.732 181.048C130.627 181.231 130.59 181.45 130.588 181.668C130.584 182.102 130.719 182.621 130.887 183.101C130.91 183.166 130.933 183.23 130.957 183.294C130.895 183.182 130.831 183.069 130.764 182.958C130.501 182.52 130.191 182.084 129.865 181.82C129.702 181.688 129.513 181.58 129.304 181.558C129.081 181.535 128.874 181.614 128.701 181.785C128.527 181.957 128.447 182.165 128.452 182.388C128.458 182.6 128.54 182.806 128.651 182.993C128.873 183.366 129.258 183.74 129.65 184.062C130.048 184.389 130.473 184.679 130.798 184.881C130.96 184.983 131.099 185.063 131.198 185.117C131.247 185.143 131.291 185.165 131.327 185.18C131.34 185.186 131.37 185.198 131.404 185.205C131.414 185.207 131.431 185.21 131.451 185.21C131.469 185.211 131.509 185.21 131.556 185.192C131.61 185.17 131.678 185.12 131.707 185.029C131.727 184.968 131.719 184.915 131.71 184.882C131.721 184.9 131.732 184.916 131.742 184.929C131.751 184.941 131.771 184.968 131.799 184.992C131.807 184.999 131.82 185.01 131.838 185.021C131.853 185.031 131.888 185.05 131.936 185.057C131.991 185.065 132.068 185.058 132.136 185.003C132.198 184.954 132.219 184.893 132.227 184.862L132.229 184.852L132.231 184.841L131.977 184.8ZM131.693 184.856C131.693 184.856 131.693 184.856 131.693 184.856C131.678 184.862 131.627 184.883 131.461 184.949L131.693 184.856ZM130.911 184.342C130.628 184.158 130.292 183.922 129.978 183.664C129.597 183.351 129.269 183.023 129.094 182.729C129.007 182.583 128.97 182.465 128.968 182.375C128.966 182.296 128.99 182.224 129.064 182.151C129.139 182.077 129.197 182.066 129.25 182.071C129.319 182.078 129.415 182.119 129.541 182.221C129.792 182.424 130.064 182.795 130.322 183.224C130.55 183.603 130.754 184.009 130.911 184.342Z" fill="#E5E1E6"/>
<path fill-rule="evenodd" clip-rule="evenodd" d="M167.857 182.645C167.857 182.645 167.857 182.645 167.61 182.721C167.548 182.806 167.511 182.857 167.489 182.886L167.61 182.721L167.857 182.645L168.089 183.394L167.668 183.084L168.014 183.466L167.238 183.304L167.291 183.051L167.44 182.916C167.413 182.941 167.367 182.983 167.291 183.051C167.238 183.304 167.238 183.304 167.238 183.304L167.234 183.303L167.225 183.301L167.188 183.293C167.157 183.286 167.111 183.276 167.053 183.263C166.937 183.236 166.773 183.197 166.579 183.147C166.191 183.047 165.678 182.903 165.188 182.724C164.704 182.548 164.216 182.329 163.895 182.074C163.735 181.947 163.589 181.79 163.525 181.598C163.455 181.386 163.497 181.172 163.64 180.983C163.781 180.795 163.973 180.695 164.186 180.668C164.389 180.643 164.6 180.687 164.801 180.76C164.982 180.826 165.171 180.923 165.359 181.037C165.184 180.829 165.035 180.619 164.934 180.42C164.843 180.237 164.776 180.033 164.799 179.831C164.824 179.609 164.952 179.432 165.161 179.318C165.368 179.205 165.584 179.192 165.79 179.256C165.986 179.317 166.16 179.444 166.312 179.594C166.615 179.893 166.885 180.34 167.107 180.783C167.332 181.231 167.519 181.696 167.65 182.048C167.715 182.224 167.767 182.372 167.802 182.477C167.819 182.53 167.833 182.571 167.842 182.6L167.853 182.633L167.856 182.642L167.856 182.644L167.857 182.645ZM167.065 181.962C166.95 181.67 166.808 181.336 166.646 181.015C166.43 180.585 166.191 180.199 165.949 179.961C165.829 179.842 165.724 179.775 165.636 179.748C165.558 179.723 165.487 179.728 165.408 179.771C165.33 179.813 165.316 179.852 165.312 179.889C165.305 179.946 165.322 180.044 165.395 180.188C165.539 180.475 165.84 180.828 166.199 181.184C166.485 181.466 166.796 181.738 167.065 181.962ZM166.469 182.585C166.244 182.371 165.978 182.131 165.7 181.91C165.323 181.611 164.943 181.361 164.624 181.244C164.465 181.186 164.34 181.169 164.249 181.18C164.167 181.19 164.104 181.223 164.051 181.294C164 181.362 164.003 181.401 164.015 181.435C164.032 181.489 164.089 181.569 164.216 181.67C164.468 181.871 164.889 182.066 165.364 182.239C165.74 182.376 166.132 182.493 166.469 182.585Z" fill="#E5E1E6"/>
<path d="M174.656 181.927H168.25C168.25 181.927 164.547 184.155 162.922 184.361C161.298 184.568 160.343 184.666 160.39 185.831C160.436 186.997 161.421 187.1 164.748 187.049C168.075 186.997 174.676 187.404 175.393 186.744C176.11 186.084 175.656 184.841 174.656 181.927Z" fill="#003A5D"/>
<path d="M139.971 182.721L133.782 182.768C133.782 182.768 130.079 184.996 128.46 185.202C126.84 185.408 125.881 185.506 125.922 186.672C125.963 187.837 126.954 187.941 130.285 187.889C133.617 187.837 139.492 188.317 140.208 187.657C140.925 186.997 140.528 185.914 139.971 182.721Z" fill="#003A5D"/>
<path opacity="0.3" d="M139.925 14.595C140.085 15.4151 140.25 16.0443 141.606 17.473C139.883 16.8334 133.983 14.5538 133.921 13.5068C133.859 12.4598 138.439 14.0329 139.925 14.595Z" fill="black"/>
<path opacity="0.3" d="M139.925 14.7238C139.91 14.6803 139.91 14.6332 139.925 14.5897V14.5897C139.925 14.5897 139.925 14.6465 139.925 14.7548V14.7238Z" fill="black"/>
<path opacity="0.3" d="M141.683 17.5039L141.524 17.442C141.532 17.4204 141.542 17.3997 141.555 17.3801L141.683 17.5039Z" fill="black"/>
<path d="M156.733 20.4591C156.661 20.6809 156.217 22.1508 156.027 22.1508L155.403 22.1147C154.821 22.0665 154.244 21.9995 153.67 21.9135C153.035 21.8155 152.411 21.6917 151.797 21.5473H151.772C151.148 21.3978 150.534 21.2327 149.936 21.0316C148.467 20.5882 147.026 20.0595 145.619 19.4482V19.4482C144.824 19.1027 144.123 18.7674 143.556 18.4786C142.395 17.9009 141.704 17.4935 141.704 17.4935L141.601 17.3233L141.178 16.658L140.275 15.2293L139.966 14.7497V14.7136C139.951 14.67 139.951 14.623 139.966 14.5795C139.997 14.0328 141.116 12.5164 141.317 12.2586C142.146 11.1514 143.201 10.2336 144.412 9.56631C146.072 8.64827 147.945 9.05056 149.709 9.36001C150.292 9.48117 150.861 9.66445 151.405 9.90671V9.90671L151.751 10.0563L151.818 10.0872C151.88 10.1233 151.947 10.1491 152.009 10.1801L152.122 10.2368C153.433 10.8506 154.625 11.6903 155.645 12.7176C157.966 15.3222 157.022 19.6184 156.733 20.4591Z" fill="#E5E1E6"/>
<path opacity="0.2" d="M146.588 30.795C146.039 31.3663 145.461 31.9086 144.855 32.4197C144.855 31.7595 144.773 31.2902 144.773 31.2902C145.395 31.1954 146.004 31.0293 146.588 30.795V30.795Z" fill="black"/>
<path d="M134.427 83.7062V57.2892L129.604 55.3241C129.604 55.3241 130.528 41.2285 137.392 39.0056C144.257 36.7827 156.475 35.8492 159.838 39.0056C161.963 41.0119 162.247 44.2302 162.324 46.9895C162.489 52.6113 161.019 58.1092 160.694 63.7C160.436 68.249 160.282 72.798 160.178 77.3521C160.178 77.7028 160.044 83.7062 160.034 83.7062H134.427Z" fill="#003A5D"/>
<path d="M137.067 58.1919C137.067 58.1919 133.498 69.982 129.971 70.7196C126.443 71.4571 114.395 64.8812 114.395 64.8812H109.015L108.252 60.1517C108.252 60.1517 113.26 58.295 116.597 60.5179C116.597 60.5179 124.39 63.9168 126.984 64.907L130.744 55.8091L137.067 58.1919Z" fill="#B55B52"/>
</g>
<defs>
<clipPath id="clip0">
<rect width="200" height="200" fill="white"/>
</clipPath>
</defs>
</svg>
