<?xml version="1.0" encoding="utf-8"?>
<!DOCTYPE svg PUBLIC "-//W3C//DTD SVG 20010904//EN" "http://www.w3.org/TR/2001/REC-SVG-20010904/DTD/svg10.dtd">
<svg version="1.0" xmlns="http://www.w3.org/2000/svg" width="666px" height="374px" viewBox="0 0 666 374" preserveAspectRatio="xMidYMid meet">
 <g fill="#e0e6fe">
  <path d="M242 338.3 c-78.9 -0.5 -167.6 -2.9 -180.3 -4.9 -4 -0.6 -9.7 -4.7 -9.7 -6.9 0 -4.6 10.5 -8.6 27.5 -10.5 6.1 -0.7 11.4 -1.6 11.8 -2 0.4 -0.4 -1 -3.1 -3.3 -6.1 -3.2 -4.3 -4 -6.1 -3.8 -8.9 0.3 -3.3 0.6 -3.5 4 -3.8 3.3 -0.3 3.9 0 5.4 3 0.9 1.8 3.1 5.1 4.9 7.4 l3.3 4 17.6 -0.4 c17.1 -0.4 19.1 -0.1 16.4 2.6 -0.9 0.9 1.9 1.2 12.8 1.2 10.8 0 14.5 0.3 16 1.5 2.5 1.9 3.4 1.9 3.4 0 0 -1.8 0.9 -1.9 4.4 -0.5 2 0.7 2.6 1.7 2.6 3.9 0 4.3 1 6.1 3.3 6.1 2.1 0 2.1 0 -0.1 -1.6 -1.7 -1.2 -2.2 -2.5 -2.2 -6 0 -3.2 0.4 -4.4 1.5 -4.4 0.8 0 1.5 0.6 1.5 1.4 0 1.2 0.7 1.3 3.1 0.6 1.7 -0.5 6.7 -0.6 11.2 -0.3 7.2 0.6 8 0.5 7.4 -1 -0.4 -1 -0.2 -1.7 0.3 -1.7 0.6 0 1 0.6 1 1.4 0 2 18 2.8 19.6 0.9 0.6 -0.7 1.9 -1.3 2.8 -1.3 1.5 0 1.7 0.9 1.5 5.5 -0.1 3 -0.1 5.6 0.2 5.8 0.2 0.3 1.7 0.7 3.4 1.1 2.8 0.7 2.9 0.7 1.3 -1.1 -1.7 -1.9 -2.1 -7 -0.7 -7.9 0.5 -0.3 0.6 0.2 0.3 1 -0.3 0.9 -0.1 1.6 0.5 1.6 0.6 0 1.1 -0.5 1.1 -1.2 0 -0.6 0.3 -0.8 0.6 -0.5 0.4 0.3 1.6 0 2.8 -0.8 1.4 -1.1 4.8 -1.5 11.7 -1.5 9.2 0 9.7 -0.1 9.2 -2 -0.5 -1.9 0 -2 9 -2 5.2 0 10.8 -0.3 12.5 -0.6 2.6 -0.5 3.1 -0.3 3.4 1.7 0.3 2.4 0.5 2.4 15.8 3 19.1 0.8 21.6 1.5 21.4 5.7 -0.1 2.2 0.2 2.9 1.2 2.5 0.8 -0.3 1.4 -1.3 1.4 -2.2 0 -0.9 0.5 -2.2 1.2 -2.9 0.8 -0.8 0.8 -1.5 -0.1 -2.5 -0.9 -1.2 -0.8 -1.6 0.5 -2.1 2.7 -1 4.4 -0.7 4.4 0.9 0 1.2 1.9 1.5 11.5 1.5 9.6 0 11.5 -0.3 11.5 -1.5 0 -1 1 -1.5 3 -1.5 3.2 0 4 1.4 1.5 2.4 -2.1 0.8 -1.9 2.4 0.5 3.1 1.1 0.3 2 1.5 2 2.5 0 0.9 0.9 2 2 2.3 1.5 0.4 2 0 2 -1.6 0 -2.1 0.6 -2.2 8.6 -2.5 4.7 -0.2 9.6 -0.7 11 -1.2 1.4 -0.6 4.8 -1 7.5 -1 5.1 0 6.2 1.2 3.7 3.9 -0.7 0.8 0 0.5 1.6 -0.5 l2.9 -1.8 -0.5 2.8 c-0.5 2.4 -0.3 2.7 1.6 2.2 1.1 -0.3 2.4 -0.6 2.9 -0.6 0.4 0 0.7 -1.6 0.7 -3.5 0 -2.5 0.4 -3.5 1.6 -3.5 0.8 0 1.3 0.4 0.9 0.9 -1 1.8 1.6 2.3 3.4 0.7 3.4 -3.1 28.1 -1.7 28.1 1.6 0 0.6 0.6 0.5 1.5 -0.2 1.3 -1.1 1.5 -0.8 1.5 1.9 0 1.7 -0.5 3.1 -1.2 3.1 -0.6 0 -0.9 0.2 -0.7 0.5 0.3 0.2 1.5 0.2 2.7 -0.2 1.7 -0.4 2.2 -1.3 2.2 -3.9 0 -1.9 0.5 -3.4 1 -3.4 0.6 0 1 0.5 1 1.1 0 0.8 0.4 0.8 1.3 0.2 3.5 -2.9 16.1 -1.8 29.2 2.5 3.3 1.1 6.3 1.8 6.7 1.6 0.3 -0.2 0.9 -1.8 1.3 -3.4 0.5 -2.1 1.2 -3 2.7 -3 1.2 0 1.8 0.5 1.5 1.3 -0.3 0.9 3.4 1.2 16.8 1.2 15.9 0 17.1 -0.1 16.7 -1.7 -0.4 -1.6 0.3 -1.8 5.6 -1.8 l6.1 0 3.8 -5.5 c3.5 -5 4.1 -5.5 7.6 -5.5 3.5 0 3.7 0.1 3.7 3.4 0 1.9 -0.9 4.5 -2.1 6 l-2 2.6 11.7 0 c11.3 0 11.6 0.1 10.1 1.8 -1 1 -1.7 2.2 -1.7 2.5 0 0.4 2.8 0.7 6.3 0.7 6.6 0 26.3 2.3 35.7 4.1 9.2 1.8 10.7 4.7 3.8 7.3 -19 7 -99.2 8.5 -365.8 6.9z"/>
  <path d="M377 312 c0 -1.6 0.7 -2 3.7 -2 3.5 0 3.6 0 1.8 2 -1 1.1 -2.6 2 -3.7 2 -1.1 0 -1.8 -0.7 -1.8 -2z"/>
  <path d="M448 272.1 c0 -1.4 0.5 -1.8 2 -1.4 2.4 0.6 2.6 1.9 0.4 2.7 -2.3 0.9 -2.4 0.8 -2.4 -1.3z"/>
  <path d="M468 251.2 c0 -1 2.2 -3.2 3.2 -3.2 0.4 0 0.8 0.9 0.8 2 0 1.3 -0.7 2 -2 2 -1.1 0 -2 -0.4 -2 -0.8z"/>
  <path d="M222 184.5 c0 -4.5 0 -4.5 3.5 -4.5 3.5 0 3.5 0 3.5 4.5 0 4.5 0 4.5 -3.5 4.5 -3.5 0 -3.5 0 -3.5 -4.5z"/>
  <path d="M224 173 c0 -3.9 0.1 -4 3.5 -4 3.4 0 3.5 0.1 3.5 4 0 3.9 -0.1 4 -3.5 4 -3.4 0 -3.5 -0.1 -3.5 -4z"/>
 </g>
 <g fill="#fdd8db">
  <path d="M366.8 328.3 c-3.3 -0.8 -2 -3.3 1.7 -3.3 2.8 0 3.5 0.4 3.5 2 0 2 -1.4 2.3 -5.2 1.3z"/>
  <path d="M173.6 326.5 c-2.3 -2.3 -2.1 -2.5 2.4 -2.5 2.9 0 4 0.4 4 1.5 0 0.8 -0.4 1.5 -0.9 1.5 -0.5 0 -1.6 0.3 -2.4 0.6 -0.8 0.3 -2.2 -0.2 -3.1 -1.1z"/>
  <path d="M477.8 325.3 c-3.3 -0.8 -2 -3.3 1.7 -3.3 2.8 0 3.5 0.4 3.5 2 0 2 -1.4 2.3 -5.2 1.3z"/>
  <path d="M353.7 318.9 c-0.4 -1.5 -0.2 -1.9 1 -1.5 0.8 0.3 1.7 0.6 1.9 0.6 0.2 0 0.4 0.7 0.4 1.5 0 2.3 -2.7 1.8 -3.3 -0.6z"/>
  <path d="M89 305.8 c0 -2 0.1 -2.1 2 -0.3 1.1 1 2 2 2 2.2 0 0.1 -0.9 0.3 -2 0.3 -1.4 0 -2 -0.7 -2 -2.2z"/>
  <path d="M93.1 305.4 c-2.7 -3.5 -2.6 -4.4 0.4 -4.4 2.2 0 2.5 0.4 2.5 3.5 0 1.9 -0.2 3.5 -0.4 3.5 -0.3 0 -1.4 -1.2 -2.5 -2.6z"/>
  <path d="M143 213 l0 -4 5 0 5 0 0 4 0 4 -5 0 -5 0 0 -4z"/>
  <path d="M143 198 c0 -8.2 -0.3 -10 -1.5 -10 -2.1 0 -7.5 -9.9 -7.5 -13.7 0 -3.3 0 -3.3 4.9 -3.3 4.5 0 5 0.3 5.9 2.8 l1 2.7 0.1 -2.7 c0.1 -2.6 0.4 -2.8 4.7 -2.8 l4.7 0 -0.7 6.1 c-0.4 3.3 -1.1 7.2 -1.7 8.6 -0.5 1.3 -0.9 6.9 -0.9 12.4 l0 9.9 -4.5 0 -4.5 0 0 -10z m4.3 -12.7 c0.3 -0.5 -0.6 -1.6 -1.9 -2.6 -2.4 -1.8 -2.9 -1.3 -1.8 1.7 0.6 1.7 2.9 2.2 3.7 0.9z"/>
  <path d="M224 193.6 c0 -1.9 -0.5 -3.6 -1 -3.8 -0.6 -0.2 -1.2 -3 -1.3 -6.3 l-0.2 -6 3.8 -0.3 3.7 -0.3 0 6.5 c0 3.7 0.4 6.6 1 6.6 0.6 0 1 1.6 1 3.5 0 3.3 -0.2 3.5 -3.5 3.5 -3.3 0 -3.5 -0.2 -3.5 -3.4z"/>
 </g>
 <g fill="#c7d2fe">
  <path d="M240.8 329.3 c-1 -0.2 -1.8 -0.9 -1.8 -1.4 0 -0.5 -0.9 -0.9 -2 -0.9 -1.5 0 -2 -0.7 -2 -2.5 0 -2.2 -0.4 -2.5 -3.5 -2.5 -2.3 0 -3.5 -0.5 -3.5 -1.4 0 -2.7 3.2 -2.7 6 -0.1 1.4 1.4 2.9 2.5 3.3 2.5 0.4 0 2.5 1.2 4.7 2.6 5 3.4 4.4 5.2 -1.2 3.7z"/>
  <path d="M304 328.6 c0 -1.5 5 -5.6 6.8 -5.6 0.6 0 1.9 -1.1 3 -2.5 2.7 -3.4 3.4 -3.1 3 1.2 -0.2 3 -0.8 3.8 -3.3 4.6 -1.6 0.6 -3.6 1.6 -4.3 2.4 -1.8 1.7 -5.2 1.7 -5.2 -0.1z"/>
  <path d="M427 327.4 c0 -1.8 1 -2.8 6.3 -6.8 l3.7 -2.8 0 3.1 c0 1.9 -0.6 3.4 -1.5 3.7 -0.8 0.4 -1.5 1.2 -1.5 1.9 0 0.7 -1 1.5 -2.2 1.9 -3.7 0.9 -4.8 0.7 -4.8 -1z"/>
  <path d="M368 326.5 c0 -1 -1 -1.5 -3.4 -1.5 -5.4 0 -6.6 -0.8 -6.6 -4.6 0 -1.9 0.4 -3.4 1 -3.4 1.5 0 15 9 15 10 0 0.6 -1.3 1 -3 1 -2 0 -3 -0.5 -3 -1.5z"/>
  <path d="M383 326.2 c0 -0.8 5.2 -4.2 6.4 -4.2 0.3 0 0.6 1.1 0.6 2.5 0 2.2 -0.4 2.5 -3.5 2.5 -1.9 0 -3.5 -0.4 -3.5 -0.8z"/>
  <path d="M184.3 325.3 c-1.6 -0.3 -2.3 -1.1 -2.3 -2.8 0 -2.6 0.7 -2.5 9.2 0.7 5.4 2 0.4 3.5 -6.9 2.1z"/>
  <path d="M401 321.5 c0 -4.2 2.4 -4.9 3.4 -1 0.8 3 0.1 4.5 -2 4.5 -0.9 0 -1.4 -1.1 -1.4 -3.5z"/>
  <path d="M222 322.3 c0 -3.4 1.2 -6.3 2.6 -6.3 1 0 1.4 1.3 1.4 4 0 3.3 -0.3 4 -2 4 -1.2 0 -2 -0.7 -2 -1.7z"/>
  <path d="M526.6 320.5 l0.6 -3.5 -4 0 c-3.1 0 -4.1 -0.4 -4.5 -2 -0.5 -1.8 0 -2 5.9 -2 l6.4 0 0 3.8 c0 2.5 -0.7 4.5 -1.8 5.5 -2.8 2.5 -3.4 2.1 -2.6 -1.8z"/>
  <path d="M440 318.5 c0 -3.9 1.4 -4.6 3 -1.6 1.6 3.1 1.2 5.1 -1 5.1 -1.6 0 -2 -0.7 -2 -3.5z"/>
  <path d="M462.7 319.9 c-2.1 -1.2 -1.3 -2.9 1.4 -2.9 1.2 0 1.9 0.7 1.9 2 0 2.2 -0.7 2.4 -3.3 0.9z"/>
  <path d="M322 317.5 c1 -1.2 1 -1.9 0.2 -2.7 -1.9 -1.9 -1.4 -2.8 1.8 -2.8 3.2 0 4.3 2.6 1.5 3.6 -0.8 0.4 -1.5 1.2 -1.5 2 0 0.8 -0.7 1.4 -1.6 1.4 -1.4 0 -1.4 -0.3 -0.4 -1.5z"/>
  <path d="M532 314.6 c0 -2 0.5 -3.6 1 -3.6 0.6 0 1 -0.7 1 -1.5 0 -0.8 0.8 -1.5 1.7 -1.5 1.3 0 1.1 -0.6 -1 -2.8 -1.5 -1.6 -2.7 -4 -2.7 -5.4 0 -1.4 -0.7 -3.1 -1.5 -3.8 -2.4 -2 -1.8 -7.2 1.7 -13.6 1.7 -3.2 3.5 -6.1 3.8 -6.4 0.4 -0.3 0.9 -1.4 1.2 -2.5 0.3 -1.1 0.9 -2.8 1.3 -3.7 0.5 -1.3 0.2 -1.8 -0.9 -1.8 -1.2 0 -1.6 -1 -1.6 -4 0 -2.2 0.4 -4 0.9 -4 0.5 0 2.1 2.5 3.5 5.7 3 6.3 3.2 6.3 8.3 -1.4 4.3 -6.5 17.5 -22.2 23.7 -28.3 4.4 -4.3 5.6 -5 5.6 -3.5 0 1.1 0.7 7.9 1.5 15 0.8 7.2 1.5 15.2 1.5 17.9 0 3.9 0.3 4.7 1.5 4.2 2.5 -0.9 2.1 10.7 -0.5 14.2 -1.9 2.6 -5 11.2 -5 14.1 0 0.8 0.6 1.1 1.5 0.7 2.3 -0.8 1.8 1.9 -1 6.5 -1.4 2.2 -5 5.5 -8 7.4 -2.9 1.9 -5.6 3.9 -6 4.5 -0.9 1.4 -26.2 1.3 -27 -0.1 -0.4 -0.6 0.6 -2.7 2.2 -4.7 3.8 -4.8 4.6 -6.2 3.6 -6.2 -0.4 0 -2.3 2.3 -4.2 5 -5 7.4 -6.1 8 -6.1 3.6z"/>
  <path d="M99.1 313 c-1.8 -1.9 -4.8 -6.1 -6.8 -9.2 -2 -3.2 -4 -5.5 -4.4 -5.2 -1.2 0.7 0.5 3.8 4.9 9.2 2.9 3.5 3.3 4.5 2.1 5.3 -2.1 1.3 -2.3 1.2 -5.7 -3.6 -1.7 -2.5 -3.8 -4.5 -4.5 -4.5 -1.9 0 -4.7 -3.3 -4.7 -5.4 0 -1.2 0.5 -1.6 1.5 -1.2 2.7 1 1.6 -1.6 -2 -4.8 -2.5 -2.2 -3.8 -4.2 -4.2 -6.9 -0.5 -3.2 -0.3 -3.6 1.1 -3.1 2 0.8 2 -0.5 0 -8.1 -1.6 -6.5 -6.4 -29.8 -6.4 -31.6 0 -1.2 10.1 4.1 19.2 10.1 6.3 4.2 8.8 4.9 8.8 2.5 0 -2.8 4.2 -1.2 9.5 3.6 1.1 1 3.9 3.5 6.3 5.5 3.8 3.3 4.2 4 4.2 8.4 0 4.5 -0.2 4.8 -6 9.3 -3.3 2.6 -6.3 4.7 -6.6 4.7 -1.1 0 -3 2.5 -3.6 4.8 -0.9 3.4 0.9 2.8 10.2 -3.3 6.8 -4.3 9.3 -5.5 12.6 -5.5 3.3 0 4.3 0.4 5.1 2.3 1 2.2 2.7 9.6 3.8 17 0.5 3.1 1 3.7 3.1 3.7 2.4 0 2.4 0.1 0.8 2.5 -1.6 2.4 -2.1 2.5 -11.9 2.5 -15 0 -22.3 0.9 -22.7 2.9 -0.3 1.2 -1.1 0.8 -3.7 -1.9z m-2.3 -13.5 c-0.3 -1.2 -0.6 -1.2 -2.2 0 -1.6 1.2 -1.7 1.7 -0.6 3 1.2 1.5 1.4 1.5 2.2 0 0.5 -0.8 0.8 -2.2 0.6 -3z"/>
  <path d="M350 313 c0 -1.3 0.7 -2 2 -2 1.3 0 2 0.7 2 2 0 1.3 -0.7 2 -2 2 -1.3 0 -2 -0.7 -2 -2z"/>
  <path d="M262.3 313.3 l-6.1 -0.4 -1.6 -7.1 c-1.6 -6.9 -2.2 -27 -1 -30.2 0.3 -0.9 2.1 -2.5 4 -3.6 3.5 -2.2 5.6 -1.8 8.3 1.4 0.8 1 2.3 1.3 4.4 1 1.8 -0.3 4.3 -0.1 5.7 0.4 2.4 0.9 2.4 0.9 -1.4 2.2 -4.4 1.4 -4.4 1.4 1.8 10.5 4.5 6.5 4.6 6.9 4.9 15 0.1 4.6 -0.2 8.8 -0.8 9.3 -1.3 1.2 -10.3 2 -18.2 1.5z"/>
  <path d="M358.1 301 c-0.6 -6.9 -1.1 -13.5 -1.1 -14.7 0 -2.7 2.7 -3.1 3.2 -0.5 0.3 0.9 1.4 -1.6 2.7 -5.6 2.1 -7 12.4 -30.9 14 -32.5 1.2 -1.2 2.6 1.1 6.1 10.3 5.4 14.4 7.1 21.1 7.2 29.5 0.2 10.3 -2 17.8 -6.6 22.8 l-3.5 3.8 -10.4 -0.3 -10.4 -0.3 -1.2 -12.5z"/>
  <path d="M468 307.4 l-2.5 -1.3 3.3 -0.1 c1.7 0 3.2 0.4 3.2 0.9 0 1.8 -1.5 1.9 -4 0.5z"/>
  <path d="M463 302.1 c0 -0.9 4.1 -3.3 4.7 -2.7 0.3 0.2 0.2 0.9 -0.1 1.4 -0.7 1.2 -4.6 2.3 -4.6 1.3z"/>
  <path d="M173.7 296.3 c-1.1 -1 -0.8 -8.3 0.3 -8.3 0.6 0 1 0.5 1 1 0 0.6 0.7 1 1.5 1 0.8 0 2.9 1.4 4.7 3.1 l3.3 3 -4.2 -0.6 c-2.8 -0.5 -4.3 -0.3 -4.3 0.4 0 1.2 -1.3 1.5 -2.3 0.4z"/>
  <path d="M448.8 294.7 c-1.4 -0.7 -3.6 -2.1 -4.7 -3.1 -1.9 -1.7 -2.1 -1.7 -2.7 -0.2 -1.2 3.1 -2.4 1.6 -2.4 -2.9 0 -2.5 0.5 -4.5 1 -4.5 0.6 0 1 0.5 1 1.1 0 0.6 0.7 0.8 1.6 0.5 2.2 -0.8 6.9 1.8 9.3 5.3 3.5 4.9 2.5 6.2 -3.1 3.8z"/>
  <path d="M290 286.1 c0 -1.3 5.9 -6.1 7.6 -6.1 0.8 0 1.4 0.9 1.4 2.1 0 1.3 -1.1 2.5 -3.5 3.5 -4 1.6 -5.5 1.8 -5.5 0.5z"/>
  <path d="M463 286.1 c0 -1.8 7.7 -6.3 10.1 -5.9 5.7 0.8 1.7 5.1 -5.8 6.3 -2.8 0.4 -4.3 0.3 -4.3 -0.4z"/>
  <path d="M191.1 283.8 c1.9 -3.7 4.1 -5.8 6.1 -5.8 3.4 0 2.1 3.8 -2.2 6 -5 2.5 -5.3 2.5 -3.9 -0.2z"/>
  <path d="M442.7 273.3 c-1.2 -1.1 -0.8 -3.3 0.7 -3.9 0.7 -0.3 3.1 0.2 5.2 1.1 3 1.3 3.6 1.8 2.4 2.5 -1.7 1.1 -7.3 1.3 -8.3 0.3z"/>
  <path d="M293 270.3 c0.1 -1.4 2.7 -4.3 3.9 -4.3 1.9 0 1.2 1.7 -1.4 3.4 -1.4 0.9 -2.5 1.3 -2.5 0.9z"/>
  <path d="M191 268.4 c0 -1.7 2.8 -4.9 3.6 -4.1 0.4 0.4 -0.2 1.7 -1.4 3 -1.2 1.2 -2.2 1.7 -2.2 1.1z"/>
  <path d="M468.9 267.2 c1.8 -3.3 5.1 -5.6 6.3 -4.4 1.5 1.5 -0.3 3.7 -4.3 5.1 -2.6 0.9 -2.8 0.8 -2 -0.7z"/>
  <path d="M445.6 264.5 c-1.7 -1.7 -2.1 -3.5 -0.8 -3.5 0.9 0 3.5 4 2.9 4.6 -0.3 0.3 -1.2 -0.2 -2.1 -1.1z"/>
  <path d="M174.8 261 c-2 -1.1 -4.2 -2.8 -4.7 -3.7 -1 -1.7 -1 -1.7 -1.1 0 0 0.9 -0.7 1.7 -1.5 1.7 -1.1 0 -1.5 -1.1 -1.5 -4 0 -2.2 0.5 -4 1 -4 0.6 0 1 0.5 1 1 0 0.6 0.7 1 1.6 1 2.6 0 7 3.1 8.8 6 2.7 4.7 2.1 5 -3.6 2z"/>
  <path d="M281.5 261.8 c-3.8 -2 -7.5 -6.2 -7.5 -8.5 0 -1.3 0.6 -2.3 1.4 -2.3 2.6 0 9.9 10 8.4 11.5 -0.2 0.2 -1.2 -0.1 -2.3 -0.7z"/>
  <path d="M454.1 255.4 c-2.3 -2.1 -4.7 -4.7 -5.2 -6 -1 -2.7 -0.2 -5.4 1.5 -5.4 1.9 0 6.2 5.1 8 9.4 2.8 6.9 1.9 7.3 -4.3 2z"/>
  <path d="M292 255.2 c0 -1.7 6.7 -7.2 8.8 -7.2 1.7 0 2.2 0.6 2.2 2.5 0 1.9 -0.8 2.8 -3.6 4 -4 1.6 -7.4 2 -7.4 0.7z"/>
  <path d="M187 254.4 c0 -1.4 4.2 -7.4 5.8 -8.3 1 -0.6 2.3 -0.6 3.4 0 1.4 0.8 1.5 1.4 0.7 3.3 -0.6 1.3 -2.1 2.9 -3.3 3.4 -3.2 1.6 -6.6 2.4 -6.6 1.6z"/>
  <path d="M468.6 251.2 c-0.3 -0.5 1.2 -2.6 3.5 -4.6 3.2 -2.9 4.7 -3.7 7.2 -3.4 6.8 0.6 2 7.4 -6 8.5 -2.3 0.3 -4.3 0.1 -4.7 -0.5z"/>
  <path d="M180.6 245.8 c-4.4 -6.7 -5.2 -12.9 -2.3 -16.5 1.4 -1.9 2.5 -1.6 5.2 1.2 3 2.9 3.4 9.8 1 14.5 -1.9 3.6 -2 3.6 -3.9 0.8z"/>
  <path d="M286.4 244.5 c-0.7 -1.9 -1.4 -5.9 -1.4 -9 0 -4.9 0.3 -5.7 2.5 -6.7 3.7 -1.6 6.5 1.2 6.5 6.5 0 4.2 -3.4 12.7 -5.1 12.7 -0.6 0 -1.7 -1.6 -2.5 -3.5z"/>
  <path d="M463.8 239.8 c-1.7 -3.2 -1.7 -16.1 0.1 -18.1 1.8 -2.2 5.4 -2.1 7.4 0.1 1.9 2.1 2.2 8.6 0.6 12.9 -1.1 3 -4.7 7.3 -6 7.3 -0.5 0 -1.4 -1 -2.1 -2.2z"/>
  <path d="M405 227.9 c0 -1.8 -0.4 -2 -3.2 -1.3 -1.8 0.4 -6.2 0.7 -9.7 0.6 -3.5 -0.1 -7 0.3 -7.8 0.9 -1 0.9 -1.3 0.8 -1.3 -0.5 0 -1.1 -0.9 -1.6 -2.6 -1.6 -1.4 0 -2.3 -0.4 -1.9 -0.9 0.3 -0.5 -0.9 -1.9 -2.7 -3.2 -9 -6.1 -14.7 -16.9 -15 -28.3 0 -2.4 1 -7.4 2.2 -11.1 2.7 -8.1 7.7 -14 15.9 -18.7 5.2 -3.1 6.2 -3.3 15.1 -3.3 10.2 0 14.3 1.4 23 8 1.9 1.4 3.6 2.1 3.8 1.5 0.2 -0.5 1.2 -1 2.3 -1 1.5 0 1.9 0.7 1.9 3.5 0 2.9 0.4 3.5 2.1 3.5 1.9 0 2.1 0.5 1.7 4 -0.2 2.6 0.1 4 0.8 4 0.7 0 1.5 0.7 1.8 1.6 1 2.5 0.7 8.4 -0.4 8.4 -0.5 0 -1 1.1 -1 2.5 0 1.4 -0.5 2.5 -1 2.5 -0.6 0 -0.8 2 -0.4 5.5 0.5 3.8 0.3 5.5 -0.5 5.5 -0.6 0 -1.1 1.1 -1.1 2.5 0 2 -0.5 2.5 -2.5 2.5 -2.5 0 -6.5 3.1 -6.5 5.1 0 1.4 -2.5 3.9 -3.9 3.9 -0.6 0 -1.1 0.9 -1.1 2 0 1.3 -0.7 2 -2 2 -1.1 0 -2 0.5 -2 1 0 0.6 -0.9 1 -2 1 -1.4 0 -2 -0.7 -2 -2.1z m-2 -34.1 l2.1 -3.8 -2.6 -2.6 c-2.5 -2.5 -2.7 -2.5 -5.2 -0.9 -1.9 1.3 -3.7 1.6 -6.8 1.2 -3.4 -0.5 -4.6 -0.2 -6 1.3 -2.6 2.8 -1.5 5 5 10.2 l6 4.9 2.7 -3.3 c1.5 -1.8 3.6 -5 4.8 -7z"/>
  <path d="M258.5 216.3 c-7.7 -0.7 -14.3 -2.9 -19.1 -6.4 -2.8 -2.1 -6.4 -3.9 -8 -4.1 -2.2 -0.2 -3.1 -1 -3.9 -3.3 -0.5 -1.6 -1.2 -3.2 -1.6 -3.5 -4.9 -4.1 -3 -34 2.2 -34 1 0 2.3 -0.8 2.8 -1.7 0.8 -1.3 1.3 -1.5 1.9 -0.6 0.5 0.9 1.6 0.2 3.5 -2.2 1.4 -1.8 5.2 -4.6 8.3 -6.1 7.6 -3.7 20.4 -4.1 27.5 -0.8 5 2.3 14.9 11.6 14.9 14 0 0.9 0.7 2.3 1.6 3.1 0.8 0.9 1.3 2.4 1.1 3.4 -0.3 1.1 0 2.2 0.5 2.6 0.7 0.4 0.8 0.1 0.3 -0.8 -0.5 -0.8 -0.4 -1.1 0.1 -0.6 2.2 2 -1.2 23.7 -3.6 23.7 -0.6 0 -1 0.6 -1 1.4 0 3 -14.1 13.6 -18.2 13.6 -0.7 0 -2.4 0.6 -3.8 1.3 -1.4 0.6 -3.8 1.1 -5.5 1z m-32.5 -32.9 c0 -1.9 -0.4 -3.3 -0.8 -3 -0.8 0.5 -0.4 6.6 0.4 6.6 0.2 0 0.4 -1.6 0.4 -3.6z"/>
  <path d="M164.8 156.3 c-1.6 -0.4 -1.8 -2.1 -1.8 -17.9 0 -17 -0.1 -17.5 -2.2 -18.3 -2.7 -1 -3.3 -5.1 -0.6 -5.1 1 0 1.8 0.5 1.8 1 0 0.6 4.3 1 11 1 8 0 11.2 0.4 11.5 1.3 0.2 0.6 0.5 9.5 0.7 19.7 l0.4 18.5 -9.6 0.1 c-5.2 0.1 -10.3 0 -11.2 -0.3z"/>
  <path d="M187.2 137.3 l0.3 -19.8 11.5 -0.3 c12.2 -0.2 16 0.7 12.8 3.2 -1.6 1.2 -1.8 3.2 -1.8 16.7 0 16.6 -0.5 19.9 -2.6 19.9 -1 0 -1.4 -1.6 -1.4 -6.1 l0 -6 -5 6 c-4.8 5.8 -5.3 6.1 -9.6 6.1 l-4.4 0 0.2 -19.7z"/>
  <path d="M438.8 144.2 c-2.7 -0.5 -2.5 -6.2 0.2 -6.2 1.1 0 2 0.5 2 1 0 0.6 0.7 1 1.5 1 0.8 0 1.5 0.8 1.5 1.9 0 2 -2.3 3 -5.2 2.3z"/>
  <path d="M448.6 130.6 c-5.6 -6.3 -5.6 -6.4 -5.6 -12.8 0 -9.4 1.4 -10.4 15.3 -11.2 l10.9 -0.6 2.9 2.9 c2.5 2.6 2.9 3.7 2.9 8.9 0 4.9 -0.5 6.6 -2.9 9.8 -4.8 6.7 -8.7 9.4 -13.6 9.4 -4.1 0 -4.7 -0.4 -9.9 -6.4z"/>
  <path d="M324.8 117 l-2.8 -3.5 2.6 -0.3 c3.3 -0.4 3.6 -0.1 3.2 3.9 l-0.3 3.4 -2.7 -3.5z"/>
  <path d="M313.5 104.9 c-7 -7.4 -7 -7.4 -4.1 -7.7 2.3 -0.3 3.8 0.5 7.3 4.1 3.8 3.7 4.4 4.9 4.1 7.7 l-0.3 3.3 -7 -7.4z"/>
  <path d="M300.6 91 l-2.9 -3.5 2.7 -0.3 c3.5 -0.4 3.8 -0.1 3.4 3.9 l-0.3 3.3 -2.9 -3.4z"/>
  <path d="M295.7 60.3 c0.9 -2.5 4 -6.4 6.3 -8 1.9 -1.3 2 -1.2 2 1.7 0 2.3 -0.5 3.3 -2 3.7 -1.1 0.3 -2 1.4 -2 2.4 0 1.4 -0.7 1.9 -2.5 1.9 -1.9 0 -2.3 -0.4 -1.8 -1.7z"/>
  <path d="M306.2 50.8 c0.3 -0.7 1.9 -1.8 3.6 -2.5 3.1 -1.3 3.2 -1.2 3.2 1.2 0 2.2 -0.4 2.5 -3.6 2.5 -2.3 0 -3.4 -0.4 -3.2 -1.2z"/>
 </g>
 <g fill="#fdbbc6">
  <path d="M176 321.1 c0 -0.5 -0.9 -0.7 -2 -0.4 -1.4 0.4 -2 0 -2 -1.2 0 -0.9 -0.9 -1.9 -2 -2.2 -3.5 -0.9 -2.4 -3.3 1.5 -3.3 1.9 0 3.5 -0.4 3.5 -1 0 -0.5 0.9 -1 2 -1 1.6 0 2 0.7 2 3 0 1.9 0.7 3.4 2 4.2 2.9 1.9 2.4 2.8 -1.5 2.8 -1.9 0 -3.5 -0.4 -3.5 -0.9z"/>
  <path d="M526 304.5 c0 -3.1 0.3 -3.5 2.5 -3.5 2.1 0 2.5 -0.5 2.5 -3 0 -2.3 0.4 -3 2 -3 1.4 0 2 0.7 2 2.2 0 1.2 1 3.2 2.2 4.5 l2.1 2.3 -3.1 0 c-2.5 0 -3.2 0.4 -3.2 2 0 1.6 -0.7 2 -3.5 2 -3.3 0 -3.5 -0.2 -3.5 -3.5z"/>
  <path d="M97 299.5 c0 -1.8 -0.5 -2.5 -2 -2.5 -2.8 0 -2.5 -1.3 1 -3.8 1.7 -1.3 3 -2.9 3 -3.7 0 -0.8 0.7 -1.5 1.5 -1.5 1 0 1.5 1 1.5 3 0 2.3 0.4 3 2 3 1.5 0 2 0.7 2 2.5 0 2.2 -0.3 2.5 -2.6 1.9 -2 -0.5 -2.6 -0.2 -3.1 1.5 -0.8 3 -3.3 2.7 -3.3 -0.4z"/>
  <path d="M132.8 214.8 c-0.2 -1.7 -1.2 -2.4 -4.3 -3 -6 -1.2 -11.4 -3.9 -12 -5.9 -1 -3.2 7.3 -22.8 10.9 -25.8 0.9 -0.8 1.6 -2.2 1.6 -3.2 0 -2.1 3.6 -4.9 6.2 -4.9 1 0 1.8 -0.4 1.8 -1 0 -0.5 1.5 -1 3.3 -1 2.5 0 3.7 0.6 4.5 2.3 l1.1 2.2 0 -2.2 c0.1 -1.8 0.7 -2.3 2.9 -2.3 5 0 7.2 1.1 7.2 3.5 0 1.8 0.8 2.6 3.4 3.5 3.3 1.1 9.6 6.9 13.1 12.3 0.9 1.5 2.1 2.7 2.6 2.7 0.9 0 10.3 -7 14.8 -11 2.6 -2.4 2.6 -2.4 3.5 0.7 0.5 1.6 0.2 2.6 -1.3 3.5 -1.2 0.7 -2.1 1.8 -2.1 2.5 0 0.7 -2.7 4.4 -6 8.3 -7.8 9 -11 9.3 -18.8 1.4 -5.2 -5.4 -5.6 -4.8 -4.9 8.1 l0.6 11.5 -13.9 0 c-13.5 0 -13.9 -0.1 -14.2 -2.2z m17.2 -1.8 c0 -0.5 -0.9 -1 -2 -1 -1.1 0 -2 0.5 -2 1 0 0.6 0.9 1 2 1 1.1 0 2 -0.4 2 -1z m-1.2 -12.2 c-0.2 -2.4 -0.7 -4.3 -1.3 -4.3 -0.5 0 -1.1 1.9 -1.3 4.3 -0.3 3.3 0 4.2 1.3 4.2 1.3 0 1.6 -0.9 1.3 -4.2z m-14.8 -1.1 c0 -2.4 -0.6 -5.2 -1.4 -6.3 -1.4 -1.8 -1.6 -1.6 -3.6 2.9 -2.4 5.4 -1.6 7.7 2.6 7.7 2.2 0 2.4 -0.4 2.4 -4.3z m14.5 -8.5 c0 -4.6 -1.9 -4.4 -2.3 0.2 -0.3 2.8 0 3.7 1 3.4 0.7 -0.3 1.3 -1.9 1.3 -3.6z m1 -6.9 c1.6 -4.4 2.2 -10.3 1 -10.3 -0.7 0 -1.5 1.9 -1.8 4.5 -0.2 2.6 -0.7 4.9 -1.1 5.2 -1 1.1 -4.5 -2.8 -5.6 -6.3 -0.8 -2.3 -1.8 -3.4 -3.1 -3.4 -1.9 0 -1.9 0.1 -0.3 3.3 3.1 6.1 5.5 8.7 7.9 8.7 1.3 0 2.6 -0.8 3 -1.7z"/>
  <path d="M421 212.3 c0 -1.5 0.5 -4.2 1.2 -6 1 -2.8 1.7 -3.3 4.5 -3.3 3 0 3.3 0.3 3.3 2.9 0 1.5 -0.5 4.2 -1.1 6 -0.9 2.7 -1.6 3.1 -4.5 3.1 -3 0 -3.4 -0.3 -3.4 -2.7z"/>
  <path d="M425 187.5 c0 -3.3 0.2 -3.5 3.5 -3.5 3.3 0 3.5 0.2 3.5 3.5 0 2.4 -0.5 3.5 -1.5 3.5 -0.8 0 -1.5 -0.5 -1.5 -1 0 -0.7 -0.6 -0.7 -2 0 -1.8 1 -2 0.8 -2 -2.5z"/>
  <path d="M142 164.5 c0 -3.3 0.2 -3.5 3.5 -3.5 3.3 0 3.5 0.2 3.5 3.5 0 3.3 -0.2 3.5 -3.5 3.5 -3.3 0 -3.5 -0.2 -3.5 -3.5z"/>
  <path d="M504.6 157.4 c-1.5 -3.9 -0.7 -5.4 2.9 -5.4 3.3 0 3.5 0.2 3.5 3.5 0 3.2 -0.3 3.5 -2.9 3.5 -1.7 0 -3.1 -0.6 -3.5 -1.6z"/>
 </g>
 <g fill="#b7c7fb">
  <path d="M304.7 329.4 c-0.9 -1 1.2 -3.4 3 -3.4 1.9 0 1.2 3.4 -0.8 3.8 -0.8 0.1 -1.8 0 -2.2 -0.4z"/>
  <path d="M426 327 c0 -1.6 0.7 -2 3.5 -2 4 0 4.9 2.4 1.3 3.4 -3.8 1 -4.8 0.7 -4.8 -1.4z"/>
  <path d="M383.4 326.9 c-0.3 -0.6 0 -1.5 0.7 -2 2.2 -1.4 5.9 -1.1 5.9 0.5 0 2.4 -5.3 3.6 -6.6 1.5z"/>
  <path d="M231 323 c0 -4.6 0.5 -4.8 4.3 -1.5 3.8 3.4 3.6 5.5 -0.8 5.5 -3.4 0 -3.5 -0.1 -3.5 -4z"/>
  <path d="M222.6 320 c0.4 -3.2 0.3 -5 -0.4 -5 -0.5 0 -0.8 -0.9 -0.5 -2 1 -3.9 3 -2.1 3.7 3.3 0.9 8 0.8 8.7 -1.4 8.7 -1.9 0 -2 -0.4 -1.4 -5z"/>
  <path d="M401 322 c0 -3.3 2.4 -4.2 3.2 -1.2 0.7 2.4 -0.1 4.2 -1.8 4.2 -0.9 0 -1.4 -1.1 -1.4 -3z"/>
  <path d="M311.8 323.3 c0.7 -0.3 1.9 -1.8 2.7 -3.4 2.1 -3.9 3.5 -3.7 3.5 0.6 0 3.4 -0.1 3.5 -3.7 3.4 -2.1 0 -3.2 -0.3 -2.5 -0.6z"/>
  <path d="M359 320.5 c0 -4.1 0.2 -4.2 4.1 -1.4 4 2.8 3.8 4.9 -0.6 4.9 -3.3 0 -3.5 -0.2 -3.5 -3.5z"/>
  <path d="M390 322.3 c0 -0.5 1.6 -1.8 3.5 -3.1 l3.5 -2.2 0 3 c0 2.8 -0.3 3 -3.5 3 -1.9 0 -3.5 -0.3 -3.5 -0.7z"/>
  <path d="M527.6 317.5 c0.5 -1.2 -0.3 -1.5 -3.9 -1.5 -4.3 0 -4.6 -0.2 -5.7 -3.4 -0.6 -1.9 -1 -6.8 -0.9 -11 0.2 -8.9 1 -9.4 7.3 -4.2 2.3 1.8 5 3.5 6.1 3.7 1.7 0.4 2 1.4 2.3 6.9 0.2 3.7 -0.2 7.4 -0.9 8.7 -1.4 2.6 -5.2 3.3 -4.3 0.8z"/>
  <path d="M168 315 c0 -1.3 0.7 -2 2 -2 1.3 0 2 0.7 2 2 0 1.3 -0.7 2 -2 2 -1.3 0 -2 -0.7 -2 -2z"/>
  <path d="M546 316.5 c0 -0.5 1.4 -5.1 3.2 -10.1 l3.1 -9.1 -2.8 -3.9 c-2.7 -3.7 -2.8 -3.8 -0.4 -1.6 3.1 2.7 4.6 2.8 5.4 0.1 0.4 -1.1 0.9 -1.9 1.1 -1.6 0.2 0.2 -1.8 6.4 -4.5 13.8 -2.7 7.4 -5 13 -5.1 12.4z"/>
  <path d="M100.2 314 c-1.2 -1.3 -2.2 -3.6 -2.2 -5.2 0 -1.5 -0.4 -2.8 -1 -2.8 -0.5 0 -1 -1.8 -1 -4 0 -3.4 0.3 -4 2.1 -4 1.9 0 2.1 0.5 1.7 4 -0.2 2.2 0 4 0.3 4 1.1 0 3.1 6.7 2.7 8.7 -0.3 1.5 -0.6 1.4 -2.6 -0.7z"/>
  <path d="M200.7 312.6 c-0.4 -1 -0.5 -2.1 -0.2 -2.4 0.9 -0.9 1.7 0.6 1.3 2.5 -0.3 1.7 -0.4 1.7 -1.1 -0.1z"/>
  <path d="M358.1 305.8 c-0.6 -4.6 -1.3 -12 -1.7 -16.5 -0.5 -7.1 -0.4 -8.3 0.9 -8.3 1.8 0 2.4 2.3 3.7 15.3 0.6 5.4 1.3 11 1.6 12.3 0.6 2.3 -0.9 5.4 -2.6 5.4 -0.4 0 -1.3 -3.7 -1.9 -8.2z"/>
  <path d="M568 312.1 c0 -0.6 0.4 -1.2 0.9 -1.6 0.6 -0.3 2.4 -3 4 -5.9 3.2 -5.6 7.1 -8.1 7.1 -4.5 0 2.9 -3.4 7.8 -7.3 10.5 -3.9 2.6 -4.7 2.9 -4.7 1.5z"/>
  <path d="M113.6 311.3 c-1.1 -1.1 -0.6 -2.3 0.9 -2.3 0.8 0 1.5 0.4 1.5 0.9 0 1.3 -1.6 2.2 -2.4 1.4z"/>
  <path d="M130.1 305.9 c-0.1 -5.1 -1.3 -11.1 -3.3 -16.2 -0.8 -2.1 -1.6 -2.7 -3 -2.4 -1.3 0.4 -1.8 0 -1.8 -1.7 0 -1.7 1.5 -3.3 5.7 -6 6.1 -3.8 10.7 -4.8 9.7 -2.1 -0.4 0.8 0 2.3 0.7 3.2 1 1.2 1.4 5 1.4 13.8 0 13.7 -1.1 16.5 -6.5 16.5 -2.6 0 -2.7 -0.2 -2.9 -5.1z"/>
  <path d="M81.8 303.9 c-1.8 -1 -2.6 -5.9 -1 -5.9 1.5 0 4 2.5 4.7 4.8 0.7 2.4 -0.7 2.9 -3.7 1.1z"/>
  <path d="M107.3 302.6 c-1.3 -0.8 -1.9 -1.7 -1.4 -2.5 0.8 -1.2 1.7 -0.6 3.5 2.7 0.8 1.4 0.8 1.4 -2.1 -0.2z"/>
  <path d="M90 299.2 c0 -0.9 0.9 -2.3 2 -3 1.8 -1.1 2 -1 2 1.8 0 2.3 -0.4 3 -2 3 -1.2 0 -2 -0.7 -2 -1.8z"/>
  <path d="M103.2 297.8 c-2 -2 -1.4 -2.8 2.3 -2.8 3.9 0 4.3 0.6 1.8 2.6 -2.2 1.7 -2.6 1.7 -4.1 0.2z"/>
  <path d="M78.4 293.2 c-2.8 -2.4 -4.4 -5.5 -4.4 -8.7 0 -2.5 0.1 -2.6 2.2 -1 2.1 1.4 6.5 11.5 5 11.5 -0.4 -0.1 -1.6 -0.9 -2.8 -1.8z"/>
  <path d="M522.8 287 c-4.1 -4.8 -5.8 -7.7 -5.8 -9.7 0 -2 0.3 -2.4 0.9 -1.4 0.9 1.4 3.1 0.7 3.1 -1.1 0 -1.3 6.5 -18.6 8.7 -23.3 0.9 -2 2.2 -3.4 2.7 -3.2 0.6 0.2 2.5 3.9 4.2 8.3 1.7 4.3 3.6 9.1 4.4 10.6 1.1 2.3 1.1 3.5 0 6.7 -0.7 2.1 -0.9 4.4 -0.6 5 0.4 0.6 0.2 0.9 -0.6 0.6 -1.9 -0.7 -8.1 11.5 -6.6 13.2 0.8 1 0.4 1.3 -1.8 1.2 -2.3 0 -4.1 -1.5 -8.6 -6.9z"/>
  <path d="M374 286.7 l0.5 -6.2 0.3 5.4 c0.2 3 0 5.8 -0.5 6.2 -0.4 0.4 -0.6 -2 -0.3 -5.4z"/>
  <path d="M99 289.4 c0 -1.5 2.3 -4.4 3.4 -4.4 1.7 0 12.6 -9.6 12.6 -11 0 -2.1 -7.7 -9.3 -9 -8.5 -0.6 0.4 -1 -0.1 -1 -0.9 0 -0.9 -1.6 -2.6 -3.6 -3.8 l-3.5 -2.3 0.6 -15 c0.4 -8.2 0.9 -15.2 1 -15.4 0.7 -0.7 2.9 1.4 13.1 12.7 5.8 6.5 12.2 14.4 14.2 17.6 2.4 3.9 3.8 5.4 4 4.3 0.5 -2.5 2.2 -1 2.2 1.8 0 1.7 -1.6 3.7 -5.7 7 -3.2 2.5 -6.6 5.3 -7.6 6.1 -0.9 0.8 -2.4 1.4 -3.2 1.4 -0.8 0 -1.5 0.7 -1.5 1.5 0 0.8 -0.9 1.5 -2 1.5 -1.1 0 -2 0.7 -2 1.5 0 0.9 -0.9 1.5 -2.5 1.5 -1.8 0 -2.5 0.5 -2.5 2 0 1.1 -0.7 2 -1.5 2 -0.8 0 -1.5 0.5 -1.5 1 0 0.6 -0.9 1 -2 1 -1.2 0 -2 -0.7 -2 -1.6z"/>
  <path d="M94.6 281.4 c-2.7 -4.2 -3 -4.4 -7.9 -4.6 -4.1 -0.1 -4.5 -0.2 -1.7 -0.5 1.9 -0.3 4 -0.9 4.7 -1.4 0.8 -0.7 2.2 0.6 4.8 4.6 2 3.2 3.5 5.9 3.3 6.1 -0.2 0.1 -1.6 -1.7 -3.2 -4.2z"/>
  <path d="M580.5 279.8 c0.7 -5.9 0.1 -6.9 -2.5 -4.5 -0.7 0.6 -0.3 -0.2 1.1 -1.9 1.3 -1.7 3.2 -3.7 4.2 -4.3 1.8 -1.2 1.8 -0.9 1.2 5.6 -0.5 4.7 -1.3 7.4 -2.7 8.8 -1.9 2 -2 2 -1.3 -3.7z"/>
  <path d="M558 282.5 c0 -0.8 0.9 -1.5 2 -1.5 1.1 0 2 0.2 2 0.5 0 0.2 -0.9 0.9 -2 1.5 -1.6 0.9 -2 0.8 -2 -0.5z"/>
  <path d="M560 277.9 c0 -0.2 0.7 -2.5 1.4 -5 1.4 -4.5 1.3 -4.8 -0.7 -6.7 -2.2 -2.1 -6.2 -8.2 -5.4 -8.2 0.2 0 1.7 1.8 3.2 4 3.1 4.5 5.1 5.1 6.5 1.8 2.1 -5.4 0.8 0.6 -1.6 6.8 -2.3 6.1 -3.4 8.6 -3.4 7.3z"/>
  <path d="M88.3 271.8 c-1.5 -1.8 -3.5 -5.8 -2.9 -5.8 0.2 0 1.3 1.6 2.5 3.5 2 3.5 2.2 4.6 0.4 2.3z"/>
  <path d="M79.2 258 c-3.3 -5.5 -3.3 -5.5 -0.4 -2.1 2.7 3.2 3 3.3 4 1.5 1.3 -2.2 1.4 -0.5 0.3 3.6 -0.6 2.3 -0.9 2.1 -3.9 -3z"/>
  <path d="M566.1 260.8 c-0.1 -0.3 1.1 -3.9 2.5 -8 1.4 -4 3.5 -10 4.6 -13.3 2 -5.7 4.8 -10.3 4.8 -7.8 0 0.7 -0.4 1.5 -1 1.8 -0.5 0.3 -2.3 4.7 -3.9 9.8 -2.7 8.6 -6.9 19 -7 17.5z"/>
  <path d="M72.2 248 c-1.2 -1.6 -2.2 -3.5 -2.2 -4.2 0 -0.7 1.2 0.5 2.6 2.5 3.1 4.6 2.7 6 -0.4 1.7z"/>
  <path d="M381 227.7 c-1.4 -0.7 -2.5 -1.7 -2.6 -2.2 -0.2 -2 -1.6 -4.5 -2.4 -4 -1.1 0.7 -8.8 -7.1 -10.9 -11.2 -1.6 -3.2 0.5 -4 2.9 -1.1 1.1 1.3 1.9 2.6 2 3 0 1.3 6.9 7.6 9 8.3 1.1 0.3 2 1 2 1.4 0 0.3 0.8 0.7 1.8 0.8 0.9 0.1 3.1 0.4 4.7 0.8 4.4 0.8 9.9 0.8 12.2 0.1 2.1 -0.7 4.1 1.8 2.3 2.9 -0.5 0.3 -1.1 -0.3 -1.3 -1.2 -0.4 -1.7 -0.5 -1.7 -0.6 0 -0.1 1.6 -1.9 2.2 -6.6 1.8 -1.1 -0.1 -3 -0.2 -4.2 -0.2 -1.3 -0.1 -2.3 -0.6 -2.3 -1.1 0 -0.6 -0.8 -0.1 -1.7 1.1 -1.6 1.8 -2.1 1.9 -4.3 0.8z"/>
  <path d="M405.5 227 c0.4 -1.4 0.2 -2 -0.6 -1.8 -0.7 0.2 -1.4 -0.4 -1.6 -1.2 -0.5 -2 3.3 -2.4 4.1 -0.4 0.3 0.8 1.1 1.4 1.8 1.4 0.9 0 0.9 -0.3 0 -1.2 -2.1 -2.1 -1.4 -4.1 1.2 -3.6 1.9 0.4 2.3 0.1 1.8 -1 -0.4 -1.1 -0.1 -1.4 1.2 -0.9 0.9 0.4 1.5 0.3 1.2 -0.2 -0.3 -0.4 0.8 -2.3 2.4 -4.1 3.3 -3.7 8 -13.1 8 -16 0 -1.1 0.6 -2 1.3 -2 0.9 0 0.9 -0.2 0 -0.8 -0.6 -0.4 -1.4 -3 -1.6 -5.7 -0.3 -2.8 -0.6 -5.2 -0.7 -5.5 -0.1 -0.3 -0.2 -0.8 -0.1 -1.2 0 -0.5 -0.4 -0.8 -1 -0.8 -0.5 0 -0.7 -0.4 -0.4 -1 0.3 -0.5 0.1 -1 -0.5 -1 -0.7 0 -1 -0.5 -0.8 -1.2 0.2 -0.6 -0.6 -2.2 -1.9 -3.6 -1.2 -1.3 -2 -2.8 -1.8 -3.2 0.3 -0.4 -0.5 -1 -1.8 -1.4 -1.2 -0.3 -3.8 -2 -5.7 -3.8 -3.6 -3.4 -4 -3.5 -15.2 -3.8 -3.4 -0.1 -5.8 -0.7 -5.8 -1.3 0 -0.6 -0.6 -0.3 -1.2 0.6 -1.2 1.6 -4.3 2.8 -8 3 -1 0.1 -1.8 0.8 -1.8 1.6 0 0.8 -0.3 1.2 -0.6 0.8 -1.1 -1 -8.3 7.2 -11.1 12.6 -2.3 4.5 -2.7 6.4 -2.6 14 0 4.8 0.6 9.3 1.2 10 1.1 1.4 0.5 2.7 -1.2 2.7 -0.5 0 -0.7 -0.6 -0.4 -1.4 0.3 -0.8 0.2 -1.6 -0.3 -1.8 -2.7 -0.9 -2.6 -19.8 0.1 -19.8 0.6 0 0.8 -0.4 0.4 -1 -1 -1.6 2.4 -8.3 6.3 -12.3 3.6 -3.8 9 -7.3 10.5 -6.9 0.4 0.1 0.7 -0.3 0.7 -0.9 0 -0.5 0.5 -0.7 1 -0.4 0.6 0.3 1 0.2 1 -0.4 0 -1.2 1 -1.3 11.9 -1.5 6 -0.1 8.6 0.3 8.9 1.2 0.2 0.6 0.8 1 1.3 0.6 1 -0.6 10.9 4.5 10.9 5.6 0 0.4 1.1 1.2 2.4 1.8 1.9 0.9 2.5 0.8 3 -0.4 1 -2.6 2.2 -1.5 5.4 4.9 5.3 10.3 6.6 21.9 3.4 31.7 -2.2 6.8 -4.2 10 -6.3 10 -1 0 -2.3 1.6 -3.2 3.9 -1.7 4.2 -5 7.1 -7.9 7.1 -1 0 -1.8 0.5 -1.8 1 0 0.6 -1.4 1 -3.1 1 -2.6 0 -2.9 -0.3 -2.4 -2z"/>
  <path d="M382.5 217.2 c-9.9 -4.8 -14.5 -12.5 -14.5 -24.2 0 -13.1 7 -22.1 20 -25.4 1.4 -0.4 -0.2 0.6 -3.6 2.2 -6.2 3 -12.3 9.1 -14.3 14.5 -1.7 4.5 -1.3 15.7 0.8 20.2 2.5 5.6 9 11.1 15.2 12.9 10.2 3.1 18 1.3 25.1 -5.6 6.2 -6.1 8.1 -10.5 8.1 -19 0 -5.8 -0.5 -7.5 -3.4 -12.4 -4 -6.6 -6 -8.1 -14.8 -11.1 -3.7 -1.2 -5.6 -2.2 -4.5 -2.2 3.3 -0.1 10.4 2.7 14.1 5.5 1.8 1.4 4.6 4.8 6.2 7.6 7.5 13 3.7 27.7 -9.2 36 -4 2.6 -6.1 3.2 -12 3.5 -6.4 0.4 -7.9 0.1 -13.2 -2.5z"/>
  <path d="M257 216.6 c-1.4 -0.7 -5 -1.6 -8 -2 -6 -0.8 -19 -7.1 -19 -9.3 0 -0.7 -0.4 -1.3 -1 -1.3 -0.5 0 -1 -0.7 -1 -1.5 0 -0.8 -0.4 -1.5 -0.9 -1.5 -1.4 0 -3.3 -8.5 -3.7 -16.5 -0.5 -8.2 2.3 -19 5.7 -22.1 2 -1.8 2.1 -1.8 3.5 0.1 1.8 2.4 1.8 2.8 -0.6 7.5 -1.1 2.1 -2.3 6.4 -2.6 9.4 -0.7 5.6 -2.4 7.8 -2.4 3 0 -1.4 -0.5 -2.4 -1.1 -2.2 -0.6 0.2 -1 0.7 -1 1.1 0.1 0.4 0.1 1.9 0.1 3.3 0 2.1 0.4 2.5 1.9 2.1 1.4 -0.3 2.2 0.6 3.6 4.7 1 2.8 3.1 6.8 4.8 8.9 5.9 7.6 17.2 13.2 24.2 12 12.8 -2.1 21.1 -7.6 25.6 -16.8 1.9 -4.1 2.4 -6.5 2.3 -13 -0.1 -5 -0.7 -9.4 -1.7 -11.6 -1.9 -4.2 -11 -14.2 -12 -13.2 -0.4 0.3 -0.7 0 -0.7 -0.8 0 -0.8 -0.8 -1.5 -1.7 -1.6 -1 -0.1 -4.9 -0.6 -8.6 -1.2 -6.3 -1 -7.4 -0.9 -13.8 1.3 -4.8 1.7 -8.1 3.6 -10.4 6 -1.9 2 -3.7 3.2 -4 2.6 -0.3 -0.5 -0.1 -1 0.5 -1 0.6 0 0.9 -0.4 0.6 -0.9 -0.8 -1.3 5.1 -6 10.4 -8.4 6.9 -3.1 19.9 -3 26.3 0.3 5.5 2.8 14 10.6 13.4 12.3 -0.2 0.6 0.7 2.2 2 3.5 2.8 2.8 4.6 6.9 3.7 8.4 -0.3 0.5 -0.7 3.5 -0.8 6.6 -0.3 7.5 -2 14.2 -3.7 14.2 -0.5 0 -0.9 0.5 -0.9 1.1 0 0.6 -1.7 2.9 -3.9 5 -2.1 2.2 -4.4 3.9 -5 3.9 -0.6 0 -1.1 0.4 -1.1 0.8 0 1.2 -6.7 4.2 -9.4 4.2 -2.5 0 -5.1 2.2 -3.9 3.3 1.2 1.2 -3.1 0.7 -5.7 -0.7z m-29.2 -25.7 c-0.6 -1.6 -1.2 -2.9 -1.3 -2.7 -0.6 0.6 0.8 5.8 1.6 5.8 0.4 0 0.3 -1.4 -0.3 -3.1z"/>
  <path d="M388.7 204 c-8.7 -6.6 -10.3 -9 -9.1 -13.7 1.3 -5.1 5.3 -7.9 9.6 -6.7 2.6 0.8 3.9 0.6 6.6 -0.9 2.8 -1.7 3.7 -1.8 6.3 -0.7 7.4 3.1 7.8 9.1 1.3 18.7 -4.4 6.4 -6.1 8.2 -7.5 8.3 -0.3 0 -3.6 -2.3 -7.2 -5z m8.3 -2.3 c0.8 -0.7 2.1 -2.4 2.9 -3.7 0.8 -1.4 2.2 -3.7 3 -5.2 1.5 -2.6 1.5 -2.9 -0.7 -5 -1.9 -2 -2.5 -2.1 -4.3 -1 -1.2 0.8 -4 1.3 -6.2 1.2 -6.1 -0.3 -6.3 -0.2 -7.4 2.3 -0.9 1.9 -0.6 2.8 2.2 5.8 1.8 2 4 3.9 4.9 4.2 0.9 0.4 1.6 1.1 1.6 1.7 0 1.4 2.2 1.2 4 -0.3z"/>
  <path d="M247.2 205.4 c-8 -4 -14.2 -13.1 -14.2 -20.8 0 -15.8 10.8 -27 26.1 -27 5.3 0 7.4 0.5 11.1 2.7 5.5 3.2 11.5 10.1 12.8 14.8 3 10.3 -1 22.3 -9 27.6 -1.7 1.1 -1.2 0.2 1.6 -2.8 10.9 -12 9.4 -27.8 -3.6 -37.2 -4.3 -3 -4.9 -3.2 -13.5 -3.2 -8.5 0 -9.3 0.2 -13.5 3.2 -8.5 5.9 -12.5 16.7 -9.6 26.4 2 6.9 6.3 12.1 12.8 15.3 5.9 2.9 11.2 3.3 18.1 1.2 5.4 -1.6 6 -1.3 1.7 0.9 -4.8 2.5 -14.7 2 -20.8 -1.1z"/>
  <path d="M257 198.5 c0 -0.8 -0.5 -1.5 -1 -1.5 -1.9 0 -6 -4.8 -6 -7 0 -2.8 2.4 -2.5 4.4 0.5 2.6 4 8.6 2.9 8.6 -1.7 0 -1.1 -1.9 -2.7 -5.2 -4.4 -6.2 -3.1 -6.8 -3.8 -6.8 -8.1 0 -3.1 2.8 -7.3 4.9 -7.3 0.5 0 1.1 -0.9 1.4 -2 0.6 -2.5 2.5 -2.6 3.4 -0.2 0.4 0.9 1.9 2.9 3.5 4.4 2.9 2.7 3.8 6.8 1.4 6.8 -0.7 0 -2.1 -1.1 -3 -2.5 -3 -4.5 -9.8 -2.2 -6.9 2.4 0.5 0.9 2.9 2.5 5.2 3.6 4.9 2.4 6.1 3.9 6.1 8 0 2.2 -1 3.9 -4.1 6.7 -4.5 4.1 -5.9 4.6 -5.9 2.3z"/>
  <path d="M182.8 156.8 c-0.1 -0.2 -0.4 -8.4 -0.7 -18.3 l-0.6 -18 -11.1 -0.3 c-11 -0.3 -11.2 -0.3 -11.6 -2.7 -0.3 -1.4 -0.3 -2.7 0 -3 0.3 -0.3 5 -0.5 10.4 -0.5 9.5 0 9.9 -0.1 9.3 -2 -0.5 -1.7 -0.2 -2 2.4 -2 2.1 0 3.4 0.7 4.2 2.2 l1.2 2.2 0.8 -2.2 c0.7 -1.8 1.6 -2.2 5.5 -2.2 3.8 0 4.4 0.3 3.5 1.3 -1.8 2.2 -0.2 2.7 9.1 2.7 l8.8 0 0 3 c0 2.3 -0.5 3.1 -2.5 3.6 l-2.5 0.6 0 17.9 0 17.9 -13 0 c-7.1 0 -13.1 -0.1 -13.2 -0.2z m14.1 -7.5 c5.8 -6.6 11.1 -18.7 11.1 -25.3 l0 -4.1 -8.7 0.3 -8.8 0.3 -0.3 17.3 c-0.1 10.3 0.1 17.2 0.7 17.2 0.5 0 3.2 -2.6 6 -5.7z"/>
  <path d="M444.1 144 c-2.9 -0.5 -5.8 -1.4 -6.2 -2.2 -0.5 -0.7 -0.9 -9.5 -0.9 -19.5 0 -11.5 -0.4 -18.3 -1 -18.3 -0.5 0 -1 -0.4 -1 -1 0 -0.6 8.7 -1 24 -1 22 0 26.3 0.5 23 2.5 -0.5 0.3 -1 4.2 -1 8.5 0 6.4 -0.5 9.1 -2.7 14.2 -2.9 6.6 -7.2 13.7 -9.7 15.7 -1.8 1.5 -17.1 2.2 -24.5 1.1z m19 -12.7 c4.9 -4.1 8.9 -10.2 8.9 -13.5 0 -1.9 -1 -4 -2.9 -5.9 -2.6 -2.6 -3.3 -2.8 -5.8 -1.8 -1.6 0.6 -4.8 0.7 -7.6 0.4 -4.2 -0.6 -5.2 -0.4 -7.3 1.6 -4.2 3.9 -3.3 8.1 3.2 15.5 3.1 3.5 6.2 6.4 6.9 6.4 0.7 0 2.8 -1.2 4.6 -2.7z"/>
  <path d="M328.3 121.3 c-5.4 -6.9 -10.4 -12.4 -22 -24.6 -8.5 -8.9 -10.5 -11.7 -11.8 -15.9 -1.9 -6.5 -1.9 -10.1 0 -16.6 2 -6.8 6.7 -11.9 13.3 -14.9 9.1 -4 17.7 -2.8 24.4 3.4 l2.6 2.5 3.8 -2.8 c3.3 -2.6 4.7 -2.9 12.6 -3.3 10.6 -0.4 13.3 0.6 18.7 6.4 4.7 5.1 5.5 8.4 4.9 19.9 -0.3 6.5 -1 9.2 -2.9 12.4 -1.3 2.2 -9.8 11.7 -18.8 21.1 -11.8 12.4 -17 17.1 -18.7 17.1 -1.5 0 -3.5 -1.6 -6.1 -4.7z"/>
  <path d="M190 91 c0 -2.3 2.9 -2.7 4.8 -0.8 1.9 1.9 1.4 2.8 -1.8 2.8 -2.3 0 -3 -0.4 -3 -2z"/>
 </g>
 <g fill="#afbcfd">
  <path d="M241 327 c0 -1.8 0.2 -1.9 2 -0.8 1.1 0.7 2 1.6 2 2 0 0.5 -0.9 0.8 -2 0.8 -1.3 0 -2 -0.7 -2 -2z"/>
  <path d="M369 326 c0 -3 0 -3 2.5 -1.4 3 1.9 2.8 3.8 -0.3 4.2 -1.9 0.3 -2.2 -0.1 -2.2 -2.8z"/>
  <path d="M425 327 c0 -1.6 0.7 -2 3.5 -2 4 0 4.9 2.4 1.3 3.4 -3.8 1 -4.8 0.7 -4.8 -1.4z"/>
  <path d="M312 324.8 c0.1 -2 3.6 -5.8 5.4 -5.8 1.2 0 1.6 1 1.6 3.5 0 3.3 -0.2 3.5 -3.5 3.5 -2.2 0 -3.5 -0.5 -3.5 -1.2z"/>
  <path d="M320 323.5 c0 -1.8 0.5 -2.5 2 -2.5 2.4 0 2.8 3.5 0.4 4.4 -2.3 0.9 -2.4 0.8 -2.4 -1.9z"/>
  <path d="M229.2 321.5 c0.3 -2.6 0.1 -3.4 -0.9 -3.1 -0.7 0.3 -1.3 -0.1 -1.3 -0.9 0 -0.8 0.4 -1.5 1 -1.5 1.4 0 9.1 7.6 8.3 8.3 -0.3 0.4 -2.2 0.7 -4.1 0.7 -3.3 0 -3.4 -0.1 -3 -3.5z"/>
  <path d="M359 321.5 c0 -2.2 0.5 -3.5 1.3 -3.5 2.2 0 5.7 3.1 5.7 5.1 0 1.5 -0.7 1.9 -3.5 1.9 -3.3 0 -3.5 -0.2 -3.5 -3.5z"/>
  <path d="M387 324.1 c0 -0.5 2 -2.1 4.5 -3.4 l4.5 -2.6 0 2.9 c0 1.6 -0.7 3 -1.6 3.4 -2.4 0.9 -7.4 0.7 -7.4 -0.3z"/>
  <path d="M526.7 321.1 c0.3 -1.2 1.2 -2.1 2 -2.1 2 0 1.2 3.4 -0.9 3.8 -1.2 0.2 -1.5 -0.2 -1.1 -1.7z"/>
  <path d="M528 316.2 c0 -1 0.3 -2.2 0.8 -2.6 0.8 -0.8 0.9 -1.4 1.1 -5.1 0.1 -1.8 0.7 -2.5 2.1 -2.5 1.7 0 2 0.7 2 4.6 0 4.7 -1.6 7.4 -4.4 7.4 -0.9 0 -1.6 -0.8 -1.6 -1.8z"/>
  <path d="M228.8 315.2 c-3.4 -0.7 -2 -3.2 1.7 -3.2 2.6 0 3.3 0.4 2.9 1.4 -0.7 1.7 -2.3 2.4 -4.6 1.8z"/>
  <path d="M322.6 315.1 c-0.3 -0.4 -1.7 -0.6 -3.1 -0.3 -2 0.3 -2.5 0 -2.5 -1.7 0 -1.7 0.6 -2.1 3.5 -2.1 3.1 0 3.5 0.3 3.5 2.5 0 2.6 -0.5 3.1 -1.4 1.6z"/>
  <path d="M352.3 315 c-3.7 -1.5 -2.9 -4 1.2 -4 2.4 0 3.5 0.5 3.5 1.5 0 0.8 -0.7 1.5 -1.6 1.5 -0.8 0 -1.2 0.5 -0.9 1 0.7 1.2 0.7 1.2 -2.2 0z"/>
  <path d="M99.4 312.8 c-0.4 -1.3 -1.6 -3.1 -2.6 -4 -1.6 -1.3 -1.9 -2.7 -1.6 -6.3 0.3 -4.2 0.2 -4.5 -2.1 -4.5 -2.3 0 -2.3 -0.1 -0.7 -1.9 2.6 -2.8 5.6 -3.4 5.6 -1 0 1 0.7 1.9 1.5 1.9 0.8 0 1.5 -0.4 1.5 -1 0 -0.5 1.4 -1 3 -1 2 0 3 -0.5 3 -1.5 0 -1 1 -1.5 3 -1.5 2.3 0 3 -0.4 3 -2 0 -1.1 0.7 -2 1.5 -2 0.8 0 1.5 -0.4 1.5 -1 0 -0.5 0.5 -1 1.1 -1 0.6 0 1.7 -0.7 2.5 -1.5 0.9 -0.8 2.6 -1.5 3.9 -1.5 1.4 0 2.5 -0.7 2.8 -2 0.3 -1.3 1.4 -2 3 -2 1.6 0 2.6 -0.7 3 -2 0.4 -1.5 1.4 -2 3.7 -2 2.9 0 3 0.1 1.7 2 -1.5 2.2 -4.1 4 -17 12 -15.5 9.7 -16 10 -17.5 8.8 -0.9 -0.8 -1.6 -0.8 -2.3 -0.1 -1.2 1.2 -2 8.3 -1 8.3 0.8 0 3.1 6 3.1 7.8 0 2.1 -2.8 1.3 -3.6 -1z"/>
  <path d="M570.1 310.4 c0.9 -1 2.6 -3.7 3.7 -6 2.3 -4.6 6.7 -8.2 7.5 -6.1 0.4 0.9 0.8 0.9 1.4 0.1 1 -1.4 15.5 -13.2 19.2 -15.6 2.7 -1.9 7.1 -2.4 7.1 -1 0 1.2 -12.5 12.5 -18.5 16.7 -9.1 6.4 -18.9 12.7 -20.4 13.3 -1.4 0.5 -1.4 0.3 0 -1.4z"/>
  <path d="M537 305 c0 -2.8 0.2 -2.9 2 -1.8 1.1 0.7 2 2.1 2 3 0 1.1 -0.8 1.8 -2 1.8 -1.6 0 -2 -0.7 -2 -3z"/>
  <path d="M80 303.2 c-8.4 -4.1 -16 -8.6 -16 -9.5 0 -1.3 5.3 -0.2 12.2 2.6 6.6 2.7 8.4 4 9.1 6.7 0.6 2.4 -0.6 2.4 -5.3 0.2z"/>
  <path d="M520.3 299.2 c-3.9 -3.6 -4.2 -5.2 -0.9 -5.2 3.1 0 4.8 2.2 4.4 5.6 l-0.3 2.7 -3.2 -3.1z"/>
  <path d="M173 294.5 c0 -3.7 2.4 -5 3.2 -1.7 0.6 2.7 -0.2 5.2 -1.8 5.2 -0.9 0 -1.4 -1.1 -1.4 -3.5z"/>
  <path d="M73.5 289.2 c-5.1 -4 -5.6 -4.7 -3.7 -5 1.2 -0.2 2.2 -1 2.2 -1.8 0 -3.9 5.3 1.3 7.4 7.4 0.8 2.3 1.2 4.2 0.8 4.2 -0.4 0 -3.4 -2.1 -6.7 -4.8z"/>
  <path d="M527 290 c0 -2.5 -0.4 -3 -2.5 -3 -2.2 0 -2.5 -0.4 -2.5 -3.7 l0.1 -3.8 3.5 4 c1.9 2.2 4.4 5.2 5.5 6.8 l2 2.7 -3 0 c-2.8 0 -3.1 -0.3 -3.1 -3z"/>
  <path d="M99 290.1 c0 -1.1 3.1 -4.2 8.3 -8.2 4.5 -3.5 8.7 -6.8 9.3 -7.4 0.7 -0.5 4.1 -3.2 7.8 -6 3.6 -2.7 6.5 -5.7 6.6 -6.4 0 -1.1 0.3 -1.2 1.1 -0.4 1.6 1.6 0.6 6.5 -1.6 7.7 -1.1 0.6 -2.6 1.9 -3.3 2.9 -0.7 0.9 -2 1.7 -2.8 1.7 -0.8 0 -1.4 0.5 -1.4 1 0 0.6 -0.6 1 -1.3 1 -0.7 0 -1.9 0.9 -2.7 2 -0.8 1.1 -2.2 2 -3.2 2 -1 0 -1.8 0.7 -1.8 1.5 0 0.8 -0.8 1.5 -1.9 1.5 -1 0 -2.1 0.9 -2.4 2 -0.3 1.2 -1.4 2 -2.6 2 -1.2 0 -2.1 0.5 -2.1 1.1 0 1.6 -2.6 3.9 -4.4 3.9 -0.9 0 -1.6 -0.8 -1.6 -1.9z"/>
  <path d="M581 278 c0.1 -5 0.5 -7.1 2.1 -8.9 1.1 -1.3 2.3 -2.1 2.6 -1.7 1.1 1.1 -1.5 13.8 -3.1 15.5 -1.5 1.4 -1.6 0.9 -1.6 -4.9z"/>
  <path d="M591 261.6 c0 -1.8 0.7 -3.9 1.5 -4.6 0.8 -0.7 1.5 -1.9 1.5 -2.6 0 -0.8 0.7 -1.4 1.5 -1.4 0.8 0 1.5 -0.6 1.5 -1.3 0 -1.4 3.1 -4.7 4.3 -4.7 1 0 -0.8 5.2 -4.2 11.8 -3.5 7 -6.1 8.2 -6.1 2.8z"/>
  <path d="M381.1 227.7 c-2.3 -1.1 -3 -3.5 -0.9 -2.9 0.6 0.1 1.7 -0.3 2.6 -1 1.4 -1.2 1.4 -1 0.2 1.2 l-1.3 2.5 2.2 -1.9 c2.3 -2.1 2.9 -1 0.9 1.7 -1.1 1.4 -1.7 1.5 -3.7 0.4z"/>
  <path d="M408.8 225.3 c2.1 -1.1 3.1 -2.2 2.7 -3.1 -0.4 -1.2 -0.2 -1.2 0.8 -0.3 2 1.6 5.3 -1.9 3.5 -3.7 -0.9 -0.9 -0.8 -1.2 0.4 -1.2 0.9 0 1.9 -0.8 2.3 -1.9 0.3 -1.1 1.9 -2.1 3.8 -2.5 3.1 -0.7 3.1 -0.7 1.2 -2.3 -2 -1.5 -2 -1.5 0.1 -0.9 2.8 0.8 4 -2.9 1.6 -4.5 -1.5 -0.9 -1.5 -1 0.2 -0.5 1.3 0.5 1.7 0.2 1.3 -0.8 -0.3 -0.8 -0.1 -1.7 0.6 -2 0.9 -0.3 0.8 -0.8 -0.3 -1.5 -1.3 -0.9 -1.3 -1.1 0.3 -1.1 1 0 1.7 -0.8 1.7 -1.9 0 -1.1 -0.8 -2.2 -1.7 -2.4 -1.7 -0.4 -1.7 -0.5 0 -0.6 2 -0.1 2.3 -1.7 0.5 -2.4 -1 -0.4 -1 -0.6 0 -0.6 1.9 -0.1 1.4 -2.1 -0.5 -2.2 -1.5 0 -1.5 -0.2 0.2 -0.9 1.8 -0.7 1.9 -0.8 0.3 -1.5 -1 -0.4 -1.6 -1.1 -1.3 -1.6 1.2 -1.9 -0.7 -5.9 -2.9 -5.9 -1.7 0 -1.8 -0.2 -0.6 -1 1.3 -0.8 1.2 -1 -0.5 -1 -1.4 0 -1.6 -0.3 -0.8 -1.1 0.8 -0.8 0.8 -1.8 0.1 -3.5 -1.4 -3 -0.1 -4.5 1.6 -2.1 0.7 0.9 1.8 1.7 2.4 1.7 1.4 0 2.2 2.5 2.2 6.6 0 2.3 0.5 3.4 1.4 3.4 3.1 0 2.7 25.8 -0.4 26.8 -0.5 0.2 -1 1.5 -1 2.8 0 1.7 -0.6 2.4 -2 2.4 -1.1 0 -2 0.7 -2 1.5 0 0.8 -0.9 2 -2 2.7 -1.1 0.7 -2 1.6 -2 2.1 0 2.3 -5 5.5 -9.6 6 l-4.9 0.7 3.3 -1.7z"/>
  <path d="M250.8 215.7 c-2.1 -0.6 -3.8 -1.4 -3.8 -1.9 0 -0.4 -1.4 -0.8 -3.1 -0.8 -1.7 0 -5.3 -1.2 -8 -2.7 -3.7 -2 -4.9 -3.2 -4.9 -5 0 -1.2 -0.4 -2.3 -1 -2.3 -0.5 0 -1 -1.2 -1 -2.7 l0 -2.8 2.1 3.4 c1.1 1.8 2.3 3.1 2.6 2.8 0.3 -0.3 1.4 0.3 2.6 1.3 1.1 1.1 2.4 1.7 2.9 1.4 0.4 -0.3 0.8 -0.1 0.8 0.4 0 1.3 6.6 3.9 13.5 5.3 7.1 1.4 9.8 2.6 9 4 -0.8 1.2 -6.9 1 -11.7 -0.4z"/>
  <path d="M391.9 205.9 c-7.8 -5.5 -11.9 -10.1 -11.9 -13.1 0 -6.6 3.6 -9.6 10.3 -8.4 2 0.3 3.9 0 5.1 -0.9 4.4 -3.3 11 0 12.2 6 0.5 2.6 -0.3 4.4 -4.6 10.8 -2.8 4.2 -5.5 7.9 -5.9 8.2 -0.5 0.2 -2.8 -0.9 -5.2 -2.6z m5.1 -3.9 c0 -0.6 1.5 -3.3 3.4 -6.1 2.3 -3.4 3.2 -5.7 2.8 -7.4 -0.5 -2.9 -3.3 -3.3 -5.3 -0.9 -1 1.3 -2.5 1.5 -6.5 1.1 -6.6 -0.7 -7.7 0.1 -6.9 4.7 0.5 2.6 1.2 3.6 2.6 3.6 1 0 2.4 0.8 3.1 1.8 2.4 3.1 6.8 5.2 6.8 3.2z"/>
  <path d="M254.3 195.5 c-2.4 -2.4 -4.3 -4.8 -4.3 -5.4 0 -1.9 2.2 -1.2 4.6 1.4 2.7 3 4.4 3.1 7.4 0.7 3.3 -2.6 1.9 -5.4 -4 -8.2 -5.6 -2.6 -7.7 -6.1 -6.1 -10.3 0.6 -1.4 2 -3.1 3.1 -3.7 1.2 -0.6 2.5 -2.1 3 -3.3 l0.9 -2.2 0.6 2.1 c0.4 1.2 2 3.1 3.6 4.3 1.6 1.2 2.9 3 2.9 4.1 0 2.7 -1 2.5 -3.5 -0.7 -1.7 -2.1 -2.7 -2.5 -4.8 -1.9 -2.9 0.7 -4.4 4 -2.7 6.1 0.6 0.7 3.1 2.3 5.5 3.4 2.4 1.1 4.9 3 5.5 4.1 1.7 3.3 0.3 7.8 -3.1 9.5 -1.6 0.9 -2.9 2.2 -2.9 3 0 2.3 -1.1 1.7 -5.7 -3z"/>
  <path d="M224 176.5 c0 -2.3 0.5 -3.5 1.4 -3.5 1.9 0 2.6 3.3 1.1 5.3 -1.8 2.5 -2.5 2.1 -2.5 -1.8z"/>
  <path d="M288 172 c-0.6 -1.1 -0.7 -2 -0.3 -2 0.5 0 1.4 0.9 2.1 2 0.7 1.1 0.8 2 0.2 2 -0.5 0 -1.4 -0.9 -2 -2z"/>
  <path d="M229 164.6 c0 -2.9 0.4 -3.7 1.6 -3.4 0.9 0.2 2.1 1.4 2.6 2.8 0.5 1.3 0.6 2.1 0.2 1.7 -0.4 -0.4 -1.6 0 -2.6 1 -1.7 1.5 -1.8 1.4 -1.8 -2.1z"/>
  <path d="M183 136.5 l0 -20.6 -2.6 -2.4 c-1.6 -1.5 -2.3 -2.9 -1.8 -3.6 0.4 -0.7 0.6 -3.5 0.5 -6.1 -0.2 -4.3 0 -4.8 1.8 -4.8 1.7 0 2.1 -0.6 2.1 -3 0 -5.5 5.9 -8.7 11.1 -6 1.3 0.8 1.9 2.1 1.9 4.5 0 2.4 0.5 3.5 1.5 3.5 0.8 0 1.5 0.9 1.5 2 0 1.1 -0.4 2 -0.9 2 -0.5 0 -1.4 1.4 -2.1 3.1 -1.1 2.5 -1.1 3.2 0 3.9 1.8 1.1 -0.4 4 -3.1 4 -3.2 0 -3.9 4.2 -3.9 24.6 l0 19.4 -3 0 -3 0 0 -20.5z"/>
  <path d="M464.6 144.1 c-1.7 -0.7 -1.7 -1 1 -4.2 6.5 -7.6 11.3 -17.3 13.4 -26.9 1.9 -8.7 3.6 -8 -19.7 -8 -21.9 0 -25.3 -0.4 -25.3 -2.6 0 -1.2 4.5 -1.4 25.5 -1.4 21 0 25.5 0.2 25.5 1.4 0 0.7 -0.9 1.6 -2 1.9 -1.9 0.5 -2 1.4 -2 20 0 19.3 0 19.5 -2.2 20.1 -3.1 0.8 -11.9 0.6 -14.2 -0.3z"/>
  <path d="M330.9 124.4 l-2.4 -2.6 2.5 0.7 c2.3 0.5 4.3 -1.2 19 -16.5 9.1 -9.5 17.6 -19 18.9 -21.1 3.2 -5.3 3.9 -14.9 1.7 -21.5 -1.7 -4.9 -5.2 -9.6 -9.6 -12.7 -1.4 -0.9 -1.9 -1.7 -1.2 -1.7 2.5 0 6.9 2.9 10.9 7.3 3.3 3.5 4.2 5.4 4.8 9.6 1.5 11.3 -1.8 25.1 -6.1 25.1 -1 0 -1.4 0.6 -1.1 1.4 0.6 1.4 -32.1 34.6 -34 34.6 -0.5 0 -2 -1.2 -3.4 -2.6z"/>
  <path d="M330.1 54.6 c-3 -3.2 -8.1 -5.6 -14 -6.6 l-4.6 -0.8 5.8 -0.1 c6.2 -0.1 11.7 2 15.1 5.8 2.9 3.2 0.6 4.8 -2.3 1.7z"/>
 </g>
 <g fill="#e8c4b4">
  <path d="M217.5 207.8 c0.2 -1.8 0.3 -3.9 0.4 -4.5 0.1 -0.7 1 -1.3 2.1 -1.3 1.7 0 2 0.7 2 4.5 0 4.1 -0.2 4.5 -2.4 4.5 -2.1 0 -2.3 -0.4 -2.1 -3.2z"/>
  <path d="M226 202.1 c0 -1.1 -0.3 -2.1 -0.7 -2.3 -0.5 -0.1 -1.6 -2 -2.6 -4.2 -1.7 -3.6 -2 -3.8 -5.2 -3.2 -2.4 0.5 -3.6 0.3 -4.2 -0.8 -0.4 -0.8 -1.2 -1.4 -1.8 -1.3 -0.5 0.1 -1.4 -3 -1.8 -7 -1 -9.2 0.6 -13.7 5.7 -15.8 2 -0.8 4.9 -1.5 6.5 -1.5 1.6 0 3.1 -0.6 3.5 -1.5 0.7 -1.8 1.6 -1.8 3.9 -0.1 1.7 1.3 1.7 1.5 -0.3 5 -1.1 2 -2 4.7 -2 5.9 0 1.2 -0.6 3.1 -1.4 4.2 -1.2 1.7 -1.1 2.9 0.4 8.6 0.9 3.7 2.9 8.7 4.3 11.3 l2.6 4.6 -3.5 0 c-2.7 0 -3.4 -0.4 -3.4 -1.9z"/>
 </g>
 <g fill="#94c4f2">
  <path d="M315 313 c0 -1.3 0.7 -2 2 -2 1.3 0 2 0.7 2 2 0 1.3 -0.7 2 -2 2 -1.3 0 -2 -0.7 -2 -2z"/>
  <path d="M350.6 313.8 c-0.2 -0.7 -0.7 -3.1 -1 -5.3 -0.3 -2.2 -2 -11.2 -3.7 -20 -1.6 -8.8 -4.1 -22.5 -5.5 -30.4 -1.4 -8 -2.8 -14.9 -3.1 -15.4 -0.8 -1.3 -2.3 1.3 -2.3 4.1 0 1.5 -0.6 2.2 -2 2.2 -1.9 0 -2.1 -0.6 -2 -6.7 0.1 -3.8 -0.2 -12.7 -0.5 -19.9 l-0.7 -13.1 3.8 -0.6 c7.6 -1.3 13.3 -0.8 14.5 1.1 0.8 1.2 2 1.7 3.5 1.4 1.3 -0.2 2.4 0 2.4 0.5 0 2.6 5.2 70.6 6.2 81.3 1.8 19.1 1.7 20.4 -0.9 20.8 -1.4 0.2 -2.3 -0.2 -2.3 -1 0 -0.9 -0.3 -1 -0.8 -0.2 -1.2 1.9 -5.2 2.7 -5.6 1.2z"/>
  <path d="M324 305.5 c0 -2.8 0.4 -3.5 2 -3.5 2.1 0 2.4 1 1.4 4.8 -1 3.6 -3.4 2.7 -3.4 -1.3z"/>
  <path d="M325 296.5 c0 -2.8 0.4 -3.5 2 -3.5 2.1 0 2.4 1 1.4 4.8 -1 3.6 -3.4 2.7 -3.4 -1.3z"/>
  <path d="M326 288.5 c0 -2.8 0.4 -3.5 2 -3.5 1.6 0 2 0.7 2 3.5 0 2.8 -0.4 3.5 -2 3.5 -1.6 0 -2 -0.7 -2 -3.5z"/>
  <path d="M327 280.1 c0 -3.5 0.3 -4.1 2.1 -4.1 1.7 0 2 0.5 1.7 3.7 -0.2 2.7 -0.8 3.9 -2 4.1 -1.5 0.3 -1.8 -0.4 -1.8 -3.7z"/>
  <path d="M328 271.5 c0 -2.8 0.4 -3.5 2 -3.5 1.6 0 2 0.7 2 3.5 0 2.8 -0.4 3.5 -2 3.5 -1.6 0 -2 -0.7 -2 -3.5z"/>
  <path d="M329 262.5 c0 -2.8 0.4 -3.5 2 -3.5 1.6 0 2 0.7 2 3.5 0 2.8 -0.4 3.5 -2 3.5 -1.6 0 -2 -0.7 -2 -3.5z"/>
 </g>
 <g fill="#96acfc">
  <path d="M361 323.5 c0 -1.9 0.4 -2.3 1.8 -1.9 1.4 0.5 1.4 0.3 -0.2 -1 -1.4 -1.2 -1.6 -1.6 -0.5 -1.6 2.1 0.1 5.9 3.6 5.9 5.4 0 1.2 -1 1.6 -3.5 1.6 -3.1 0 -3.5 -0.3 -3.5 -2.5z"/>
  <path d="M528 316.1 c0 -0.5 0.6 -1.6 1.4 -2.3 0.7 -0.8 1.2 -2.6 1 -4.1 -0.2 -2.3 0.1 -2.7 2.2 -2.7 2.1 0 2.4 0.5 2.4 3.5 0 1.9 -0.4 3.5 -1 3.5 -0.5 0 -1 0.7 -1 1.5 0 0.9 -0.9 1.5 -2.5 1.5 -1.4 0 -2.5 -0.4 -2.5 -0.9z"/>
  <path d="M574.6 305 c2.1 -4 4.8 -6.9 9.9 -10.8 8.7 -6.6 19.1 -12.9 22.9 -13.8 2.5 -0.6 2.7 -0.5 1.9 1 -0.5 0.9 -2.1 2.5 -3.5 3.4 -1.4 0.9 -5.4 4.1 -8.9 7 -3.5 3 -7.9 6.6 -9.8 8 -1.8 1.5 -3.8 3.2 -4.5 3.7 -0.6 0.6 -2.2 1.6 -3.6 2.2 -1.4 0.7 -3.6 2.1 -4.9 3 -2.5 1.8 -2.5 1.8 0.5 -3.7z"/>
  <path d="M73.8 299.6 c-11.5 -6.2 -12.6 -7.1 -7.3 -6.2 7 1.1 15.5 5.1 17.1 8.1 2.4 4.7 2.5 4.7 -9.8 -1.9z"/>
  <path d="M103 296 c0 -1.3 0.9 -2.2 2.5 -2.6 1.4 -0.3 2.5 -1 2.5 -1.5 0 -0.5 0.7 -0.9 1.5 -0.9 0.8 0 1.5 -0.4 1.5 -1 0 -0.5 1.6 -1 3.5 -1 1.9 0 3.5 0.3 3.5 0.8 0 1.1 -11.5 8.2 -13.3 8.2 -1 0 -1.7 -0.8 -1.7 -2z"/>
  <path d="M172 290.5 c0 -3.9 1.4 -4.6 3 -1.6 1.6 3.1 1.2 5.1 -1 5.1 -1.6 0 -2 -0.7 -2 -3.5z"/>
  <path d="M72.5 288.3 c-7 -5.2 -16.5 -14.1 -16.5 -15.4 0 -1.7 2.6 -0.9 8.9 2.9 7.9 4.6 12.4 9 13.8 13.7 0.6 1.9 0.8 3.5 0.5 3.4 -0.4 0 -3.4 -2.1 -6.7 -4.6z"/>
  <path d="M99 290.3 c0 -1.1 1.2 -2.6 3.3 -4.2 1.5 -1.2 1.7 -1.1 1.7 1.8 0 2.6 -0.4 3.1 -2.5 3.1 -1.4 0 -2.5 -0.3 -2.5 -0.7z"/>
  <path d="M122 284.5 c0 -2 0.6 -2.7 3 -3.1 1.7 -0.4 3 -1.2 3 -1.9 0 -1.6 2.2 -2.5 6.1 -2.5 1.8 0 2.8 0.4 2.4 1 -0.8 1.3 -12.6 9 -13.7 9 -0.4 0 -0.8 -1.1 -0.8 -2.5z"/>
  <path d="M521 282.4 c0 -3.9 0.9 -3.8 4 0.6 l2.1 3 -3 0 c-2.9 0 -3.1 -0.3 -3.1 -3.6z"/>
  <path d="M582 277.1 c0 -5.7 0.3 -6.5 5.6 -14.3 5.6 -8.3 12.1 -15.8 13.6 -15.8 0.5 0 0.3 1 -0.3 2.3 -0.7 1.2 -1.1 2.2 -0.9 2.2 0.2 0 0 1 -0.4 2.3 -0.4 1.2 -1.2 2.2 -1.7 2.2 -0.6 0 -0.8 0.4 -0.5 0.9 0.3 0.4 -0.3 1.6 -1.4 2.6 -1.1 1 -1.7 2.2 -1.4 2.6 0.6 1 -6.8 14 -9 15.9 -0.9 0.7 -1.6 1.8 -1.6 2.6 0 0.7 -0.4 1.6 -1 1.9 -0.6 0.4 -1 -1.6 -1 -5.4z"/>
  <path d="M115.5 276 c0.3 -0.5 1.9 -1.9 3.5 -3 l3 -2.1 0 3 c0 2.9 -0.3 3.1 -3.6 3.1 -2 0 -3.3 -0.4 -2.9 -1z"/>
  <path d="M318 211.5 l0 -3.5 9 0 c8.3 0 9 0.1 9 2 0 1.1 -0.7 2 -1.5 2 -0.8 0 -1.5 0.7 -1.5 1.5 0 1.2 -1.5 1.5 -7.5 1.5 l-7.5 0 0 -3.5z"/>
  <path d="M388.7 202.9 c-7 -5.3 -8.1 -7.3 -7.5 -13 0.4 -4.4 4.4 -6.6 8.9 -5 2.6 0.9 3.5 0.7 5.8 -1 5 -3.7 11.1 -0.1 11.1 6.6 0 3.1 -8.2 16.5 -10.6 17.2 -0.6 0.2 -4.1 -2 -7.7 -4.8z"/>
  <path d="M257.2 197 c-0.7 -1.1 -1.7 -2 -2.3 -2 -1.5 0 -3.8 -3 -3.9 -4.9 0 -0.8 1 -0.3 2.5 1.3 4 4.3 11.1 2.7 10.3 -2.5 -0.2 -1.7 -1.7 -3.2 -5.2 -5 -2.6 -1.5 -5.2 -3.3 -5.7 -4 -1.8 -2.8 -1 -6.7 1.9 -8.9 1.5 -1.2 3 -2.9 3.4 -3.8 0.6 -1.4 0.8 -1.4 1.4 0.6 0.3 1.2 1 2.2 1.5 2.2 1.5 0 4.9 3.9 4.9 5.5 0 2.3 -1.6 1.8 -2.8 -1.1 -1 -2.1 -1.8 -2.5 -5 -2.2 -3.5 0.3 -3.7 0.5 -3.7 3.7 0 3 0.5 3.7 4.1 5.5 2.3 1.2 4.9 2.7 5.8 3.5 2.3 2 2 6.7 -0.6 9.1 -1.3 1.2 -3 2.7 -3.8 3.5 -1.4 1.2 -1.7 1.1 -2.8 -0.5z"/>
  <path d="M332.5 126 c-0.3 -0.5 3.5 -4.9 8.4 -9.7 12.5 -12.2 28 -29.3 29.7 -32.6 1.7 -3.2 2.3 -14.3 1.1 -19.9 -0.4 -2 -2.6 -6 -4.8 -8.8 -2.3 -2.9 -3.2 -4.7 -2.2 -4.2 3.3 1.8 9.2 8.6 10.8 12.4 1.9 4.7 2 16.7 0 21.3 -1.5 3.7 -39.2 42.5 -41.2 42.5 -0.7 0 -1.5 -0.4 -1.8 -1z"/>
  <path d="M184.8 123.9 c-2.5 -1.4 -2.2 -2.9 0.5 -2.9 2.9 0 3.7 0.7 3 2.6 -0.6 1.6 -1.2 1.7 -3.5 0.3z"/>
  <path d="M176 107.5 c-3.7 -6.4 -3 -8.5 2.5 -8.5 3.3 0 3.3 0 4 5.9 1.1 9.9 -1.7 11 -6.5 2.6z"/>
  <path d="M190 111.5 c0 -3.3 4.2 -12.4 6 -13 2.6 -0.8 6 1.1 6 3.4 0 2.2 -5.4 9.3 -7.8 10.3 -2.8 1.1 -4.2 0.9 -4.2 -0.7z"/>
  <path d="M433 100.5 l0 -3.5 26.5 0 26.5 0 0 3.5 0 3.5 -26.5 0 -26.5 0 0 -3.5z"/>
  <path d="M330.4 53.9 c-1.1 -1.2 -3.9 -3.2 -6.4 -4.5 -2.5 -1.3 -3.7 -2.3 -2.7 -2.4 4.1 -0.1 14.1 7 11.9 8.4 -0.5 0.3 -1.8 -0.4 -2.8 -1.5z"/>
 </g>
 <g fill="#87bbee">
  <path d="M322.4 316.3 c0.1 -1.4 -0.7 -1.8 -3.4 -1.8 l-3.5 0 0 -5.5 c0 -12.9 1.6 -80.4 2.1 -90 l0.6 -10.6 11.4 -0.1 c8.9 -0.2 11.4 0.1 11.4 1.1 0 1.7 -4.1 2.8 -8.3 2.3 -1.8 -0.2 -2.4 -0.2 -1.4 0 1.4 0.4 1.7 1.6 1.7 7.6 0 4 0.5 9 1 11.2 1.4 6.2 1.2 17.4 -0.6 27.5 -0.3 1.9 -0.8 5.5 -1.1 8 -0.2 2.5 -0.6 5.6 -0.8 7 -0.1 1.4 -0.6 5.2 -1 8.5 -0.4 3.3 -0.8 7.1 -1 8.5 -0.2 1.4 -0.9 7.6 -1.6 13.8 -0.9 7.9 -1.7 11.2 -2.6 11.2 -0.7 0 -1.3 0.7 -1.3 1.5 0 0.8 -0.4 1.5 -0.9 1.5 -0.5 0 -0.8 -0.8 -0.7 -1.7z"/>
  <path d="M350.3 312.5 c-0.8 -2.1 -0.4 -2.4 5.1 -3.4 5 -0.9 6.5 0.1 5.2 3.4 -0.8 2.1 -9.4 2.1 -10.3 0z"/>
  <path d="M347.1 215 c-2.9 -2.8 -4.9 -5.5 -4.6 -6 0.3 -0.6 3.1 -1 6 -1 l5.4 0 -0.2 6 c-0.1 3.3 -0.5 6 -0.8 6 -0.4 0 -3 -2.3 -5.8 -5z"/>
 </g>
 <g fill="#beacac">
  <path d="M305.2 329.3 c-1 -0.4 -1 -0.8 -0.1 -1.9 1.6 -1.9 5.9 -1.8 5.9 0.1 0 0.8 -0.4 1.5 -0.9 1.5 -0.5 0 -1.5 0.2 -2.3 0.4 -0.7 0.3 -1.9 0.2 -2.6 -0.1z"/>
  <path d="M229.6 328 c-6.5 -1.1 -7.6 -1.7 -7.6 -3.6 0 -1.4 0.7 -1.5 3.8 -1 2 0.4 5.8 0.9 8.5 1.3 3.7 0.4 4.7 1 4.7 2.4 0 2.1 -1.3 2.2 -9.4 0.9z"/>
  <path d="M362.5 327 c-3.8 -1 -7.3 -1.9 -7.7 -1.9 -0.5 -0.1 -0.8 -1 -0.8 -2.1 0 -1.3 0.7 -2 2 -2 1.1 0 2 0.3 2 0.8 0 0.4 3 1.3 6.7 2 6.8 1.3 9.7 2.7 8.7 4.3 -0.7 1.3 -2.9 1 -10.9 -1.1z"/>
  <path d="M423 328.1 c0 -1.1 3.9 -4.1 5.3 -4.1 0.5 0 0.7 1 0.5 2.3 -0.2 1.6 -1.1 2.3 -3 2.5 -1.6 0.2 -2.8 -0.1 -2.8 -0.7z"/>
  <path d="M312 326.1 c0 -1.7 0.6 -2.1 3 -2.1 1.7 0 3 -0.4 3 -1 0 -0.5 1.4 -1 3.1 -1 5.8 0 1.4 4.2 -6 5.6 -2.7 0.6 -3.1 0.4 -3.1 -1.5z"/>
  <path d="M385.7 327.2 c-1 -0.2 -1.6 -0.9 -1.5 -1.4 0.6 -1.7 7.2 -5 7.6 -3.8 0.3 0.7 2.5 0.8 6.3 0.4 5.1 -0.6 5.9 -0.4 5.9 1 0 0.9 -0.1 1.6 -0.2 1.6 -0.2 0 -3.9 0.6 -8.3 1.3 -4.4 0.7 -8.8 1.1 -9.8 0.9z"/>
  <path d="M432 326 c0 -1.7 0.7 -2 4 -2 2.2 0 4 -0.4 4 -1 0 -0.5 0.9 -1 2 -1 1.3 0 2 0.7 2 1.9 0 1.4 -1.2 2.2 -4.4 3 -6.3 1.6 -7.6 1.4 -7.6 -0.9z"/>
  <path d="M172.6 325.4 c-1.1 -2.9 -0.6 -4.4 1.4 -4.4 1.6 0 2 0.7 2 3 0 3.2 -2.3 4.2 -3.4 1.4z"/>
  <path d="M183 325.6 c0 -1 -0.9 -1.6 -2.5 -1.6 -2.2 0 -2.5 -0.4 -2.5 -3.6 0 -3.2 0.2 -3.4 1.5 -2 0.8 0.8 2.4 1.8 3.5 2.1 1.1 0.3 2 1 2 1.5 0 0.5 1.4 0.8 3 0.8 2.8 -0.1 6 1.6 4.9 2.6 -0.2 0.2 -2.5 0.7 -5.1 1 -4 0.6 -4.8 0.5 -4.8 -0.8z"/>
  <path d="M478.8 325.3 c-2.2 -0.5 -2.4 -3.3 -0.3 -3.3 0.8 0 1.7 -1.1 2.1 -2.5 0.4 -1.6 1.3 -2.5 2.5 -2.5 2.2 0 2.4 1.4 0.8 5.9 -1.1 3 -1.7 3.3 -5.1 2.4z"/>
  <path d="M471 323.3 c-0.8 -0.3 -3.5 -1.4 -6 -2.5 -3.8 -1.6 -4.2 -2.1 -2.7 -2.9 2.7 -1.6 13.7 1.8 13.7 4.2 0 1.9 -1.9 2.3 -5 1.2z"/>
  <path d="M527.2 320.3 c0.2 -2.2 0.9 -2.9 3.2 -3.1 l2.8 -0.4 -2.1 3.1 c-2.8 3.8 -4.3 4 -3.9 0.4z"/>
  <path d="M315 319.3 c0.1 -1.9 1.8 -3.3 3.3 -2.7 2.6 1 2 3.4 -0.8 3.4 -1.4 0 -2.5 -0.3 -2.5 -0.7z"/>
  <path d="M437.5 317 c-0.3 -0.5 0.2 -1 1.2 -1.1 1.5 0 1.4 -0.2 -0.3 -0.9 -2.6 -1 -3.2 -2.9 -7.8 -23 -4.4 -19.4 -5.3 -25.2 -6.1 -41.8 -0.7 -12.3 -1.7 -16.5 -3.1 -12.8 -0.3 0.9 -0.9 1.6 -1.3 1.6 -1.2 0 -3.1 -9.8 -3.1 -16.1 l0 -6 5.3 -2.4 c5.3 -2.5 15.7 -3.5 15.7 -1.5 0 0.6 -0.6 1 -1.2 1 -0.8 0 -0.7 0.4 0.3 1 2.9 1.7 4.2 9.2 3.5 19.8 -1.6 25.1 -1.8 37 -0.7 43.7 0.7 3.9 1.4 13.1 1.6 20.5 0.3 7.4 0.7 14.7 1 16.3 0.4 2.3 0.1 2.7 -2 2.7 -1.3 0 -2.7 -0.4 -3 -1z"/>
  <path d="M95.2 307.8 c-5.3 -7.1 -6.1 -10 -3 -10.6 1.2 -0.2 1.9 0.5 2.4 2.2 0.3 1.4 1 2.6 1.5 2.6 0.5 0 0.9 0.9 0.9 2 0 1.1 0.7 2 1.5 2 0.9 0 1.5 0.9 1.5 2.4 0 1.3 0.7 2.6 1.5 3 0.8 0.3 1.5 1.2 1.5 2.1 0 3.2 -2.7 1.2 -7.8 -5.7z"/>
  <path d="M537 307.7 c0 -2.7 0.4 -3.7 1.5 -3.7 2.6 0 2.9 3 0.6 5.3 l-2.1 2.1 0 -3.7z"/>
  <path d="M531 297.5 c0 -2.8 0.4 -3.5 2 -3.5 1.6 0 1.9 0.6 1.8 3.5 -0.1 2.7 -0.6 3.5 -2 3.5 -1.4 0 -1.8 -0.8 -1.8 -3.5z"/>
  <path d="M405 228.5 c0 -1.2 6.6 -5.5 8.5 -5.5 0.3 0 0.5 1.1 0.5 2.3 0 1.6 -0.9 2.8 -2.5 3.5 -3.6 1.6 -6.5 1.5 -6.5 -0.3z"/>
  <path d="M246 213 c0 -2.1 1 -2.4 4.8 -1.4 3.6 1 2.7 3.4 -1.3 3.4 -2.8 0 -3.5 -0.4 -3.5 -2z"/>
  <path d="M217 211.2 c0 -2.2 2.7 -6.2 4.3 -6.2 1.3 0 1.7 0.8 1.7 3.5 0 3.2 -0.2 3.5 -3 3.5 -1.6 0 -3 -0.4 -3 -0.8z"/>
  <path d="M226.3 203.5 c-0.7 -0.8 -1.3 -3.2 -1.3 -5.5 0 -2.9 -0.4 -4 -1.5 -4 -0.8 0 -1.5 -0.4 -1.5 -1 0 -0.5 -1.6 -1 -3.5 -1 -2.4 0 -3.5 -0.5 -3.5 -1.5 0 -2 6.6 -3.1 8.7 -1.4 0.9 0.8 1.7 1.2 1.9 0.9 0.1 -0.3 0.6 -0.2 1 0.3 0.4 0.4 0.2 0.7 -0.3 0.7 -0.8 0 -0.8 0.9 0 2.9 0.6 1.7 1.4 2.8 1.8 2.5 1 -0.6 2 2.6 1.2 3.8 -0.3 0.6 -0.2 0.9 0.3 0.6 0.5 -0.3 1.7 0.5 2.7 1.8 l1.8 2.4 -3.3 0 c-1.8 -0.1 -3.9 -0.7 -4.5 -1.5z"/>
  <path d="M228.1 169.9 c-0.1 -0.9 -0.8 -1.9 -1.6 -2.3 -2.8 -1 -1.5 -2.6 2.2 -2.6 3.4 0 3.5 0.1 2.1 1.8 -0.9 0.9 -1.8 2.4 -2.1 3.2 -0.4 1.2 -0.6 1.2 -0.6 -0.1z"/>
 </g>
 <g fill="#fd7881">
  <path d="M172 320.1 c0 -2.1 -0.5 -3.1 -1.5 -3.1 -0.8 0 -1.5 -0.8 -1.5 -1.9 0 -1.4 1 -2 3.8 -2.5 6 -1 6.5 -0.8 5.8 1.8 -0.4 1.5 0.1 3.1 1.4 4.6 1.1 1.3 1.9 2.4 1.8 2.5 -0.2 0.1 -2.4 0.6 -5 0.9 l-4.8 0.7 0 -3z"/>
  <path d="M478.8 320.4 c-1.6 -0.8 -2.8 -1.7 -2.8 -2.1 0 -0.3 1.4 -1.9 3.2 -3.5 1.7 -1.5 2.6 -2.8 2 -2.8 -0.7 0 -1.2 -0.4 -1.2 -1 0 -1.1 4.9 -1.4 7.5 -0.4 1.4 0.6 1.4 0.9 0.2 2.3 -0.8 0.9 -2 3.3 -2.7 5.4 -1.3 4.1 -2.1 4.4 -6.2 2.1z"/>
  <path d="M319 318.9 c0 -1.3 0.4 -1.8 1.2 -1.3 0.6 0.4 1.7 -0.1 2.5 -1.1 1.2 -1.7 1.3 -1.6 1.3 1.3 0 2.7 -0.4 3.2 -2.5 3.2 -1.9 0 -2.5 -0.5 -2.5 -2.1z"/>
  <path d="M354 319.1 c0 -1.4 0.5 -1.8 2 -1.4 1.1 0.3 2 1.2 2 1.9 0 0.8 -0.9 1.4 -2 1.4 -1.3 0 -2 -0.7 -2 -1.9z"/>
  <path d="M530 306.5 c0 -2 -0.5 -2.5 -2.5 -2.5 -3.4 0 -3.3 -2.9 0.3 -6.3 3.4 -3.3 7.7 -3.7 6.7 -0.7 -0.4 1.3 0.1 2.5 1.4 3.7 2.7 2.2 2.6 3.4 -0.2 6.1 -3.2 3 -5.7 2.9 -5.7 -0.3z"/>
  <path d="M94.2 299.7 c-1.2 -1.3 -2.2 -2.6 -2.2 -2.9 0 -0.3 1.6 -1.5 3.5 -2.7 1.9 -1.1 3.5 -2.7 3.5 -3.6 0 -0.8 0.6 -1.5 1.4 -1.5 2 0 4.6 3.9 4.6 6.8 0 1.9 -0.4 2.2 -2 1.7 -1.5 -0.5 -2.3 0 -3.2 1.9 -1.4 3.2 -2.8 3.3 -5.6 0.3z"/>
  <path d="M430 213.1 c0 -1.9 3.4 -3.1 8.6 -3.1 3.2 0 3 1.2 -0.5 3.3 -4 2.3 -8.1 2.3 -8.1 -0.2z"/>
  <path d="M423.4 212.5 c1 -0.8 2.6 -4.2 3.6 -7.7 1.1 -4.1 2.3 -6.4 3.4 -6.6 2.1 -0.5 2.1 3.4 -0.1 10.5 -1.6 5.1 -1.8 5.3 -5.2 5.3 -3.3 -0.1 -3.5 -0.2 -1.7 -1.5z"/>
  <path d="M140 210 c-1.3 -0.9 -1.2 -1.2 0.4 -2.5 1.1 -0.8 3 -1.5 4.1 -1.5 3.5 0 8.6 2.1 8.2 3.4 -0.5 1.4 -10.7 1.9 -12.7 0.6z"/>
  <path d="M492.2 191.3 c0.2 -1 -0.9 -2.8 -2.4 -4.1 -2.3 -1.9 -3.1 -2.1 -4.8 -1.2 -3.1 1.6 -5 -0.4 -5 -5.1 l0 -3.9 5.3 0 c4.7 0 5.9 0.4 9.5 3.6 3.8 3.2 4.2 4 4.2 8 0 4.4 0 4.4 -3.6 4.4 -2.8 0 -3.5 -0.3 -3.2 -1.7z"/>
  <path d="M427 183.3 c-0.7 -2.1 -2.3 -5.7 -3.7 -8 l-2.4 -4.3 2.9 0 c2.6 0 3.2 0.6 5.1 4.9 2.5 5.8 2.8 11.1 0.7 11.1 -0.8 0 -2 -1.7 -2.6 -3.7z"/>
  <path d="M190.6 185.2 c-2 -1.9 2.7 -9.2 5.9 -9.2 0.5 0 0.3 0.5 -0.5 1 -0.8 0.5 -1 1 -0.5 1 0.6 -0.1 1.9 -0.7 2.9 -1.5 1.8 -1.4 3.6 -1.2 3.6 0.4 0 1.2 -10.7 9 -11.4 8.3z"/>
  <path d="M142.8 178.1 c-1.5 -3.6 -2.4 -4.8 -3.5 -4.4 -1.3 0.5 -1.5 0 -1.1 -2.6 0.3 -1.7 0.1 -3.4 -0.4 -3.7 -0.4 -0.3 -0.8 -1.9 -0.8 -3.5 0 -6.5 11.9 -13.3 13.5 -7.6 0.3 1.2 1.1 3.2 1.7 4.4 1.5 3 0.1 13.6 -1.7 13 -0.9 -0.4 -1.5 0.9 -1.9 4.4 -0.9 6.5 -3 6.5 -5.8 0z"/>
  <path d="M309.2 174.8 c-1.1 -1.8 -5.2 -6.9 -9.2 -11.2 -6.4 -7 -7.2 -8.3 -6.7 -11 0.8 -4.9 13.5 -30 16.7 -33.1 4.9 -4.7 4.9 -0.8 0.2 9.3 -4.3 9.2 -6.2 16 -6.2 21.5 0 2.8 0.9 4.3 5.5 8.6 l5.5 5.3 0 6.9 c0 6.1 -0.2 6.9 -1.9 6.9 -1.1 0 -2.8 -1.4 -3.9 -3.2z"/>
  <path d="M353.7 173.3 c-1 -0.9 -0.9 -10.3 0.1 -10.3 0.4 0 3.1 -2.1 6.1 -4.7 l5.4 -4.7 -0.7 -9 c-0.4 -4.9 -1.5 -11 -2.5 -13.5 -4 -10.1 -4.6 -14.1 -2.1 -14.1 2.4 0 5 5.4 11 22.5 6 17.5 6.3 15.5 -2.7 24.8 -5.9 6.2 -8.4 8.1 -10 7.9 -1.3 -0.1 -2.3 0.2 -2.3 0.8 0 1.1 -1.3 1.3 -2.3 0.3z"/>
  <path d="M501.6 172.4 c-0.8 -2.1 -0.8 -4.9 0 -4.1 1 1 4.4 -3.9 4.4 -6.3 0 -1.1 -0.8 -3.5 -1.7 -5.3 -0.9 -1.8 -1.7 -5.3 -1.8 -7.9 l-0.2 -4.6 5.9 -0.7 c3.3 -0.4 6.1 -0.5 6.4 -0.2 0.3 0.3 0.7 2.6 0.9 5.1 0.4 3.4 -0.1 5.7 -1.5 8.4 -1.1 2 -2 4.4 -2 5.2 0.1 2 2.4 5 3.9 5 1.8 0 1.3 2.8 -0.9 5 -2.6 2.6 -12.4 2.9 -13.4 0.4z"/>
  <path d="M328.7 171.3 c-1.4 -1.3 -0.6 -4.1 1.3 -4.6 2.6 -0.7 2.7 -5 0.1 -8.5 -1.7 -2.5 -2.2 -9.4 -0.7 -10.9 0.3 -0.3 2.5 -0.8 5 -1 4.2 -0.5 4.6 -0.4 5.6 2.1 1.4 3.8 1.2 7.7 -0.5 10 -2.2 3 -1.9 7.7 0.5 8.3 2.1 0.6 2.4 1.2 1.4 3.7 -0.5 1.2 -2 1.6 -6.3 1.6 -3.2 0 -6.1 -0.3 -6.4 -0.7z"/>
  <path d="M457.9 170.5 c-0.1 -0.3 -0.3 -0.9 -0.4 -1.5 -0.1 -0.5 -0.3 -1.4 -0.4 -1.9 0 -0.5 -2.1 -3.1 -4.6 -5.8 -2.5 -2.6 -4.5 -5.1 -4.5 -5.5 0 -1.4 3.1 -0.9 4.7 0.7 0.8 0.8 1.8 1.3 2.3 1 1.1 -0.7 8 7.7 8 9.7 0 0.7 -0.5 1.9 -1.2 2.6 -1.2 1.2 -3.7 1.6 -3.9 0.7z"/>
 </g>
 <g fill="#b79a9c">
  <path d="M238 326.5 c0 -3.1 1.1 -3.2 4.7 0 l2.8 2.4 -3.7 0.1 c-3.4 0 -3.8 -0.3 -3.8 -2.5z"/>
  <path d="M308 327 c0 -1.6 0.7 -2 3.5 -2 1.9 0 3.5 -0.4 3.5 -1 0 -0.5 1.1 -1 2.5 -1 2 0 2.5 -0.5 2.5 -2.5 0 -1.8 0.5 -2.5 2 -2.5 2.6 0 2.7 3.4 0.2 6 -1.7 1.8 -9.9 5 -12.9 5 -0.7 0 -1.3 -0.9 -1.3 -2z"/>
  <path d="M227.8 327.3 c-3.3 -0.8 -2 -3.3 1.7 -3.3 2.8 0 3.5 0.4 3.5 2 0 2 -1.4 2.3 -5.2 1.3z"/>
  <path d="M172.5 324 c-0.4 -1.6 -0.4 -3.4 0 -4 1.2 -2 3.3 -0.9 3.9 2.1 0.9 4.6 0.8 4.9 -1.3 4.9 -1.3 0 -2.1 -0.9 -2.6 -3z"/>
  <path d="M179.8 325.9 c-2.3 -1.3 -2.5 -6.9 -0.3 -6.9 0.8 0 1.5 0.5 1.5 1 0 0.6 0.3 0.9 0.8 0.8 2.1 -0.5 12.2 3.6 11.2 4.5 -1.2 1.1 -11.7 1.6 -13.2 0.6z"/>
  <path d="M364.3 326.3 c-1.3 -0.2 -2.3 -1 -2.3 -1.6 0 -0.7 -0.4 -0.6 -1 0.3 -0.7 1.1 -1.5 1.2 -3.6 0.5 -3.1 -1.1 -4.4 -3.5 -2 -3.5 0.9 0 1.6 -0.8 1.6 -2 0 -3.6 2.6 -3.3 8.9 1 3.3 2.3 6.3 4.6 6.7 5.1 0.5 0.9 -4.1 1 -8.3 0.2z"/>
  <path d="M390 325.2 c0 -1.6 0.9 -2.1 5 -2.6 4.1 -0.5 5 -1 5 -2.6 0 -1.2 -0.7 -2 -1.7 -2 -1.7 0 -1.8 -1.9 -1.2 -30.2 0.5 -28.3 0.7 -31 3.2 -41.3 4.8 -19.7 4.3 -18.7 10 -22 2.9 -1.6 5.8 -4.2 6.5 -5.7 0.7 -1.5 2.4 -3.6 3.8 -4.5 1.4 -1 3.4 -2.6 4.5 -3.5 1.3 -1.2 1.9 -1.4 1.9 -0.5 0 0.8 1.7 1.1 6 0.9 7.8 -0.5 8 2.3 0.2 3.4 -1.2 0.1 -4.7 1.4 -7.7 2.8 l-5.5 2.5 0.4 4.3 c0.2 2.4 0.7 5.9 1.1 7.9 0.4 2.4 0.2 4.6 -0.8 6.5 -4.4 8.8 -8.2 23.6 -12.5 47.9 -2.4 14.3 -4.4 27.4 -4.4 29 0.1 6.9 -0.7 9.3 -3.6 9.9 -9.7 1.9 -10.2 1.9 -10.2 -0.2z"/>
  <path d="M429 325.2 c0 -0.9 1.8 -2.8 4 -4.2 2.2 -1.3 4 -2.9 4 -3.6 0 -1.3 3.8 -2.6 5.2 -1.8 0.4 0.3 0.8 1.2 0.8 2 0 1.1 -0.8 1.4 -2.7 1.2 -2.3 -0.2 -2.9 0.1 -3.1 2 -0.3 1.9 0.1 2.2 3.2 2.2 2 0 3.6 0.4 3.6 1 0 1.7 -3.4 2.8 -9.2 2.9 -4.9 0.1 -5.8 -0.2 -5.8 -1.7z"/>
  <path d="M479.5 325.3 c-4.5 -1 -15.1 -4.6 -16.3 -5.6 -2.1 -1.7 0.3 -3 4.2 -2.3 2 0.4 3.6 1.1 3.6 1.6 0 0.6 1.1 1 2.4 1 1.4 0 3.6 0.4 5 1 2.4 0.9 2.6 0.7 2.6 -1.6 0 -2.1 0.3 -2.3 1.9 -1.4 1.7 0.8 1.8 1.4 0.8 4.5 -0.6 1.9 -1.3 3.4 -1.6 3.4 -0.3 -0.1 -1.5 -0.3 -2.6 -0.6z"/>
  <path d="M527 321.3 c0 -3.4 1.2 -6.3 2.6 -6.3 0.8 0 1.4 -0.6 1.4 -1.4 0 -0.8 0.6 -1.7 1.3 -2 0.8 -0.3 0.7 -0.8 -0.5 -1.6 -2.5 -1.6 -2.2 -3.2 1.2 -6.5 l3 -2.9 2.7 2.7 2.7 2.6 -3.4 4.8 c-4.8 6.8 -9.4 12.3 -10.2 12.3 -0.5 0 -0.8 -0.8 -0.8 -1.7z m9 -14.3 c0 -1.1 -0.4 -2 -1 -2 -0.5 0 -1 0.9 -1 2 0 1.1 0.5 2 1 2 0.6 0 1 -0.9 1 -2z"/>
  <path d="M314.7 320.3 c1.7 -4.7 4.3 -5.1 4.3 -0.7 0 1.9 -0.5 2.4 -2.5 2.4 -1.9 0 -2.3 -0.4 -1.8 -1.7z"/>
  <path d="M97.8 311 l-2.8 -3.5 2.6 -0.3 c3.3 -0.4 3.6 -0.1 3.2 3.9 l-0.3 3.4 -2.7 -3.5z"/>
  <path d="M524.7 303.3 c-1.8 -1.8 -0.5 -3.3 3 -3.3 3.5 0 3.6 0 1.8 2 -1.8 2 -3.6 2.5 -4.8 1.3z"/>
  <path d="M96 299.3 c0 -3.5 0 -3.6 2 -1.8 1.5 1.3 1.7 2.2 0.9 3.6 -1.6 3 -2.9 2.2 -2.9 -1.8z"/>
  <path d="M381.4 228 c-2.7 -1.1 -4 -3 -2 -3 0.8 0 1.8 0.5 2.1 1 0.4 0.6 1 0.8 1.5 0.5 0.5 -0.3 1.1 -0.1 1.4 0.4 0.9 1.4 -0.6 2 -3 1.1z"/>
  <path d="M254.5 217 c-2.7 -1 -6 -1.9 -7.1 -1.9 -2.9 -0.1 -12.4 -4.1 -12.4 -5.2 0 -0.5 -0.6 -0.9 -1.3 -0.9 -2.8 0 -8.2 -4.9 -9.6 -8.6 -0.7 -2.2 -1.9 -4.9 -2.7 -6.1 -1.2 -2 -1.7 -2.1 -4 -1.1 -2.1 1 -2.7 0.9 -3.5 -0.3 -1.4 -2.2 -0.5 -3.3 3.5 -4.1 5.1 -1.1 7.2 0.3 9.3 6.3 2.8 8 11.1 13.4 26.6 17.3 7.5 1.9 9.2 2.7 9.2 4.2 0 2.5 -1.9 2.6 -8 0.4z"/>
  <path d="M139 216 c0 -1.8 0.7 -2 8.8 -2 4.8 0 9.7 -0.3 10.8 -0.6 1.6 -0.4 2.3 0 2.6 1.4 0.5 1.7 -0.1 2.1 -4 2.6 -2.4 0.3 -7.6 0.6 -11.3 0.6 -6.2 0 -6.9 -0.2 -6.9 -2z"/>
  <path d="M217 210 c0 -0.5 0.7 -1 1.5 -1 1.1 0 1.2 -0.5 0.5 -2.5 -0.9 -2.2 -0.7 -2.5 1.5 -2.5 2.2 0 2.5 0.4 2.5 3.5 0 3.2 -0.2 3.5 -3 3.5 -1.6 0 -3 -0.4 -3 -1z"/>
  <path d="M427.4 204.8 c0.3 -1.3 0.5 -2.5 0.6 -2.8 0.4 -0.9 0.7 -2.5 0.8 -4.2 0.1 -1 0.9 -1.8 1.7 -1.8 1 0 1.5 1 1.5 3.3 0 5.1 -1.1 7.7 -3.1 7.7 -1.4 0 -1.8 -0.6 -1.5 -2.2z"/>
  <path d="M492 192 c0 -1.3 0.7 -2 2 -2 3 0 2.4 -2.4 -1.5 -5.9 -1.9 -1.7 -3.5 -3.3 -3.5 -3.6 0 -0.3 1.5 -0.5 3.4 -0.5 6 0 10.2 8.6 6.2 12.6 -2.3 2.2 -6.6 1.8 -6.6 -0.6z"/>
  <path d="M428.9 190.8 c-0.1 -1.8 -1.6 -8.3 -1.9 -8.3 -0.1 0 -0.3 -1 -0.6 -2.2 -0.3 -1.7 0.1 -2.3 1.5 -2.3 1.4 0 2.2 1.2 3 4.4 1.5 6.3 1.4 9.6 -0.4 9.6 -0.8 0 -1.5 -0.6 -1.6 -1.2z"/>
  <path d="M481 179.5 c0 -3.3 0.2 -3.5 3.5 -3.5 2.9 0 3.5 0.4 3.5 2 0 1.2 -0.6 2 -1.2 1.9 -2.9 -0.3 -4 0.2 -3.4 1.6 0.3 0.9 0 1.5 -0.9 1.5 -1 0 -1.5 -1.1 -1.5 -3.5z"/>
  <path d="M129 176.6 c0 -1.8 3.3 -4.6 5.3 -4.6 0.9 0 1.7 -0.4 1.7 -1 0 -0.5 1.4 -1 3.1 -1 5.5 0 1.6 3.9 -6.8 6.8 -2.6 0.9 -3.3 0.8 -3.3 -0.2z"/>
  <path d="M423.2 174.3 c-2.8 -3.5 -2.8 -4.3 0.3 -4.3 2.2 0 2.5 0.4 2.5 3.5 0 1.9 -0.1 3.5 -0.3 3.5 -0.2 0 -1.3 -1.2 -2.5 -2.7z"/>
  <path d="M151.8 174.2 c-4.5 -1.7 -5.1 -4.2 -1 -4.2 3.7 0 5.4 1.3 5 3.7 -0.3 1.8 -0.5 1.8 -4 0.5z"/>
  <path d="M504 172.7 c0 -2 0.4 -2.3 2.9 -1.9 2 0.3 3.5 -0.2 5 -1.7 2.7 -2.7 5.1 -2.7 5.1 -0.1 0 1.1 -0.7 2 -1.5 2 -0.8 0 -1.5 0.6 -1.5 1.4 0 1.7 -2.2 2.6 -6.6 2.6 -2.9 0 -3.4 -0.3 -3.4 -2.3z"/>
  <path d="M312 168.5 c0 -3.8 0.3 -4.5 2 -4.5 1.7 0 2 0.7 2 4.5 0 3.8 -0.3 4.5 -2 4.5 -1.7 0 -2 -0.7 -2 -4.5z"/>
  <path d="M225.3 166.4 c-0.8 -2.1 2.1 -4.4 5.4 -4.4 2.7 0 2.9 0.8 0.7 3.8 -1.8 2.6 -5.2 2.9 -6.1 0.6z"/>
  <path d="M459.2 166 c0.7 -1.1 1.6 -2 2 -2 0.4 0 1.2 0.9 1.8 2 1 1.8 0.8 2 -2 2 -2.8 0 -2.9 -0.2 -1.8 -2z"/>
  <path d="M421 158.5 c0 -3.3 0.2 -3.5 3.5 -3.5 3.3 0 3.5 0.2 3.5 3.5 0 3.3 -0.2 3.5 -3.5 3.5 -3.3 0 -3.5 -0.2 -3.5 -3.5z"/>
 </g>
 <g fill="#6e9bde">
  <path d="M223.3 326.3 c-2.1 -0.8 -1.5 -4.3 0.7 -4.3 1.5 0 2 0.7 2 2.5 0 2.5 -0.4 2.8 -2.7 1.8z"/>
  <path d="M100.2 313.8 c-1.6 -1.6 -1.5 -4.8 0.2 -4.8 1.2 0 2.5 2.8 2.6 5.3 0 1.1 -1.5 0.8 -2.8 -0.5z"/>
  <path d="M228 314 c0 -0.5 -1.3 -1 -3 -1 l-3 0 0 -6.9 c0 -10.8 -1 -16.1 -3 -16.1 -1.4 0 -1.9 -1.2 -2.4 -5.7 -0.6 -4.9 -0.4 -5.9 1.5 -7.9 2 -2.1 2 -2.6 1 -15.1 -0.6 -7 -1.4 -21.7 -1.8 -32.5 -0.6 -18.5 -0.5 -19.8 1.1 -19.8 1.2 0 1.6 -0.5 1.2 -1.5 -0.4 -1 0.1 -1.5 1.4 -1.5 1.3 0 2 0.7 2 2 0 1.2 0.7 2 1.8 2 0.9 0 4.9 0.7 8.8 1.6 l7.1 1.7 0.6 11.1 c0.3 6.1 0.3 11.3 0.1 11.6 -0.3 0.3 -1.1 -0.3 -1.9 -1.3 -1.9 -2.6 -2.2 -0.9 -3.1 14.4 l-0.7 13.2 2.3 -0.6 c2.1 -0.5 2.2 -0.4 1.4 3.1 -0.4 2 -0.8 6.1 -0.9 9.1 -0.1 3.7 -0.6 5.6 -1.7 6.2 -2.1 1.2 -2.7 5.1 -2.9 19.4 -0.1 6.6 -0.3 12.8 -0.6 13.8 -0.5 1.8 -5.3 2.5 -5.3 0.7z"/>
  <path d="M531 295.1 c0 -2.6 -0.4 -3.1 -2.5 -3.1 -2.2 0 -2.5 -0.4 -2.5 -3.7 l0 -3.8 4.5 5 c4.6 5.1 5.3 7.7 2.2 8.3 -1.3 0.3 -1.7 -0.3 -1.7 -2.7z"/>
  <path d="M250.2 270.3 c0.2 -2.1 1.4 -3.4 5.3 -5.5 5.9 -3.2 8.5 -3.5 8.5 -1 0 1 -2.1 2.9 -5.2 4.8 -8.1 4.7 -9 4.9 -8.6 1.7z"/>
  <path d="M321.8 211.3 c-1 -0.2 -1.8 -1.1 -1.8 -1.9 0 -1.1 1.5 -1.4 6 -1.4 4.4 0 6 0.4 6 1.4 0 2.1 -5.5 3.2 -10.2 1.9z"/>
  <path d="M342.8 211.3 c-3.6 -0.9 -2 -3.3 2.2 -3.3 2.9 0 4 0.4 4 1.5 0 0.8 -0.4 1.5 -0.9 1.5 -0.5 0 -1.5 0.2 -2.3 0.4 -0.7 0.2 -2.1 0.2 -3 -0.1z"/>
  <path d="M350 209 c0 -1.3 0.7 -2 2 -2 1.3 0 2 0.7 2 2 0 1.3 -0.7 2 -2 2 -1.3 0 -2 -0.7 -2 -2z"/>
 </g>
 <g fill="#5d93d3">
  <path d="M222.6 315.8 c-1.4 -5.3 -1 -5.8 4.7 -5.8 3 0 5.7 0.3 6 0.7 1.2 1.1 -2.5 4.3 -5.2 4.4 -2.4 0.2 -2.4 0.2 -0.3 0.6 3.4 0.7 2.6 2.3 -1.2 2.3 -2.6 0 -3.5 -0.5 -4 -2.2z"/>
  <path d="M207.7 294 c-1.3 -1.8 -1.5 -1.9 -2.1 -0.5 -0.3 0.9 -1 1.3 -1.6 1 -1.5 -0.9 -1.2 -3.5 0.5 -3.5 0.9 0 1.2 -0.6 0.9 -1.5 -0.5 -1.2 -1 -1.3 -2 -0.5 -1 0.9 -1.1 0.7 -0.2 -1.2 0.7 -1.3 4.4 -4.4 8.4 -7 l7.2 -4.6 0.6 3 c1 5 0.7 10.8 -0.6 10.8 -0.6 0 -2.5 1 -4.2 2.3 -5 3.7 -5.4 3.8 -6.9 1.7z"/>
  <path d="M235 273.8 c0 -8.9 0.6 -10.3 5.6 -13.4 2.4 -1.5 4.6 -3.5 4.9 -4.4 0.3 -0.9 -1.3 -6.9 -3.5 -13.5 -3.2 -9.5 -4 -13.4 -4 -19.1 l0 -7.2 -3.5 -0.6 c-4.3 -0.8 -4.9 -3.6 -0.7 -3.6 3.5 0.1 23.6 4.6 25.1 5.7 0.3 0.2 -0.2 0.9 -1.1 1.6 -1.4 1.1 -1.1 3.3 2.3 20.2 4.9 23.9 4.9 25 -1.3 28.4 -2.5 1.4 -8.4 4.7 -13.1 7.4 -4.6 2.6 -8.9 4.7 -9.6 4.7 -0.7 0 -1.1 -2.2 -1.1 -6.2z"/>
  <path d="M217 214.7 c0 -3.5 0.4 -4.7 1.5 -4.7 0.8 0 1.5 -0.7 1.5 -1.5 0 -2 1.5 -1.9 6.1 0.3 5.1 2.3 5.5 5.8 0.7 4.8 -2.7 -0.5 -3.7 -0.1 -6.5 2.6 l-3.3 3.2 0 -4.7z"/>
 </g>
 <g fill="#eb6669">
  <path d="M172.4 321.4 c0.3 -0.9 0.6 -1.8 0.6 -2 0 -0.2 1.1 -0.4 2.5 -0.4 1.8 0 2.5 0.5 2.5 2 0 1.6 -0.7 2 -3.1 2 -2.4 0 -3 -0.3 -2.5 -1.6z"/>
  <path d="M478 318.5 c0 -2.9 0 -2.9 3.5 -1.3 3.5 1.6 3.2 3.8 -0.5 3.8 -2.5 0 -3 -0.4 -3 -2.5z"/>
  <path d="M168.4 315.5 c-0.9 -2.1 -0.7 -2.3 5.4 -3.1 4.3 -0.5 5.2 -0.4 5.2 0.9 0 1.6 -0.9 2 -6.8 3.2 -2.4 0.5 -3.3 0.3 -3.8 -1z"/>
  <path d="M482.8 312.9 c-3 -1.7 -2 -2.9 2.2 -2.9 4.1 0 4.9 0.7 2.8 2.8 -1.4 1.4 -2.7 1.5 -5 0.1z"/>
  <path d="M531 306.2 c0 -1.8 4.5 -5.1 5.9 -4.3 2.4 1.5 0.8 4.6 -2.7 4.9 -1.7 0.2 -3.2 -0.1 -3.2 -0.6z"/>
  <path d="M94.2 300.8 c-1.6 -1.6 -1.5 -5.8 0.1 -5.8 1.9 0 4.7 3.3 4.7 5.3 0 2 -3 2.3 -4.8 0.5z"/>
  <path d="M100.2 294 c-1.8 -2.9 -1.5 -5 0.8 -5 1.6 0 2 0.7 2 3.5 0 3.9 -0.9 4.4 -2.8 1.5z"/>
  <path d="M424.8 215.3 c-3.3 -0.5 -3.4 -0.9 -0.9 -3.1 6.7 -6 6.6 -27.3 -0.2 -37.3 l-2.3 -3.4 2.7 -2.3 c3.1 -2.5 4.5 -2.8 5.2 -0.8 0.3 0.8 2.7 2.1 5.4 3 2.7 0.9 5.9 2.3 7.1 3.2 2.4 1.7 9 13.9 11.6 21.8 1.7 4.9 1.7 4.9 -0.8 7.5 -3.1 3.3 -15.1 9.8 -19.1 10.4 -1.6 0.3 -3.7 0.7 -4.5 0.9 -0.8 0.3 -2.7 0.3 -4.2 0.1z m16.1 -14.9 c1.8 -1.3 2.2 -2.3 1.7 -4.5 -0.7 -3.7 -3.5 -8.1 -4.7 -7.3 -1.1 0.6 -1.2 13.4 -0.1 13.4 0.4 0 1.8 -0.7 3.1 -1.6z"/>
  <path d="M219.6 207.1 c-0.3 -0.4 -1 -2 -1.5 -3.5 -1 -2.4 -0.8 -2.6 1.4 -2.6 2.2 0 2.5 0.4 2.5 3.5 0 3.3 -1.2 4.6 -2.4 2.6z"/>
  <path d="M310.9 177.3 c-1.1 -1.3 -1.1 -1.7 -0.1 -2 0.6 -0.3 1.2 -1.1 1.2 -1.9 0 -0.8 0.5 -1.4 1 -1.4 0.6 0 1 1.6 1 3.5 0 3.8 -1 4.4 -3.1 1.8z"/>
  <path d="M353.6 175.9 c-1.1 -5.5 -0.7 -8.9 0.9 -8.9 1.5 0 2 1.6 1.6 5.8 -0.1 1.2 0.2 2.2 0.6 2.1 1.9 -0.3 2.3 0.2 1.3 2.1 -1.6 3 -3.7 2.4 -4.4 -1.1z"/>
  <path d="M149.8 173.2 c-1 -0.2 -1.8 -1 -1.8 -1.9 0 -0.8 -0.9 -1.7 -2 -2 -1.1 -0.3 -2 -1 -2 -1.5 0 -0.6 0.9 -0.8 2 -0.5 1 0.3 2.5 -0.2 3.1 -1 1 -1.2 0.7 -1.9 -1.7 -3.9 -1.7 -1.5 -2.2 -2.3 -1.1 -2 1.2 0.4 1.7 0 1.7 -1.4 0 -1.1 -0.3 -2 -0.6 -2 -1.2 0 -3.3 3.5 -3.4 5.5 -0.1 1.9 -0.1 1.9 -1.4 0.2 -1 -1.3 -1.6 -1.5 -2.1 -0.7 -0.4 0.7 -0.2 1.7 0.4 2.3 0.6 0.6 1 2.7 1 4.7 -0.1 1.9 -0.3 2.7 -0.6 1.8 -0.2 -1 -1 -1.8 -1.8 -1.8 -1.8 0 -2.8 -6.3 -1.4 -9.4 0.8 -1.7 2 -2.6 3.6 -2.6 1.6 0 2.3 -0.6 2.3 -2 0 -2.9 4.3 -2.7 6.3 0.3 2.5 3.8 4.3 10.7 3 11.5 -0.6 0.4 -1.3 2.1 -1.5 3.7 -0.2 2.3 -0.7 3 -2 2.7z"/>
  <path d="M335 170 c0 -0.5 0.7 -1 1.5 -1 0.8 0 1.5 -0.4 1.5 -1 0 -0.5 0.9 -1 2 -1 1.3 0 2 0.7 2 2 0 1.6 -0.7 2 -3.5 2 -1.9 0 -3.5 -0.4 -3.5 -1z"/>
  <path d="M312.4 166.5 c-0.3 -2 -0.4 -3.9 -0.1 -4.2 1.1 -1 3.7 2.6 3.7 5.1 0 4 -2.8 3.2 -3.6 -0.9z"/>
  <path d="M353 164.7 c0 -0.7 1 -1.8 2.1 -2.6 1.9 -1.1 2.1 -1.1 1.5 0.4 -0.3 0.9 -0.6 2.1 -0.6 2.6 0 0.5 -0.7 0.9 -1.5 0.9 -0.8 0 -1.5 -0.6 -1.5 -1.3z"/>
  <path d="M332 162.5 c0 -0.8 0.9 -1.5 2 -1.5 2.4 0 2.7 1.5 0.4 2.4 -2.2 0.9 -2.4 0.8 -2.4 -0.9z"/>
  <path d="M506 161 c0 -1.3 0.7 -2 2 -2 1.1 0 2 0.4 2 1 0 0.5 -0.9 1.4 -2 2 -1.7 0.9 -2 0.8 -2 -1z"/>
  <path d="M420 158.5 c0 -3.3 0.2 -3.5 3.5 -3.5 3.3 0 3.5 0.2 3.5 3.5 0 3.3 -0.2 3.5 -3.5 3.5 -3.3 0 -3.5 -0.2 -3.5 -3.5z"/>
  <path d="M328.4 154.7 c0.3 -0.9 0.1 -2.8 -0.4 -4.2 -0.8 -2.1 -0.7 -2.5 1 -2.5 1.1 0 2 -0.5 2 -1.1 0 -0.6 1.9 -0.9 4.8 -0.7 l4.7 0.3 0.2 4.5 c0.1 2.5 0 3.9 -0.3 3.3 -0.8 -1.8 -2.4 -1.6 -2.4 0.2 0 0.8 -0.5 1.5 -1 1.5 -0.6 0 -0.8 -1 -0.4 -2.4 0.3 -1.4 0.1 -3.3 -0.5 -4.3 -0.6 -1 -1.1 -1.2 -1.1 -0.6 0 0.7 -0.3 1.2 -0.7 1.2 -2.4 -0.4 -4.2 0.3 -3.7 1.4 0.2 0.7 -0.3 2.1 -1.2 3.2 -1.3 1.7 -1.5 1.7 -1 0.2z"/>
  <path d="M331 154.8 c0 -0.7 0.5 -2 1 -2.8 0.9 -1.3 1.1 -1.3 2 0 1.6 2.4 1.2 4 -1 4 -1.1 0 -2 -0.6 -2 -1.2z"/>
  <path d="M504.9 153.5 c-0.1 -0.5 -0.1 -1.4 0 -1.9 0.1 -0.5 -0.2 -1.2 -0.6 -1.5 -0.5 -0.3 -1.4 -1.8 -2 -3.2 -1.1 -2.6 -1 -2.7 2.5 -3.3 7.2 -1.2 9.9 -0.8 10.5 1.6 0.8 2.9 -0.2 4.2 -2 2.6 -1.8 -1.4 -7.3 -1.2 -8.8 0.4 -0.7 0.8 -0.6 0.9 0.2 0.4 1.7 -0.9 2.4 0.9 1.4 3.6 -0.6 1.2 -1.1 1.9 -1.2 1.3z"/>
  <path d="M507 152.5 c0 -0.8 0.5 -1.5 1 -1.5 0.6 0 1 0.7 1 1.5 0 0.8 -0.4 1.5 -1 1.5 -0.5 0 -1 -0.7 -1 -1.5z"/>
  <path d="M510.7 151.6 c-0.4 -1.5 -0.6 -3.1 -0.2 -3.4 1 -1 1.6 0.6 1.3 3.5 l-0.3 2.8 -0.8 -2.9z"/>
 </g>
 <g fill="#5b7cbd">
  <path d="M234.8 328.3 c-1.7 -0.4 -2.8 -3.1 -2.6 -6.4 0.1 -1.4 0.8 -1.2 4.5 1 6.6 4 5.4 7.3 -1.9 5.4z"/>
  <path d="M423 328 c0 -0.9 7.9 -6 9.4 -6 0.4 0 0.4 0.5 0 1.2 -0.4 0.7 -0.3 0.8 0.5 0.4 0.6 -0.4 0.9 -1.1 0.6 -1.6 -0.3 -0.5 -0.1 -1.1 0.5 -1.5 0.6 -0.4 1 0.6 1 2.3 0 2.5 -0.6 3.2 -4 4.6 -4.5 1.8 -8 2.1 -8 0.6z"/>
  <path d="M223.2 325.8 c-0.6 -0.7 -0.8 -3.4 -0.5 -6.1 0.4 -3.7 0.9 -4.7 2.2 -4.5 0.9 0.2 1.6 1.1 1.5 2.1 0 0.9 -0.1 3.5 -0.2 5.7 -0.2 4.1 -1.2 5 -3 2.8z"/>
  <path d="M359.8 326.3 c-2.2 -0.5 -2.4 -3.3 -0.3 -3.3 0.8 0 1.5 -0.5 1.5 -1 0 -0.7 0.6 -0.7 1.9 0 1.1 0.5 2.7 0.7 3.5 0.4 0.9 -0.3 1.6 -0.1 1.6 0.5 0 0.6 -0.7 1.1 -1.5 1.1 -0.8 0 -1.5 0.7 -1.5 1.5 0 1.5 -1.7 1.7 -5.2 0.8z"/>
  <path d="M173 325.1 c0 -0.5 -0.3 -1.6 -0.6 -2.4 -0.3 -1 0.3 -2 1.5 -2.7 1.9 -1 2.1 -0.8 2.1 2.5 0 2.4 -0.4 3.5 -1.5 3.5 -0.8 0 -1.5 -0.4 -1.5 -0.9z"/>
  <path d="M188 324.5 c0 -1.6 0.9 -1.9 3.4 -0.9 2 0.8 1.1 2.4 -1.5 2.4 -1 0 -1.9 -0.7 -1.9 -1.5z"/>
  <path d="M388 324.1 c0 -0.6 1.3 -1.7 2.8 -2.5 1.6 -0.8 3.4 -2.2 4.1 -3 2.2 -2.6 3.2 -1.8 2.9 2.2 -0.3 3.7 -0.3 3.7 -5 4 -2.8 0.2 -4.8 -0.1 -4.8 -0.7z"/>
  <path d="M400 323 c0 -1.3 0.7 -2 2 -2 1.3 0 2 0.7 2 2 0 1.3 -0.7 2 -2 2 -1.3 0 -2 -0.7 -2 -2z"/>
  <path d="M320 321 c0 -3.2 2.3 -4.2 3.4 -1.4 1.1 2.9 0.6 4.4 -1.4 4.4 -1.6 0 -2 -0.7 -2 -3z"/>
  <path d="M440 319.5 c0 -4 2.4 -4.9 3.4 -1.2 1 3.7 0.7 4.7 -1.4 4.7 -1.6 0 -2 -0.7 -2 -3.5z"/>
  <path d="M362.6 320.5 c-1.1 -0.8 -1.8 -1.7 -1.5 -1.9 0.2 -0.3 1.5 0.4 2.9 1.4 1.4 1.1 2.1 2 1.5 1.9 -0.5 0 -1.9 -0.6 -2.9 -1.4z"/>
  <path d="M463.6 319.9 c-1.5 -0.9 -1.6 -1.3 -0.5 -2 2.5 -1.6 4.9 -1 4.9 1.1 0 2.2 -1.5 2.5 -4.4 0.9z"/>
  <path d="M529.3 319.3 c-1.8 -0.7 -1.6 -3.8 0.2 -5.3 0.8 -0.7 1.2 -1.6 0.9 -2.1 -0.3 -0.5 0 -0.9 0.7 -0.9 0.9 0 0.9 -0.4 -0.1 -1.5 -1.3 -1.6 -0.6 -3.5 1.4 -3.5 0.7 0 1.6 -1.2 2.2 -2.7 l0.9 -2.6 3 2.6 3 2.6 -3.4 0.1 c-3.3 0 -3.3 0 -2.9 4 0.3 3.3 -0.1 4.7 -2.2 7 -1.4 1.5 -3.1 2.6 -3.7 2.3z"/>
  <path d="M168.7 316.4 c-1.7 -1.7 -0.5 -3.4 2.3 -3.4 2 0 3 0.5 3 1.5 0 0.8 -0.4 1.5 -0.9 1.5 -0.5 0 -1.6 0.2 -2.3 0.5 -0.8 0.3 -1.7 0.2 -2.1 -0.1z"/>
  <path d="M99.7 313.2 c-1.8 -2 -2.3 -7.2 -0.7 -7.2 1.1 0 2.5 2.5 3.4 6.3 0.7 3.1 -0.4 3.5 -2.7 0.9z"/>
  <path d="M522 300.5 l-3.4 -3.5 3.7 0 c2.6 0 3.7 0.4 3.7 1.5 0 0.8 0.7 1.5 1.5 1.5 2 0 1.9 2.6 -0.1 3.4 -0.9 0.3 -1.7 0.6 -1.8 0.6 -0.1 0 -1.7 -1.6 -3.6 -3.5z"/>
  <path d="M91.5 297 c2.2 -2.4 4.1 -2.6 4.9 -0.4 0.9 2.4 0.9 2.4 -3.1 2.4 -3.5 0 -3.6 0 -1.8 -2z"/>
  <path d="M529.7 296.3 c-0.4 -0.3 -0.7 -2.2 -0.7 -4.2 l0.1 -3.6 2.9 3.3 c1.7 1.8 3 3.7 3 4.2 0 1.1 -4.3 1.4 -5.3 0.3z"/>
  <path d="M109 293 c0 -2.5 0.4 -3 2.5 -3 1.6 0 2.5 -0.6 2.5 -1.5 0 -1 1.1 -1.5 3.5 -1.5 1.9 0 3.5 0.3 3.5 0.8 0 0.4 -2.7 2.4 -6 4.4 l-6 3.7 0 -2.9z"/>
  <path d="M172 291.5 c0 -4 2.4 -4.9 3.4 -1.2 1 3.7 0.7 4.7 -1.4 4.7 -1.6 0 -2 -0.7 -2 -3.5z"/>
  <path d="M104.5 284.5 c2.2 -1.9 5.9 -4.9 8.3 -6.5 l4.2 -3.1 0 3 c0 2.4 -0.4 3.1 -2 3.1 -1.1 0 -2 0.7 -2 1.5 0 0.9 -0.9 1.5 -2.5 1.5 -1.8 0 -2.5 0.5 -2.5 2 0 1.7 -0.7 2 -3.7 2 l-3.8 -0.1 4 -3.4z"/>
  <path d="M520 281.4 c0 -3.9 0.9 -3.8 4 0.6 l2.1 3 -3 0 c-2.9 0 -3.1 -0.3 -3.1 -3.6z"/>
  <path d="M121 271.9 c1.9 -1.7 4.7 -3.9 6.3 -5 l2.7 -2 0 3 c0 2.6 -0.4 3.1 -2.5 3.1 -1.8 0 -2.5 0.5 -2.5 2 0 1.7 -0.7 2 -3.7 2 l-3.8 -0.1 3.5 -3z"/>
  <path d="M165 254 c0 -4.5 2.3 -5.7 3.4 -1.7 1.1 4.1 0.7 5.7 -1.4 5.7 -1.7 0 -2 -0.7 -2 -4z"/>
  <path d="M248.3 218.8 c-4.1 -1.3 -4.4 -3.8 -0.5 -3.8 4.7 0 7.2 1.1 7.2 3.1 0 2.1 -1.7 2.3 -6.7 0.7z"/>
  <path d="M234.3 215.4 c-8.8 -1.9 -13.2 -4 -14.2 -6.6 -0.7 -1.8 -0.5 -2.4 1 -2.6 1.7 -0.3 2.5 0.2 6.2 3.4 0.7 0.6 4.7 1.6 9 2.4 6.4 1.1 7.7 1.6 7.7 3.1 0 2.2 -1.1 2.2 -9.7 0.3z"/>
  <path d="M490.5 208.8 c0.1 -1.8 0.6 -6.8 1 -11.1 0.6 -5.8 1.1 -7.7 2 -7.3 2.3 0.9 3.6 -1.8 2 -4.1 -2.1 -3 -10.5 -7.7 -11.6 -6.6 -1.1 1.1 -0.2 4.3 1.2 4.3 0.5 0 0.9 0.4 0.9 0.8 0 1.3 -5.5 4.1 -10.5 5.2 -6.6 1.5 -8.6 -0.1 -14 -11.2 -4.5 -9.2 -4.7 -10.8 -1.2 -13.6 1.2 -1 2.3 0.2 6.2 6.3 2.6 4.1 5.1 7.7 5.5 8 0.4 0.3 4.8 -1.7 9.6 -4.5 8.6 -4.7 17.3 -7.6 20 -6.6 0.7 0.3 1.5 0 1.8 -0.7 0.2 -0.7 0.5 -0.4 0.5 0.5 0.1 2.1 3.6 4.2 5.4 3.2 0.6 -0.4 2.2 -1.6 3.4 -2.7 2.2 -2 2.2 -2 7.8 0.3 7.9 3.2 8.3 4.7 5.1 15.6 -1.4 4.9 -2.6 11.2 -2.6 14 0 7.8 -1.2 8.7 -10.1 8.2 -4.1 -0.3 -8.2 -0.8 -9.1 -1.2 -1.3 -0.6 -1.7 -0.1 -2 2.6 -0.3 3.3 -0.3 3.3 -6 3.6 l-5.7 0.3 0.4 -3.3z"/>
  <path d="M348 209.1 c0 -1.7 0.6 -2.1 3.1 -2.1 2.4 0 3 0.4 2.7 1.8 -0.2 1 -1.4 1.8 -3.1 2 -2.2 0.3 -2.7 -0.1 -2.7 -1.7z"/>
 </g>
 <g fill="#645daa">
  <path d="M423.5 328.1 c-0.9 -1.5 3.1 -3.2 9.1 -3.8 4.5 -0.5 5.4 -0.3 5.4 1 0 1.6 -0.6 1.7 -10.7 3.3 -1.7 0.2 -3.4 0 -3.8 -0.5z"/>
  <path d="M227 327 c-2.4 -0.3 -3.6 -1.1 -3.8 -2.4 -0.4 -1.7 0 -1.8 3.2 -1.3 3.3 0.5 3.6 0.4 3.6 -1.9 0 -1.6 0.5 -2.4 1.3 -2.1 0.6 0.2 1.1 1 1 1.6 -0.2 0.6 0.3 1 1 0.9 0.6 -0.2 1.1 0.2 1 0.9 -0.2 0.7 0.4 1 1.2 0.7 1.4 -0.6 7.5 2.5 7.5 3.8 0 0.8 -10.5 0.7 -16 -0.2z"/>
  <path d="M307.3 325.5 c1.5 -1.4 3.5 -2.5 4.2 -2.5 0.8 0 2.2 -1.1 3.1 -2.5 2.4 -3.7 7.9 -3.6 8.8 0.1 0.9 3.5 -0.2 4.5 -6 5.1 -2.7 0.2 -5 0.9 -5.2 1.4 -0.2 0.5 -2 0.9 -4 0.9 l-3.7 -0.1 2.8 -2.4z"/>
  <path d="M364 327.3 c-1.9 -0.8 -3 -2.3 -3 -4.6 0 -1.5 0.3 -1.6 2.1 -0.7 1.1 0.7 2.3 1 2.5 0.7 0.2 -0.2 -0.7 -1 -2.1 -1.7 -1.4 -0.7 -2.5 -1.7 -2.5 -2.1 0 -0.6 6.4 3.1 9.9 5.7 0.2 0.2 -0.4 1 -1.2 1.9 -1.6 1.5 -3.1 1.8 -5.7 0.8z"/>
  <path d="M180 325.1 c0 -1.2 -0.7 -2.1 -1.5 -2.1 -0.8 0 -1.5 -0.9 -1.5 -2 0 -2.7 3.6 -2.7 4.3 0 0.4 1.6 1.3 2 4.4 1.8 2.2 0 4.8 0.4 5.8 0.9 1.8 1 1.8 1.1 -0.1 1.6 -1 0.3 -4 0.8 -6.6 1.2 -4.4 0.6 -4.8 0.4 -4.8 -1.4z"/>
  <path d="M384.9 325.1 c1.3 -1.2 3.3 -2.1 4.5 -2.1 1.1 0 4.5 -0.3 7.4 -0.6 4.3 -0.6 5.2 -0.4 5.2 0.8 0 2 -2.5 2.7 -12 3.4 l-7.5 0.5 2.4 -2z"/>
  <path d="M440 321.5 c0 -5.6 2.6 -6.4 3.6 -1.1 0.7 3.9 0 5.6 -2.2 5.6 -1 0 -1.4 -1.2 -1.4 -4.5z"/>
  <path d="M354.7 324.3 c-1.5 -1.5 -0.7 -4.3 1.3 -4.3 1.5 0 2 0.7 2 2.5 0 2.4 -1.8 3.4 -3.3 1.8z"/>
  <path d="M470.6 322.5 c-8.6 -3 -9.8 -4.1 -5.6 -5 2.3 -0.5 3.5 -0.3 4.1 0.6 0.7 1.2 0.9 1.2 0.9 0 0 -1.1 0.3 -1.1 1.6 0 1.2 1 2 1 3.5 0.1 1.6 -1.1 1.9 -0.9 1.9 0.8 0 1.1 0.7 2 1.5 2 0.8 0 1.5 -0.4 1.5 -1 0 -0.5 0.9 -1 2 -1 2 0 2.5 1.5 1.4 4.4 -0.8 2.2 -4.6 1.9 -12.8 -0.9z"/>
  <path d="M528.3 320.2 c-0.8 -0.5 -0.8 -1.5 0.2 -4 0.8 -1.8 1.3 -3.4 1.2 -3.5 -0.4 -0.6 3.1 -3.7 4.2 -3.7 0.5 0 1.1 -1.8 1.3 -4 l0.3 -4 2.9 2.4 3 2.3 -5.8 7.7 c-3.1 4.2 -5.8 7.6 -5.9 7.6 -0.1 0 -0.7 -0.4 -1.4 -0.8z"/>
  <path d="M168 314.1 c0 -1.7 0.6 -2.1 3.5 -2.1 2.8 0 3.5 -0.4 3.5 -2 0 -3.2 2.8 -2.3 3.5 1.1 0.4 1.7 0.4 3.3 0.1 3.6 -0.3 0.3 -2.8 0.8 -5.6 1.1 -4.6 0.4 -5 0.3 -5 -1.7z"/>
  <path d="M97.7 310.6 c-2 -2.4 -4.6 -6 -5.8 -8.1 l-2.3 -3.8 2.3 -1.8 c3.1 -2.5 4.1 -2.4 4.1 0.6 0 1.6 0.6 2.5 1.6 2.5 1 0 1.4 0.6 1.1 1.4 -0.3 0.8 -0.1 1.7 0.6 2 0.8 0.3 0.7 0.5 -0.2 0.5 -1.2 0.1 -1.1 0.4 0.1 1.9 1.8 2 4 9.2 2.8 9.2 -0.4 0 -2.4 -2 -4.3 -4.4z"/>
  <path d="M101 294.8 c-1.1 -1.8 -2 -3.9 -2 -4.5 0 -0.7 4.6 -4.9 10.3 -9.3 5.6 -4.4 12.8 -10.1 16 -12.5 l5.7 -4.6 0 -20.5 c0 -11.6 0.5 -22.4 1.1 -24.9 l1.1 -4.4 11.2 0.2 c6.1 0.1 12.3 -0.1 13.7 -0.5 2.1 -0.6 2.8 -0.4 3.2 1.1 0.5 2.1 -1.6 3.1 -6.5 3.1 -2.7 0 -2.8 0.1 -2.8 5.8 0 5.8 -1.7 18.2 -2.6 19.1 -0.3 0.3 -0.9 -0.1 -1.4 -0.9 -1.1 -1.8 -1.8 2.5 -2.4 17 l-0.5 11.5 -4.8 4.2 c-2.6 2.3 -8.4 6.6 -13 9.5 -4.6 2.9 -11.4 7.2 -15.1 9.6 -3.6 2.3 -7.2 4.2 -7.9 4.2 -0.7 0 -2.2 -1.5 -3.3 -3.2z"/>
  <path d="M171.6 292.9 c-1 -5.1 -0.7 -7.9 0.8 -7.9 0.8 0 1.8 1.9 2.5 4.4 1.5 6 1.4 6.6 -0.8 6.6 -1.3 0 -2 -1 -2.5 -3.1z"/>
  <path d="M518 280 c0 -3.4 1 -3.8 3.2 -1.2 3.1 3.5 3 4.2 -0.1 4.2 -2.8 0 -3.1 -0.3 -3.1 -3z"/>
  <path d="M168.7 280.3 c-0.4 -0.3 -0.7 -3 -0.7 -6 0 -7.2 2.4 -7.3 3.9 -0.3 0.6 2.8 1.1 5.5 1.1 6 0 1.1 -3.3 1.3 -4.3 0.3z"/>
  <path d="M165 257.5 c0 -4.1 0.4 -5.5 1.5 -5.5 0.9 0 1.6 1.4 2 3.8 0.4 2 0.9 4.5 1.2 5.5 0.3 1.3 -0.2 1.7 -2.1 1.7 -2.5 0 -2.6 -0.3 -2.6 -5.5z"/>
  <path d="M249.3 218.8 c-4.1 -1.3 -4.4 -3.8 -0.5 -3.8 4.7 0 7.2 1.1 7.2 3.1 0 2.1 -1.7 2.3 -6.7 0.7z"/>
  <path d="M234 215.1 c-7.9 -1.8 -10 -2.6 -10 -4.2 0 -1.3 3.1 -1.1 12.6 0.8 6.7 1.4 8.4 2.1 8.4 3.5 0 2.2 -1.2 2.2 -11 -0.1z"/>
  <path d="M318 209 c0 -1.3 0.7 -2 2 -2 1.3 0 2 0.7 2 2 0 1.3 -0.7 2 -2 2 -1.3 0 -2 -0.7 -2 -2z"/>
  <path d="M347 209 c0 -1.6 0.7 -2 3.5 -2 4 0 4.9 2.4 1.3 3.4 -3.8 1 -4.8 0.7 -4.8 -1.4z"/>
  <path d="M488.1 180.7 c-1.2 -1.5 -0.5 -2.7 1.6 -2.7 0.7 0 1.3 0.9 1.3 2 0 2.3 -1.3 2.6 -2.9 0.7z"/>
  <path d="M311.1 177.6 c-0.7 -0.8 -0.8 -1.7 -0.3 -2 0.5 -0.3 1.2 -2.4 1.6 -4.6 0.9 -5.8 3.6 -5.5 3.6 0.4 0 7.2 -2 9.7 -4.9 6.2z"/>
  <path d="M353 175.5 c0 -4.2 2 -4.6 3.7 -0.9 1.5 3.1 0.9 4.4 -1.8 4.4 -1.5 0 -1.9 -0.7 -1.9 -3.5z"/>
  <path d="M330.1 169.8 c0 -1.8 0.3 -2.7 0.6 -2 0.6 1.4 6.9 1.6 7.8 0.2 1.2 -1.9 3.5 -1 3.5 1.4 0 2.8 -1.6 3.6 -7.6 3.6 -4.3 0 -4.4 -0.1 -4.3 -3.2z"/>
  <path d="M313 163.9 c0 -1.8 0.2 -1.9 1.5 -0.5 0.8 0.8 1.5 1.7 1.5 2 0 0.3 -0.7 0.6 -1.5 0.6 -0.9 0 -1.5 -0.9 -1.5 -2.1z"/>
 </g>
 <g fill="#4f6cb0">
  <path d="M389 323.5 c0 -0.8 0.7 -1.6 1.5 -1.6 0.8 -0.1 2.1 -0.2 2.8 -0.3 0.6 0 1.2 -0.8 1.2 -1.6 0 -0.8 0.8 -1.6 1.8 -1.8 1.4 -0.3 1.7 0.4 1.7 3.2 0 3.6 0 3.6 -4.5 3.6 -3.3 0 -4.5 -0.4 -4.5 -1.5z"/>
  <path d="M522.8 301 l-3.2 -3 3.4 0 c3.2 0.1 7 1.9 7 3.3 0 0.4 -0.9 1.1 -1.9 1.7 -1.6 0.8 -2.6 0.4 -5.3 -2z"/>
  <path d="M531 297.7 c0 -1.7 -0.5 -2.7 -1.5 -2.7 -0.8 0 -1.5 -0.8 -1.5 -1.8 0 -0.9 -1 -2.2 -2.2 -2.7 -1.4 -0.6 -2.4 -2.1 -2.6 -3.7 -0.2 -1.7 -0.9 -2.8 -1.8 -2.8 -2.5 0 -4.4 -2.6 -4.4 -6.1 l0 -3.2 4.6 4.9 c2.5 2.7 6.6 7.5 9.1 10.7 l4.6 5.9 -2.2 2.1 -2.1 2.1 0 -2.7z"/>
  <path d="M243.8 217.3 c-3.3 -0.8 -2 -3.3 1.7 -3.3 2.8 0 3.5 0.4 3.5 2 0 2 -1.4 2.3 -5.2 1.3z"/>
  <path d="M517 212.8 c-1.5 -0.6 -7.2 -0.8 -14.8 -0.4 -11.3 0.5 -12.3 0.4 -12 -1.2 0.2 -1.2 1.5 -1.9 4.3 -2.2 3.6 -0.4 4 -0.8 4.3 -3.5 0.2 -2 -0.6 -4.4 -2.2 -6.8 -3 -4.4 -2.3 -4.7 2.5 -1.1 5.1 3.9 10.9 6.4 15.2 6.4 3.6 0 4 -0.3 5.4 -4 0.9 -2.2 2 -4 2.5 -4 0.5 0 0.8 4.1 0.7 9 -0.2 9.7 -0.4 10.1 -5.9 7.8z"/>
  <path d="M510 193.3 c-1.4 -0.9 -2.6 -1.7 -2.7 -1.8 -0.1 0 1.3 -3.2 3.2 -7 3.8 -7.8 4.1 -7.7 2.1 1 -1 3.9 -1.1 6.5 -0.5 7.7 1.2 2.2 1 2.2 -2.1 0.1z"/>
  <path d="M488.5 180.6 c-1.8 -1.3 -1.8 -1.4 0.3 -2.5 2 -1.1 2.2 -0.9 2.2 1.4 0 2.9 0 2.9 -2.5 1.1z"/>
 </g>
 <g fill="#5957a2">
  <path d="M389 324 c0 -1.6 0.7 -2 3.1 -2 2.4 0 3 -0.4 2.5 -1.5 -0.3 -0.9 0 -1.5 0.9 -1.5 1 0 1.5 1.1 1.5 3.5 0 3.4 -0.1 3.5 -4 3.5 -3.3 0 -4 -0.3 -4 -2z"/>
  <path d="M168.6 314.9 c-1.6 -4.9 -8.3 -29.4 -12.6 -45.9 -2.7 -10.7 -5.9 -21.8 -7.1 -24.6 -1.8 -4.5 -1.9 -5.8 -1 -11.5 0.6 -3.5 1.1 -8.9 1.1 -12 l0 -5.6 5.6 -0.7 c3.1 -0.4 5.9 -0.4 6.2 -0.2 1 1.1 8.3 43.6 7.6 44.7 -0.2 0.4 0 1 0.5 1.3 0.7 0.5 1.8 6.3 2.6 14.1 0.2 1.1 0.5 2.7 0.8 3.5 0.6 1.6 5.3 26.2 6.1 32.2 0.5 4.3 0.4 4.5 -5.2 5.4 -3.1 0.5 -4.3 0.3 -4.6 -0.7z"/>
  <path d="M198 298.5 c0 -3.2 0.2 -3.5 3 -3.5 3.3 0 3.8 1.1 1.5 3 -0.8 0.7 -1.5 1.9 -1.5 2.6 0 0.8 -0.7 1.4 -1.5 1.4 -1 0 -1.5 -1.1 -1.5 -3.5z"/>
  <path d="M516.5 213 c-1.1 -0.5 -3.2 -0.9 -4.7 -0.9 -3.5 -0.1 -3.7 -2.6 -0.5 -3.5 3.5 -0.8 11 1.6 11.3 3.7 0.2 1.9 -2.6 2.2 -6.1 0.7z"/>
  <path d="M492 211.6 c0 -0.7 1 -1.6 2.3 -2 4.1 -1.1 5.7 -0.7 5.7 1.4 0 1.7 -0.7 2 -4 2 -2.7 0 -4 -0.4 -4 -1.4z"/>
  <path d="M318.4 209.5 c-0.3 -0.8 -0.2 -6.7 0.3 -13.1 0.9 -12.8 1.1 -12.1 -5.3 -17 -2.9 -2.3 -3.2 -2.8 -1.9 -4.1 1 -0.9 1.5 -3.4 1.5 -6.8 l0 -5.4 3.9 1.4 c2.2 0.7 6.1 1.7 8.7 2.1 2.7 0.4 5.4 1.3 6.2 2 1.7 1.8 4.7 1.8 6.4 0 0.8 -0.7 3.4 -1.6 5.9 -2 2.5 -0.4 6.2 -1.6 8.2 -2.6 l3.7 -2 0 6.9 c0 4.6 0.4 7.1 1.3 7.5 0.8 0.3 -0.1 1.7 -2.6 3.9 l-3.7 3.4 1 9.6 c0.8 6.9 0.8 10.2 0 11.7 -0.7 1.3 -0.7 2 0 2 2 0 1 2.8 -1.2 3.4 -1.3 0.3 -9 0.6 -17.1 0.6 -12.1 0 -14.9 -0.3 -15.3 -1.5z"/>
 </g>
 <g fill="#44468e">
  <path d="M494 211.6 c0 -1.3 2.8 -2.6 5.8 -2.6 0.6 0 1.2 0.9 1.2 2 0 1.6 -0.7 2 -3.5 2 -2.3 0 -3.5 -0.5 -3.5 -1.4z"/>
  <path d="M344 210.1 c0 -0.6 0.4 -1.1 0.8 -1.1 1.1 0 4.9 -8.6 5.7 -12.8 0.4 -1.8 0.8 -3.2 1 -3 0.4 0.4 2.6 16 2.3 16.4 -0.2 0.1 -2.4 0.5 -5 0.9 -3.3 0.5 -4.8 0.4 -4.8 -0.4z"/>
  <path d="M330.4 169.6 c-1 -0.8 -1.6 -1.8 -1.2 -2.1 0.4 -0.4 1.4 0 2.3 0.9 2.1 2 4.9 2.1 6.9 0 0.9 -0.8 1.6 -1.1 1.6 -0.5 0 1.3 -3.3 3.1 -5.7 3.1 -1.1 0 -2.8 -0.6 -3.9 -1.4z"/>
 </g>
 <g fill="#873a38">
  <path d="M173 321.6 c0 -1.4 2.1 -2.6 4.6 -2.6 0.8 0 1.4 0.9 1.4 2 0 1.6 -0.7 2 -3 2 -1.9 0 -3 -0.5 -3 -1.4z"/>
  <path d="M223.2 318.8 c0.3 -3 0.6 -3.3 3.3 -3 3.7 0.4 4.4 1 2.5 2.3 -1.3 0.9 -1.2 1 0.2 0.6 0.9 -0.3 2.1 0 2.8 0.7 1.3 1.7 -0.7 2.6 -5.6 2.6 -3.4 0 -3.5 -0.1 -3.2 -3.2z"/>
  <path d="M318 321 c0 -0.5 -0.7 -1 -1.5 -1 -1.2 0 -1.3 -0.4 -0.5 -1.9 0.8 -1.7 1.4 -1.8 4 -0.8 3.8 1.4 4.1 4.7 0.5 4.7 -1.4 0 -2.5 -0.4 -2.5 -1z"/>
  <path d="M354 320 c0 -1.3 0.7 -2 2 -2 1.1 0 2 -0.4 2 -1 0 -0.5 0.5 -1 1 -1 0.6 0 1 1.4 1 3 0 2.7 -0.3 3 -3 3 -2.3 0 -3 -0.4 -3 -2z"/>
  <path d="M435.2 319.1 c3 -3.9 7.8 -4.3 7.8 -0.7 0 2.7 -1.6 3.6 -6.7 3.6 l-3.5 0 2.4 -2.9z"/>
  <path d="M480 321 c0 -0.5 -0.9 -1 -2 -1 -2.1 0 -2.8 -2.4 -1 -3.5 0.6 -0.4 2.4 -0.1 4 0.7 3.4 1.5 4.1 4.8 1 4.8 -1.1 0 -2 -0.4 -2 -1z"/>
  <path d="M394.7 320.2 c-1 -1.5 3.2 -5.2 6 -5.2 2.4 0 2.8 0.4 2.9 3 0.1 2.9 -0.1 3 -4.2 3 -2.3 0 -4.5 -0.3 -4.7 -0.8z"/>
  <path d="M484.8 313.2 c-3.1 -0.6 -2.1 -3.2 1.2 -3.2 1.7 0 3 0.4 3 0.9 0 1.4 -2.4 2.8 -4.2 2.3z"/>
  <path d="M530 308.1 c0 -0.6 1.4 -2.4 3.1 -4.2 l3 -3.1 -0.3 3.8 c-0.3 3.4 -0.6 3.9 -3 4.2 -1.6 0.2 -2.8 -0.1 -2.8 -0.7z"/>
  <path d="M527 300.1 c0 -3.6 2 -5.3 5.6 -4.9 l2.8 0.3 -3.3 3.8 c-4 4.5 -5.1 4.6 -5.1 0.8z"/>
  <path d="M92 298.1 c0 -1 2.9 -3.6 3.3 -3 0.1 0.2 0.9 1.2 1.6 2.2 1.2 1.5 1 1.7 -1.8 1.7 -1.7 0 -3.1 -0.4 -3.1 -0.9z"/>
  <path d="M200.1 296.1 c-1.8 -3.2 -1.3 -5.5 1.5 -6.8 2.2 -1 2.4 -1 1.4 0.3 -1 1.1 -0.8 1.4 1 1.4 1.5 0 2 0.5 1.8 1.8 -0.2 0.9 -0.9 1.6 -1.5 1.5 -0.6 -0.1 -1 0.5 -0.9 1.4 0.2 2.4 -2.1 2.7 -3.3 0.4z"/>
  <path d="M381.4 228 c-1.2 -0.5 -2.5 -1.3 -2.9 -1.9 -0.8 -1.4 -0.4 -1.4 3.5 0.3 3.5 1.4 2.9 2.9 -0.6 1.6z"/>
  <path d="M252.9 219.5 c-0.3 -0.3 -6.4 -1.9 -13.6 -3.5 -7.1 -1.6 -14.1 -3.4 -15.6 -4.1 -2 -0.9 -3.5 -3.4 -6.5 -11.1 -3.7 -9.2 -3.8 -9.9 -2.1 -10.8 1 -0.6 3.1 -1 4.8 -1 3.4 0 5 1.9 7.2 8.4 2.2 6.2 13.4 12.6 27.3 15.7 5.9 1.3 9.4 3.5 7.9 4.9 -1.1 1 -8.7 2.3 -9.4 1.5z"/>
  <path d="M418.2 217.3 c0.2 -1 2.9 -3.1 6.1 -4.7 4.9 -2.4 6 -2.7 6.8 -1.5 1.4 2.3 1.2 2.5 -4.6 5.3 -6.5 3.1 -8.8 3.3 -8.3 0.9z"/>
  <path d="M289.5 174.5 c-1.1 -1.9 -1.7 -3.7 -1.3 -4 0.3 -0.3 1.3 1.1 2.3 3 2.2 4.7 1.4 5.6 -1 1z"/>
  <path d="M137.5 168.4 c-0.8 -6.9 0.6 -10.8 4.6 -12.6 1.6 -0.7 2.9 -1.6 2.9 -2 0 -0.5 0.8 -0.8 1.9 -0.8 2.2 0 4.2 2.8 6.3 9.1 1.8 5.2 0.7 7.9 -3.1 7.9 -2.6 0 -2.6 -0.6 -0.1 -4.8 2.1 -3.4 1.9 -5.2 -0.5 -5.2 -0.8 0 -1.2 -0.6 -0.9 -1.4 0.8 -2.2 -1.4 -2.9 -2.5 -0.7 -0.6 1 -2.2 2.2 -3.7 2.5 -2.1 0.6 -2.5 1.1 -1.9 2.9 1.8 5.6 1.7 8.5 -0.3 9.6 -1.8 1 -2 0.6 -2.7 -4.5z"/>
  <path d="M422.1 172.6 c-0.6 -0.7 -0.8 -2.6 -0.5 -4.4 0.5 -2.7 0.2 -3.2 -2.5 -4.6 -3.6 -1.9 -3.9 -4.1 -1.6 -10.7 1.8 -5 4.1 -7.9 6.4 -7.9 2.5 0.1 8.2 5.8 9.2 9.3 1.5 5.4 1.1 7.6 -1.7 8.9 -1.9 0.9 -2.4 1.8 -2.2 3.9 0.3 2.8 -2.5 6.9 -4.7 6.9 -0.7 0 -1.8 -0.6 -2.4 -1.4z"/>
  <path d="M226.3 166.9 c-0.6 -0.6 -0.9 -2.7 -0.6 -4.7 0.4 -2.9 -0.1 -4.6 -2.2 -7.6 -2 -2.9 -2.5 -4.8 -2.3 -8 l0.3 -4.1 5.7 -0.3 5.7 -0.3 0.9 3.5 c0.8 2.6 0.6 4.6 -0.5 7.8 -0.8 2.4 -1.3 5.7 -1 7.3 0.3 2 -0.1 3.8 -1.3 5.3 -2 2.5 -3.1 2.7 -4.7 1.1z"/>
  <path d="M328.7 152.6 c-0.4 -1 -0.5 -2.1 -0.2 -2.4 0.9 -0.9 1.7 0.6 1.3 2.5 -0.3 1.7 -0.4 1.7 -1.1 -0.1z"/>
  <path d="M340 152.4 c0 -1.4 -0.2 -1.5 -1.7 -0.3 -1.4 1.2 -1.5 1.2 -1.1 -0.1 0.3 -0.8 -0.1 -2.3 -1 -3.2 -1.4 -1.7 -1.3 -1.8 1.6 -1.8 3 0 3.2 0.2 3.2 3.5 0 1.9 -0.2 3.5 -0.5 3.5 -0.3 0 -0.5 -0.7 -0.5 -1.6z"/>
  <path d="M513.4 147.3 c-0.8 -1.3 -1.7 -1.4 -5.7 -0.5 -4.1 0.8 -4.9 0.7 -5.7 -0.8 -1.4 -2.7 -0.1 -5.9 2.3 -5.6 5.8 0.6 10.5 2.7 11.1 4.8 0.7 2.8 -0.6 4.3 -2 2.1z"/>
 </g>
 <g fill="#474468">
  <path d="M233 327.9 c-10.3 -1.7 -10 -1.4 -10 -6.5 0 -4.2 0.1 -4.4 2.1 -3.3 1.2 0.6 2.9 0.9 3.9 0.6 1.1 -0.3 2.6 0.4 3.7 1.6 1.2 1.4 1.3 1.8 0.3 1.2 -1.3 -0.8 -1.3 -0.7 -0.1 0.8 0.8 1 1.9 1.6 2.5 1.4 1.3 -0.5 8.2 2.8 9.1 4.3 0.7 1.2 -3.6 1.1 -11.5 -0.1z"/>
  <path d="M307 326 c2 -1.8 4.6 -3 6.2 -3 1.5 0 3 -0.5 3.4 -1.2 0.4 -0.7 0.3 -0.8 -0.4 -0.4 -1.3 0.8 -1.5 -0.4 -0.6 -2.8 0.7 -1.9 3.3 -2 5.6 -0.3 1.6 1.2 2.2 2.9 1.9 5.4 -0.1 1.5 -12.1 5.3 -16.5 5.3 l-3.1 -0.1 3.5 -2.9z"/>
  <path d="M361 326.3 c-3 -0.8 -5.8 -2 -6.2 -2.6 -1.3 -2 -0.9 -4.7 0.7 -4.7 0.7 0 1.8 -0.8 2.4 -1.7 0.9 -1.7 1.2 -1.6 3.7 0.9 l2.8 2.7 -2.5 -0.5 c-2.2 -0.5 -2.2 -0.4 0.4 1.1 1.6 0.9 3.1 1.4 3.4 1.1 0.7 -0.7 5.6 1.9 7.2 3.8 1.2 1.4 0.9 1.6 -2.5 1.5 -2.2 -0.1 -6.4 -0.8 -9.4 -1.6z"/>
  <path d="M423 327.7 c0 -1 7.8 -4.7 9.2 -4.5 0.7 0.2 1.2 -0.2 1.1 -0.9 -0.3 -1.7 1.8 -3 6 -3.8 3.3 -0.6 3.7 -0.5 3.7 1.3 0 1.3 -0.8 2.2 -2.2 2.5 l-2.3 0.4 2.3 0.2 c1.2 0 2.2 0.7 2.2 1.5 0 0.7 -1 1.6 -2.2 2 -3.6 0.9 -17.8 2 -17.8 1.3z"/>
  <path d="M173.8 326.4 c-0.5 -0.4 -0.8 -2 -0.8 -3.5 0 -2.3 0.5 -2.9 3.2 -3.4 2.6 -0.6 3.5 -0.4 4.6 1.4 1.4 2 3.9 3.1 2.7 1.1 -0.3 -0.5 1.6 -0.3 4.2 0.5 2.6 0.8 5 1.5 5.3 1.6 0.3 0 -0.5 0.4 -1.7 0.9 -3.1 1.3 -16.6 2.4 -17.5 1.4z"/>
  <path d="M383 326.6 c0 -1.2 7.1 -4.6 9.1 -4.4 1.8 0.2 2.4 -0.2 2.4 -1.7 0 -2.7 4.1 -3.4 4.8 -0.8 0.4 1.7 0.5 1.7 0.6 0 0.2 -3.3 3.6 -1.6 3.6 1.8 0 2.9 -0.2 3 -6.5 4.2 -6.5 1.2 -14 1.7 -14 0.9z"/>
  <path d="M471.1 322.5 c-9.4 -3 -10.5 -4.1 -5.1 -5 3.2 -0.5 4.6 -0.3 5.8 0.9 1.5 1.4 1.8 1.4 3.8 -0.5 2.1 -2 2.3 -2 5.4 -0.4 2.5 1.3 3.1 2.1 2.6 3.8 -0.3 1.2 -0.6 2.5 -0.6 3 0 1.3 -4.3 0.7 -11.9 -1.8z"/>
  <path d="M527 321.8 c0 -2.3 2.2 -7 4 -8.5 1.3 -1.1 1.3 -1.2 0 -1.3 -1.3 0 -1.3 -0.1 0 -1 1.3 -0.9 1.3 -1.1 0.1 -1.9 -1.2 -0.8 -0.9 -1.6 1.6 -4.4 l3 -3.4 2.6 2.1 2.7 2.2 -3.4 4.9 c-5.2 7.6 -10.5 13.3 -10.6 11.3z"/>
  <path d="M97.3 309.8 c-7.6 -10 -7.7 -10.3 -5.2 -12.7 l2.3 -2.1 2.3 2.2 c1.8 1.7 2.2 2.9 1.9 5.4 -0.4 2.2 -0.1 3.4 0.9 3.7 1.3 0.6 3.2 7.3 2.3 8.3 -0.3 0.2 -2.3 -1.9 -4.5 -4.8z"/>
  <path d="M200.7 312 c-0.3 -0.8 -1.9 -5.6 -3.5 -10.7 l-3 -9.2 3 -1 c4.3 -1.5 4.5 -1.5 5.7 2.1 1 2.7 0.9 3.5 -0.4 4.4 -1.7 1.3 -2 5.1 -0.4 5.6 0.7 0.2 0.7 1.9 0.1 5.3 -0.5 2.8 -1.2 4.3 -1.5 3.5z"/>
  <path d="M480.8 311.9 c-2.9 -1.6 -2.1 -2.9 1.7 -2.9 2.8 0 3.5 0.4 3.5 2 0 2.2 -2.4 2.6 -5.2 0.9z"/>
  <path d="M525.2 300.8 c0.2 -1.5 1.1 -2.4 2.6 -2.6 1.4 -0.2 2.2 -1 2.2 -2.3 0 -1.2 0.7 -1.9 1.9 -1.9 3.3 0 3.2 1.5 -0.3 5.3 -3.9 4.3 -6.9 4.9 -6.4 1.5z"/>
  <path d="M516.3 213.7 c-3.6 -1.2 -4.7 -4.7 -1.4 -4.7 3.7 0 7.9 2.1 7.7 3.8 -0.3 2.1 -2 2.3 -6.3 0.9z"/>
  <path d="M495 211.6 c0 -0.7 1 -1.6 2.3 -2 4.1 -1.1 5.7 -0.7 5.7 1.4 0 1.7 -0.7 2 -4 2 -2.7 0 -4 -0.4 -4 -1.4z"/>
  <path d="M131 174.5 c0 -2.1 0.5 -2.5 2.9 -2.5 2.2 0 3 -0.6 3.5 -2.5 0.7 -2.9 4.6 -3.6 4.6 -0.7 0 3.1 -2 4.7 -8.4 7.2 -2.4 0.9 -2.6 0.7 -2.6 -1.5z"/>
  <path d="M149.8 172.9 c-2.2 -1.2 -2.3 -3.7 -0.3 -6.3 2 -2.6 2.7 -1.6 2.3 3.2 -0.3 3.6 -0.5 3.9 -2 3.1z"/>
  <path d="M338.1 150.3 c-1.8 -1.7 -2.8 -2 -4.2 -1.3 -2.3 1.3 -3.9 1.3 -3.9 0 0 -0.5 0.9 -1 2 -1 1.1 0 2 -0.4 2 -1 0 -0.5 1.4 -1 3 -1 3.2 0 4.4 1.5 3.8 4.7 -0.3 1.7 -0.5 1.6 -2.7 -0.4z"/>
 </g>
 <g fill="#475059">
  <path d="M480.2 311.5 c-1.8 -0.8 -3.1 -1.8 -2.8 -2.3 0.4 -0.6 5.1 -22.3 8.6 -39.7 0.4 -2.2 1.1 -8 1.4 -13 0.4 -5.6 1.9 -13.3 4 -20.5 1.9 -6.3 3.9 -14.7 4.6 -18.7 1.3 -8.2 1.4 -8.3 12.8 -8.3 6.6 0 7.3 0.2 8.2 2.2 0.7 1.8 0.9 1.9 0.9 0.6 0.1 -2.2 1.5 -2.3 3.5 -0.3 1.7 1.8 1.1 4.5 -1 4.5 -1.8 0 -1.8 2 0 4.5 1.2 1.8 1 2.9 -1.6 9.5 -1.6 4.1 -4.9 11.7 -7.4 16.8 -4.9 10.2 -6.2 14.6 -4.6 16.4 0.7 0.9 0.2 3.7 -1.8 9.6 -1.5 4.6 -3.1 7.9 -3.5 7.3 -1.3 -2.3 -2.2 -0.8 -5.4 9.2 -6.9 21.7 -7.6 23.2 -10.2 23.4 -1.3 0.2 -3.9 -0.4 -5.7 -1.2z"/>
  <path d="M519.5 297.5 l-5 -5 2.9 -0.3 c4 -0.5 7.9 3.4 7.4 7.4 l-0.3 2.9 -5 -5z"/>
  <path d="M531 296.7 c0 -1.9 -0.6 -2.6 -2.2 -2.9 -1.6 -0.2 -2.4 -1.1 -2.6 -3 -0.2 -1.9 -1 -2.8 -2.5 -3 -1.7 -0.2 -2.3 -1.1 -2.5 -3.5 -0.3 -2.7 -0.7 -3.3 -2.8 -3.3 -2 0 -2.4 -0.5 -2.4 -3 0 -1.6 0.3 -3 0.6 -3 0.7 0 5.7 5.6 13.3 14.6 5 6.1 5 6.2 3.1 7.9 -1.9 1.8 -2 1.7 -2 -0.8z"/>
  <path d="M129 176.1 c0 -1.8 6.5 -6.1 9.3 -6.1 4 0 3 2 -2.4 4.7 -4.7 2.4 -6.9 2.8 -6.9 1.4z"/>
  <path d="M151.8 173.9 c-4.2 -1.6 -4.4 -3.9 -0.3 -3.9 3.1 0 3.5 0.3 3.5 2.5 0 1.4 -0.1 2.5 -0.2 2.4 -0.2 0 -1.5 -0.5 -3 -1z"/>
 </g>
 <g fill="#3e4851">
  <path d="M512.7 290.7 c-7 -6.7 -12.7 -12.9 -12.7 -13.8 0 -2.1 3.8 -13.1 4.9 -14.2 0.8 -0.8 28 29.7 29 32.5 0.4 1.2 -5.8 7.8 -7.3 7.8 -0.6 -0.1 -6.8 -5.6 -13.9 -12.3z"/>
  <path d="M487.6 252 c0.3 -4.1 0.8 -14.8 1.3 -23.7 0.5 -8.9 1.2 -16.6 1.5 -17.2 0.4 -0.6 3 -1.1 5.8 -1.1 5 0 5 0 4.4 2.8 -0.3 1.5 -1.3 6.2 -2.1 10.5 -1.5 7.8 -7.3 27.4 -9.9 33.2 -1.3 2.8 -1.3 2.4 -1 -4.5z"/>
  <path d="M518.1 224.8 c-1.6 -2.6 -5.1 -12.5 -5.1 -14.5 0 -1.1 0.8 -1.3 3.3 -0.8 5.3 1.2 6.4 3 5.6 9.8 -0.8 6.9 -1.9 8.5 -3.8 5.5z"/>
  <path d="M151.8 173.7 c-3.8 -1.5 -4.2 -3.3 -1.6 -7.8 2.6 -4.6 4.2 -4.1 3.5 1.2 -0.4 2.9 -0.2 3.9 0.9 3.9 0.8 0 1.4 0.9 1.4 2 0 2.2 -0.3 2.3 -4.2 0.7z"/>
  <path d="M137 163.6 c1 -4.5 1.8 -5.6 4.1 -5.6 2.5 0 2.4 1.2 -0.1 2.8 -1.6 1 -1.8 1.6 -1 3.2 1.4 2.7 1.3 3 -1.4 3 -2.2 0 -2.3 -0.3 -1.6 -3.4z"/>
 </g>
 <g fill="#232244">
  <path d="M305 328.1 c0 -1.4 4.7 -4.1 7.2 -4.1 2.9 0 4.2 -0.9 5.6 -3.7 1.7 -3.1 5.2 -2 5.2 1.7 0 2.5 -0.5 2.9 -7.2 4.9 -7.9 2.3 -10.8 2.6 -10.8 1.2z"/>
  <path d="M361.3 326.3 c-5.5 -1.4 -6.2 -1.8 -6.5 -4.4 -0.4 -2.8 0.3 -3.3 3.8 -2.8 0.4 0 1 -0.4 1.4 -1.1 0.5 -0.8 1.1 -0.6 2 0.5 0.7 0.9 0.9 1.5 0.3 1.3 -0.6 -0.2 -1.3 0.2 -1.4 0.7 -0.2 0.6 2.1 1.8 5.1 2.8 3 0.9 6.1 2.4 6.9 3.2 1.4 1.3 1.1 1.5 -1.9 1.4 -1.9 0 -6.3 -0.8 -9.7 -1.6z"/>
  <path d="M424 327.7 c0 -1.4 6.8 -4.6 8.8 -4 1.7 0.4 2.1 0.2 1.7 -0.9 -0.8 -1.9 1.3 -3.5 5 -4 2.8 -0.3 3 -0.1 3.3 3.3 0.3 3.3 0.1 3.7 -2.7 4.2 -5.2 1.1 -16.1 2 -16.1 1.4z"/>
  <path d="M384 326.1 c0 -1.2 6.1 -3.6 8.2 -3.3 1.6 0.3 3.3 -1.4 3.3 -3.3 0 -0.5 1.7 -1.1 3.7 -1.3 3.3 -0.3 3.8 0 4.4 2.3 0.3 1.4 0.4 2.9 0 3.2 -0.8 0.8 -13.3 3.2 -16.8 3.3 -1.6 0 -2.8 -0.4 -2.8 -0.9z"/>
  <path d="M150.1 158.4 c-1.1 -1.4 -2.5 -2.3 -3.1 -1.9 -0.5 0.3 -1 -0.1 -1 -0.9 0 -2.6 3.6 -1.8 5 1.2 2.1 4.2 2.1 4.2 1.6 4.2 -0.2 0 -1.4 -1.2 -2.5 -2.6z"/>
  <path d="M233.6 148.2 c-1.2 -3.7 -7.6 -4.2 -10.6 -0.9 l-2.1 2.2 0.3 -3.5 0.3 -3.5 5.7 -0.3 5.7 -0.3 1 3.7 c1.1 3.9 0.8 6.1 -0.3 2.6z"/>
 </g>
 <g fill="#022838">
  <path d="M129 176.2 c0 -0.4 1.6 -2.6 3.5 -4.8 2 -2.1 3.8 -5 4.1 -6.4 1.1 -4.9 2.6 -7.8 5.4 -10.5 4.9 -4.7 8.2 -2 11.9 9.9 3 9.6 2.9 10.8 -0.8 9.5 -4.9 -1.7 -5.6 -3.3 -3.2 -7.2 2.6 -4.2 2.6 -5.5 0.1 -8.7 l-1.9 -2.5 -2.3 2.1 c-1.3 1.2 -3.3 2.5 -4.5 2.9 -2.7 0.8 -2.8 1.7 -0.7 5 2.2 3.3 1 6.2 -3.4 8.4 -5 2.5 -8.2 3.4 -8.2 2.3z"/>
  <path d="M328.2 150.7 c-2.2 -5.3 -1.7 -6.2 4 -6.5 5.9 -0.2 8.8 1.6 8.8 5.5 l0 2.4 -2.5 -1.9 c-2.1 -1.7 -3 -1.8 -5.5 -0.9 -1.6 0.6 -3.1 1.8 -3.3 2.7 -0.3 1 -0.8 0.6 -1.5 -1.3z"/>
 </g>
 <g fill="#010707">
  <path d="M417.5 162.6 c-2.2 -1.6 -1.7 -6.5 1.2 -12.3 2.3 -4.8 4.4 -6 7.9 -4.8 3.5 1.3 6.2 5.8 7 11.7 0.6 4.1 0.4 4.7 -1.6 5.8 -3.1 1.6 -3.6 0.5 -1.7 -3.5 1.3 -2.7 1.4 -3.7 0.4 -4.4 -0.6 -0.6 -2.8 -2.4 -4.8 -4 l-3.5 -3 -1.7 2.9 c-2.1 3.5 -2.2 7 -0.2 9.6 0.8 1 1.5 2.2 1.5 2.7 0 1.2 -2.5 0.8 -4.5 -0.7z"/>
  <path d="M221 146.5 c0 -4.3 1.2 -5.6 5.7 -6.2 3.4 -0.4 4.3 -0.2 5.7 1.8 1.9 2.8 2.3 6 0.4 4.1 -2.1 -2.1 -8.5 -1.5 -10.2 1 l-1.6 2.2 0 -2.9z"/>
 </g>
</svg>